<svg xmlns="http://www.w3.org/2000/svg" xmlns:xlink="http://www.w3.org/1999/xlink" fill="none" version="1.1" width="40" height="40" viewBox="0 0 40 40"><rect x="0" y="0" width="40" height="40" rx="20" fill="#FF4D4F" fill-opacity="1"/><g><path d="M20.149483699999998,8C24.640751,8,28.296713,11.656713700000001,28.296713,16.1472301C28.296713,20.142723,25.382159,23.477933999999998,21.606761,24.165258L21.606761,26.008638L23.510235,26.008638C24.383099,26.008638,25.089953,26.722254,25.089953,27.593615C25.089953,28.466478,24.383099,29.179342,23.510235,29.179342L21.606761,29.179342L21.606761,30.419531C21.606761,31.293146,20.8938971,32,20.0210333,32C19.148169,32,18.4345541,31.292395,18.4345541,30.419531L18.4345541,29.179342L16.621971600000002,29.179342C15.7491081,29.179342,15.0415022,28.466478,15.0415022,27.593615C15.0415022,26.722254,15.7491081,26.008638,16.621971600000002,26.008638L18.4345541,26.008638L18.4345541,24.112677C14.7605634,23.326197999999998,12,20.053333000000002,12,16.1472301C12,11.6559625,15.656713700000001,8,20.149483699999998,8ZM20.147222499999998,11.1616974C17.3986773,11.1616974,15.1616821,13.3971901,15.1616821,16.1472378C15.1616821,18.896532999999998,17.3979263,21.133529,20.147222499999998,21.133529C22.897268,21.133529,25.132762,18.896532999999998,25.132762,16.1472378C25.132762,13.3971901,22.897268,11.1616974,20.147222499999998,11.1616974Z" fill-rule="evenodd" fill="#FFFFFF" fill-opacity="1"/></g></svg>