<svg xmlns="http://www.w3.org/2000/svg" xmlns:xlink="http://www.w3.org/1999/xlink" fill="none" version="1.1" width="20" height="20" viewBox="0 0 20 20"><path d="M29.232873881005858,0.30257431C29.76126828100586,-0.14361997,30.54831228100586,-0.090371594,31.01179128100586,0.42292911C31.47527028100586,0.93622977,31.44816328100586,1.7246068,30.95052128100586,2.2048604L30.88230828100586,2.2664065L22.510505481005858,9.2985563C22.354155781005858,9.4297838,22.25636648100586,9.6177673,22.23866678100586,9.8211212C22.22096728100586,10.024475,22.28480818100586,10.226526,22.41613488100586,10.382793L22.45716568100586,10.427414L22.50076078100586,10.468445L30.89769428100586,17.75396C31.41448228100586,18.20743,31.48162828100586,18.987797,31.04990028100586,19.522881C30.618171281005857,20.057966,29.84124528100586,20.157301,29.28877828100586,19.748051L29.21697428100586,19.690096L20.82055328100586,12.406119C20.10045579100586,11.781539,19.68216651500586,10.878582,19.671382989585858,9.9254169C19.66059946500586,8.9722509,20.05835327100586,8.0600624,20.76413608100586,7.4193501L20.86107108100586,7.3352375L29.232873881005858,0.30257431Z" fill="#C5C8CB" fill-opacity="1" transform="matrix(-1,0,0,1,39.34233856201172,0)"/></svg>