<svg xmlns="http://www.w3.org/2000/svg" xmlns:xlink="http://www.w3.org/1999/xlink" fill="none" version="1.1" width="60" height="60" viewBox="0 0 60 60"><g><path d="M16.374999000000003,10L36.101921,10C39.091072,9.9978198095,41.586323,12.2801945,41.849998,15.2576933C42.12019,18.3211546,41.85096,26.666348,41.571152,30.065386L41.523075,30.598078C41.136536,34.479807,40.268269,36.552885,38.365383,38.707691L38.292305,38.788461999999996L47.472115,45.774036C47.904709,46.103073,48.177876,46.599796,48.224037,47.141346L48.230766,47.304806L48.230766,56.153847C48.230766,58.278015,46.508785,60,44.384613,60L7.8461535,60C5.7219815999999994,60,4,58.278015,4,56.153847L4,47.304806C4.00026146826,46.706589,4.27889866,46.142563,4.75384605,45.778847L14.092307,38.618269L13.8817301,38.356730999999996C13.782692,38.233654,13.6932688,38.118269,13.6067305,38.002884L13.3471146,37.650960999999995L13.0942307,37.292307C11.7644224,35.35,11.1201921,33.413461999999996,10.9153843,30.542309C10.8509612,29.624039,10.7249994,27.081732,10.6384611,24.710577999999998L10.5749993,22.688462C10.4961534,19.7942314,10.493269,17.424039399999998,10.5894227,15.7942319L10.624038200000001,15.3048091C10.8660488,12.3082197,13.3686533,9.9997648706,16.374999000000003,10ZM36.101959,13.8461571L16.375037,13.8461571C15.373139,13.845870699999999,14.538883,14.6148591,14.457729,15.6134648C14.34523,17.0115414,14.336576,19.336542100000003,14.410614,22.245195000000002L14.461576,23.968272C14.545229,26.45385,14.685614,29.325964,14.751961,30.271156L14.780807,30.625963C14.965422,32.71154,15.425999,33.948077999999995,16.406768,35.318272C16.654365,35.664663000000004,16.915133,36.001447999999996,17.188498,36.327887000000004L18.325037000000002,37.675001C18.666407,38.07645,18.828083,38.600397,18.772284,39.124403C18.716484,39.648407,18.448098,40.126558,18.029844,40.447117L7.8461914,48.253849L7.8461914,56.153847L44.384651,56.153847L44.384651,48.257694L34.274074999999996,40.564425C33.862949,40.25215,33.59465,39.787682000000004,33.529547,39.275528C33.464441,38.763374,33.608000000000004,38.246553,33.927921,37.841349L34.027,37.727025999999995C34.077227,37.674194,35.215395,36.464622,35.482729,36.162502L35.628881,35.99231C36.878883,34.526926,37.399075,33.200002999999995,37.69619,30.21731C37.97023,27.474041,38.279846,18.5490417,38.018303,15.5971184C37.930805,14.6057725,37.100998,13.8461571,36.101959,13.8461571ZM34.027,37.727025999999995L34.02792,37.725964000000005C34.02614,37.727869,34.025276000000005,37.728806,34.025284,37.728811L34.027,37.727025999999995Z" fill-rule="evenodd" fill="#C5C8CB" fill-opacity="1"/></g><path d="M28.038460018554687,42.69230869626465L28.038460018554687,52.30769279626465L24.192306518554688,52.30769279626465L24.192306518554688,42.69230869626465C24.19230648959773,42.00525949626465,24.55884283855469,41.370399836264646,25.153844888554687,41.026875256264645C25.748846918554687,40.683350645264646,26.481919718554686,40.683350645264646,27.076921718554686,41.026875256264645C27.671923918554686,41.370399836264646,28.038460018554687,42.00525949626465,28.038460018554687,42.69230869626465L28.038460018554687,42.69230869626465Z" fill="#49B9AD" fill-opacity="1"/><path d="M26.0108566,25.0000097407801C28.2646103,25.0000097407801,30.356890999999997,26.0993636,31.763196,27.9587491C32.138405,28.493201,32.059543,29.2564526,31.584739,29.6859145C31.109935,30.115376,30.409441,30.0570545,29.999588,29.5539389C29.017107,28.252425,27.5531726,27.5003626,26.0097113,27.5042326C24.4695988,27.5010681,23.0087657,28.250535499999998,22.0267055,29.5476785C21.7652647,29.8919039,21.3557217,30.0574827,20.95234734,29.9820442C20.54897296,29.9066052,20.21304943,29.6016092,20.071115889,29.1819448C19.929182343,28.762280699999998,20.0028018779,28.2917054,20.26424271,27.94748C21.6818565,26.077089,23.7891297,24.996256867,26.0108566,25.0000097407801L26.0108566,25.0000097407801Z" fill="#C5C8CB" fill-opacity="1"/><ellipse cx="46" cy="11" rx="1.625" ry="1.625" fill-opacity="0" stroke-opacity="1" stroke="#C5C8CB" fill="none" stroke-width="1.5"/><ellipse cx="55" cy="5" rx="3.75" ry="3.75" fill-opacity="0" stroke-opacity="1" stroke="#C5C8CB" fill="none" stroke-width="2.5"/></svg>