<svg xmlns="http://www.w3.org/2000/svg" xmlns:xlink="http://www.w3.org/1999/xlink" fill="none" version="1.1" width="40" height="40" viewBox="0 0 40 40"><rect x="0" y="0" width="40" height="40" rx="20" fill="#558CF5" fill-opacity="1"/><g><path d="M27.331348,17.6531897L29.997709,17.6531897L29.997709,10L22.220822,10L22.220822,12.634291600000001L25.615623,12.634291600000001L23.093575,15.126560699999999C21.737487,14.173634100000001,20.085901,13.6055434,18.2968731,13.6055434C13.7223685,13.6055434,10,17.284389,10,21.803917C10,26.323444,13.7223685,30,18.2968731,30C22.873669,30,26.593746,26.323444,26.593746,21.803917C26.593746,19.9988546,25.993586999999998,18.333524699999998,24.990265,16.9797273L27.331348,14.666132000000001L27.331348,17.6531897ZM12.6663818,21.806209000000003C12.6663818,18.7366858,15.190720599999999,16.2421265,18.2968941,16.2421265C21.400776999999998,16.2421265,23.927405,18.7366858,23.929696,21.806209000000003C23.929696,24.871149000000003,21.400776999999998,27.368,18.2968941,27.368C15.1930113,27.368,12.6663818,24.873440000000002,12.6663818,21.806209000000003Z" fill-rule="evenodd" fill="#FFFFFF" fill-opacity="1"/></g></svg>