<svg xmlns="http://www.w3.org/2000/svg" xmlns:xlink="http://www.w3.org/1999/xlink" fill="none" version="1.1" width="300" height="265.967529296875" viewBox="0 0 300 265.967529296875"><defs><linearGradient x1="0.5571130514144897" y1="0.5914509892463684" x2="0.4240989655482937" y2="0.47015321998304366" id="master_svg0_0_12584"><stop offset="0%" stop-color="#D7F9F1" stop-opacity="1"/><stop offset="100%" stop-color="#E1E4F0" stop-opacity="0"/></linearGradient></defs><path d="M294.18026415405274,132.98372Q294.18023415405276,136.24829,294.0189741540527,139.50891Q293.85772415405273,142.76956,293.53555415405276,146.0184Q293.21340415405274,149.26724,292.7311341540527,152.49648Q292.2488941540527,155.72571,291.6076641540527,158.92754Q290.9664541540527,162.12936,290.16787415405275,165.29611Q289.3692541540527,168.46284,288.4151841540527,171.58685Q287.4611141540527,174.71085,286.35384415405275,177.78456Q285.2465741540527,180.85831,283.98882415405274,183.87436Q282.7310441540527,186.89043,281.3258041540528,189.84155Q279.92055415405275,192.79269,278.3712241540527,195.67178Q276.82189415405276,198.55087,275.13219415405274,201.351Q273.44248415405275,204.15109,271.6164941540527,206.86549Q269.79050415405277,209.5799,267.8326241540527,212.20203Q265.87475415405277,214.82416,263.78968415405274,217.3477Q261.7046141540527,219.87125,259.49740415405273,222.29012Q257.2901841540527,224.70898,254.96615415405273,227.0174Q252.64210415405273,229.32579,250.20681415405272,231.51816Q247.77154415405275,233.71051,245.23089415405275,235.78152Q242.69022415405274,237.85254,240.05032415405273,239.79724Q237.41041415405275,241.74191,234.67762415405272,243.5556Q231.94483415405273,245.36929,229.12572415405273,247.04764Q226.30665415405272,248.72595,223.40804415405273,250.26486Q220.50942415405274,251.80377,217.53829415405272,253.19954Q214.56713415405272,254.59532,211.53063415405273,255.84462Q208.49410415405274,257.0939,205.39954415405273,258.19373Q202.30495415405272,259.29352,199.15980415405272,260.24121Q196.01461415405274,261.18884,192.82642415405275,261.98206Q189.63821415405275,262.77527,186.41466415405273,263.41217Q183.19112415405274,264.04904,179.93999415405273,264.52805Q176.68890415405272,265.00708,173.41802415405274,265.32709Q170.14715415405274,265.64706,166.86440415405272,265.80725Q163.58166415405273,265.96744,160.29496415405274,265.96744Q157.00826415405274,265.96744,153.72552415405272,265.80725Q150.44277415405273,265.64706,147.17191415405273,265.32709Q143.90102415405272,265.00708,140.64990415405273,264.52808Q137.39877415405272,264.04904,134.17522415405273,263.41217Q130.9516841540527,262.77527,127.76348415405273,261.98206Q124.57528315405274,261.18884,121.43011115405274,260.24121Q118.28492315405273,259.29352,115.19034915405274,258.19373Q112.09577515405273,257.0939,109.05926115405273,255.84462Q106.02274715405274,254.59532,103.05160115405273,253.19955Q100.08046315405274,251.80377,97.18185815405273,250.26486Q94.28324515405274,248.72595,91.46415315405274,247.04764Q88.64505815405273,245.36929,85.91226615405273,243.5556Q83.17947815405273,241.74191,80.53957715405274,239.79724Q77.89967715405274,237.85254,75.35902415405273,235.78152Q72.81837115405273,233.71051,70.38308315405274,231.51814Q67.94780315405274,229.32579,65.62375615405273,227.0174Q63.299709154052735,224.70898,61.092495154052735,222.2901Q58.885284154052734,219.87123,56.800224154052735,217.34769Q54.71516415405273,214.82414,52.75728015405274,212.20201Q50.79939615405273,209.5799,48.97340415405273,206.86549Q47.14741115405273,204.15109,45.457710154052734,201.35098Q43.768009154052734,198.55087,42.218671154052736,195.67178Q40.66933015405273,192.79269,39.26408515405274,189.84157Q37.85883915405273,186.89043,36.60107415405273,183.87436Q35.343309354052735,180.85831,34.236053954052736,177.78456Q33.128798454052735,174.71085,32.17471985405273,171.58685Q31.220641154052736,168.46286,30.422038054052734,165.29611Q29.623435254052733,162.12939,28.982232054052734,158.92755Q28.341028954052735,155.72571,27.858769854052735,152.49648Q27.376511154052736,149.26724,27.054358364052735,146.0184Q26.732205514052733,142.76956,26.570934834052736,139.50891Q26.409664154052734,136.24829,26.409664154052734,132.98372Q26.409664154052734,129.71915,26.570934834052736,126.45851Q26.732205514052733,123.19788,27.054358364052735,119.94904Q27.376511154052736,116.70018,27.858770054052734,113.47095Q28.341028954052735,110.24171,28.982232054052734,107.03987Q29.623435254052733,103.83803,30.422038054052734,100.6713Q31.220641154052736,97.504578,32.17471935405273,94.380577Q33.12879805405274,91.256577,34.23605345405274,88.182846Q35.343309354052735,85.109108,36.60107415405273,82.09304Q37.85883915405273,79.076973,39.264086154052734,76.125839Q40.66933015405273,73.174713,42.218671154052736,70.295624Q43.768009154052734,67.416527,45.457710154052734,64.616417Q47.14741115405273,61.816299,48.97340415405273,59.101917Q50.79939615405273,56.387527,52.75728015405274,53.765404Q54.71516415405273,51.14328,56.800224154052735,48.61974Q58.885284154052734,46.096191,61.092495154052735,43.677307Q63.299709154052735,41.258423,65.62375615405273,38.950027Q67.94780315405274,36.641632,70.38308715405273,34.44928Q72.81837115405273,32.256935,75.35902415405273,30.185915Q77.89967715405274,28.114895,80.53957715405274,26.170195Q83.17947815405273,24.225494,85.91226615405273,22.411797Q88.64505815405273,20.598099,91.46415315405274,18.919777Q94.28325315405273,17.241455,97.18186615405273,15.702549Q100.08047115405273,14.163643,103.05161715405274,12.76786Q106.02275515405273,11.372078,109.05926915405273,10.122782Q112.09578315405274,8.8734856,115.19035715405273,7.7736869Q118.28493115405273,6.6738877,121.43011115405274,5.726234Q124.57528315405274,4.7785802,127.76348415405273,3.9853549Q130.9516841540527,3.1921296,134.17522415405273,2.5552444Q137.39877415405272,1.918359,140.64990415405273,1.4393477Q143.90102415405272,0.96033633,147.17191415405273,0.6403529Q150.44277415405273,0.32036939,153.72552415405272,0.1601847Q157.00826415405274,0,160.29496415405274,0Q163.58166415405273,0,166.86440415405272,0.1601847Q170.14715415405274,0.32036939,173.41802415405274,0.6403529Q176.68890415405272,0.96033633,179.94001415405273,1.4393477Q183.19112415405274,1.918359,186.41466415405273,2.5552444Q189.63821415405275,3.1921296,192.82642415405275,3.9853549Q196.01461415405274,4.7785802,199.15980415405272,5.726234Q202.30495415405272,6.6738877,205.39954415405273,7.7736869Q208.49410415405274,8.8734856,211.53063415405273,10.122782Q214.56713415405272,11.372078,217.53829415405272,12.76786Q220.50942415405274,14.163643,223.40804415405273,15.702549Q226.30665415405272,17.241455,229.12572415405273,18.919777Q231.94483415405273,20.598099,234.67762415405272,22.411797Q237.41041415405275,24.225494,240.05030415405272,26.170193Q242.69021415405274,28.114895,245.23087415405274,30.185913Q247.77154415405275,32.256931,250.20681415405272,34.44928Q252.64210415405273,36.641632,254.96615415405273,38.950027Q257.2901841540527,41.258423,259.49740415405273,43.677307Q261.7046141540527,46.096191,263.78968415405274,48.61974Q265.8747341540527,51.14328,267.8326041540528,53.765404Q269.79049415405274,56.387531,271.6164841540527,59.101921Q273.4424741540528,61.816307,275.13218415405277,64.616417Q276.82189415405276,67.416534,278.37124415405276,70.295624Q279.9205741540527,73.174713,281.32581415405275,76.125847Q282.7310441540527,79.076981,283.98882415405274,82.093048Q285.2465741540527,85.109116,286.35384415405275,88.182854Q287.4611141540527,91.256592,288.4151841540527,94.380585Q289.3692541540527,97.504578,290.1678441540527,100.6713Q290.9664541540527,103.83803,291.6076641540527,107.03987Q292.2488941540527,110.24171,292.7311341540527,113.47095Q293.21340415405274,116.70018,293.53555415405276,119.94904Q293.85772415405273,123.19788,294.0189741540527,126.45851Q294.18023415405276,129.71915,294.18026415405274,132.98372Z" fill="#EAFEFA" fill-opacity="1"/><path d="M290.75875858984375,69.42200860424805C295.8639810898438,69.42200860424805,300.00000008984375,65.29725960424804,300.00000008984375,60.18076710424805C300.00000008984375,55.086814404248045,295.8639810898438,50.93952560424805,290.75875858984375,50.93952560424805C285.65579028984376,50.93952560424805,281.51751708984375,55.086814404248045,281.51751708984375,60.18076710424805C281.51751708984375,65.29725960424804,285.65579028984376,69.42200860424805,290.75875858984375,69.42200860424805Z" fill="#49B9AD" fill-opacity="1"/><path d="M281.51977109921876,39.44432373999024C285.00439549921873,39.44432373999024,287.83086319921875,36.626871139990236,287.83086319921875,33.133231639990235C287.83086319921875,29.639591439990234,285.00439549921873,26.822139739990234,281.51977109921876,26.822139739990234C278.03289269921873,26.822139739990234,275.20867919921875,29.639591439990234,275.20867919921875,33.133231639990235C275.20867919921875,36.626871139990236,278.03289269921873,39.44432373999024,281.51977109921876,39.44432373999024Z" fill="#49B9AD" fill-opacity="1"/><path d="M25.92055463803711,60.18076630590821C29.40517903803711,60.18076630590821,32.231646738037114,57.363313705908205,32.231646738037114,53.869674205908204C32.231646738037114,50.3760340059082,29.40517903803711,47.5585823059082,25.92055463803711,47.5585823059082C22.43367623803711,47.5585823059082,19.60946273803711,50.3760340059082,19.60946273803711,53.869674205908204C19.60946273803711,57.363313705908205,22.43367623803711,60.18076630590821,25.92055463803711,60.18076630590821Z" fill="#49B9AD" fill-opacity="1"/><path d="M23.441198,187.30418664648437Q23.441198,187.59191164648436,23.42708,187.87928964648438Q23.412962,188.16666764648437,23.38476,188.45300664648437Q23.356558,188.73934564648437,23.314341,189.02395564648438Q23.272121,189.30856464648437,23.215988,189.59076164648437Q23.159855,189.87295764648437,23.089945,190.15205964648436Q23.020035,190.43116164648438,22.936512,190.70649764648437Q22.852989,190.98183164648438,22.756058,191.25273564648438Q22.659126,191.52364064648438,22.549019,191.78946264648437Q22.438911,192.05528664648438,22.315893,192.31538564648437Q22.192875,192.57548564648437,22.057243,192.8292366464844Q21.92161,193.0829866464844,21.773689,193.3297766464844Q21.625771,193.57656464648437,21.465919,193.81579964648438Q21.306068,194.0550346464844,21.13467,194.28613664648438Q20.963272,194.51724064648437,20.780743,194.73965464648438Q20.598211,194.96206864648437,20.404987,195.17525864648437Q20.211763,195.38844664648437,20.008312,195.59189964648436Q19.804859,195.79535064648437,19.591671,195.98857464648438Q19.378481,196.18179864648437,19.156067,196.36433064648438Q18.933653,196.54685964648436,18.702549,196.71825564648438Q18.471447,196.88965464648436,18.232212,197.04950564648436Q17.992977,197.20935464648437,17.746189,197.35727464648437Q17.499399,197.50519564648437,17.245649,197.64082864648438Q16.991898,197.7764626464844,16.731798,197.89947864648437Q16.471699,198.02249764648437,16.205875,198.13260464648437Q15.940053,198.2427136464844,15.669148,198.33964564648437Q15.398243,198.43657664648438,15.122909,198.52009964648437Q14.847573,198.60362264648438,14.568471,198.67353264648438Q14.28937,198.74344264648437,14.007174,198.79957564648439Q13.724977,198.85570864648437,13.440368,198.89792664648436Q13.155758,198.94014564648438,12.869419,198.96834764648437Q12.58308,198.99654764648437,12.295702,199.01066564648437Q12.008324,199.02478364648437,11.720599,199.02478564648436Q11.432875,199.02478364648437,11.145496,199.01066564648437Q10.858118,198.99654764648437,10.571779,198.96834764648437Q10.28544,198.94014564648438,10.00083,198.8979286464844Q9.7162189,198.85570864648437,9.4340229,198.79957564648439Q9.1518269,198.74344264648437,8.8727245,198.67353264648438Q8.5936232,198.60362264648438,8.3182878,198.52009964648437Q8.0429525,198.43657664648438,7.7720475,198.33964564648437Q7.501142,198.2427136464844,7.2353191,198.13260664648436Q6.9694967,198.02249864648437,6.7093964,197.89948064648436Q6.449297,197.7764626464844,6.1955462,197.64083064648437Q5.9417953,197.50519764648436,5.6950059,197.35727664648437Q5.4482164,197.20935864648436,5.2089825,197.04950664648436Q4.9697485,196.88965564648439,4.738646,196.71825764648437Q4.5075436,196.54685964648436,4.2851295,196.36433064648438Q4.0627151,196.18179864648437,3.8495255,195.98857464648438Q3.6363356,195.79535064648437,3.4328837,195.59189964648436Q3.2294316,195.38844664648437,3.0362077,195.17525864648437Q2.8429837,194.96206864648437,2.6604533,194.73965464648438Q2.4779227,194.51724064648437,2.3065255,194.28613664648438Q2.135128,194.0550346464844,1.9752769,193.81579964648438Q1.8154256,193.57656464648437,1.6675057,193.3297766464844Q1.5195857,193.0829866464844,1.3839533,192.8292366464844Q1.2483209,192.57548564648437,1.1253028,192.31538564648437Q1.0022848,192.05528664648438,0.89217734,191.78946264648437Q0.78206992,191.52364064648438,0.68513846,191.25273564648438Q0.58820701,190.98183064648438,0.50468504,190.70649664648437Q0.42116296,190.4311606464844,0.3512516,190.15205864648436Q0.28134024,189.87295764648437,0.22520798,189.59076164648437Q0.16907571,189.30856464648437,0.12685776,189.02395564648438Q0.08463981,188.73934564648437,0.05643788,188.45300664648437Q0.028235944,188.16666764648437,0.014117972,187.87928964648438Q0,187.59191164648436,0,187.30418664648437Q0,187.01646264648437,0.014117972,186.72908364648438Q0.028235944,186.44170564648437,0.05643788,186.15536664648437Q0.08463981,185.86902764648437,0.12685776,185.58441764648438Q0.16907571,185.29980654648438,0.22520798,185.01761054648438Q0.28134024,184.73541454648438,0.3512516,184.45631214648438Q0.42116296,184.17721084648437,0.50468504,183.90187544648438Q0.58820701,183.6265401464844,0.68513846,183.3556351464844Q0.78206992,183.08472964648436,0.89217734,182.81890674648437Q1.0022848,182.55308434648438,1.1253029,182.29298404648438Q1.2483211,182.03288464648438,1.3839535,181.77913384648437Q1.5195858,181.52538294648437,1.6675057,181.2785935464844Q1.8154256,181.03180404648438,1.9752769,180.79257014648437Q2.135128,180.55333614648438,2.3065252,180.32223364648436Q2.4779227,180.09113124648437,2.6604533,179.86871714648439Q2.8429837,179.64630274648437,3.0362079,179.43311314648437Q3.2294316,179.21992324648437,3.4328837,179.01647134648437Q3.6363356,178.81301924648437,3.8495255,178.61979534648438Q4.0627151,178.42657134648437,4.2851295,178.24404094648438Q4.5075436,178.06151034648437,4.738646,177.89011314648437Q4.9697485,177.71871564648438,5.2089825,177.5588645464844Q5.4482164,177.39901324648437,5.6950059,177.25109334648437Q5.9417953,177.10317334648437,6.1955462,176.96754094648438Q6.449297,176.83190854648439,6.7093968,176.70889044648436Q6.9694967,176.5858724464844,7.2353191,176.47576498648436Q7.501142,176.36565756648437,7.772047,176.26872610648437Q8.0429525,176.17179465648437,8.3182878,176.08827268648437Q8.5936232,176.00475060648438,8.8727255,175.9348392464844Q9.1518269,175.86492788648437,9.4340229,175.80879562648437Q9.7162189,175.75266335648436,10.00083,175.71044540648438Q10.28544,175.66822745648437,10.571779,175.64002552648438Q10.858118,175.61182359048436,11.145496,175.59770561848438Q11.432875,175.58358764648438,11.720599,175.58358764648438Q12.008324,175.58358764648438,12.295702,175.59770561848438Q12.58308,175.61182359048436,12.869419,175.64002552648438Q13.155758,175.66822745648437,13.440368,175.71044540648438Q13.724977,175.75266335648436,14.007174,175.80879562648437Q14.28937,175.86492788648437,14.568472,175.9348392464844Q14.847574,176.00475060648438,15.12291,176.08827268648437Q15.398244,176.17179465648437,15.669148,176.26872610648437Q15.940053,176.36565756648437,16.205875,176.47576498648436Q16.471699,176.5858724464844,16.731798,176.70889054648438Q16.991898,176.83190874648437,17.245649,176.96754114648436Q17.499399,177.10317344648436,17.746189,177.25109334648437Q17.992977,177.39901324648437,18.232212,177.5588645464844Q18.471447,177.71871564648438,18.702549,177.89011284648439Q18.933653,178.06151034648437,19.156067,178.24404094648438Q19.378481,178.42657134648437,19.591671,178.61979554648437Q19.804859,178.81301924648437,20.008312,179.01647134648437Q20.211763,179.21992324648437,20.404987,179.43311314648437Q20.598211,179.64630274648437,20.780743,179.86871714648439Q20.963272,180.09113124648437,21.134668,180.32223364648436Q21.306067,180.55333614648438,21.465918,180.79257014648437Q21.625767,181.03180404648438,21.773687,181.2785935464844Q21.921608,181.52538294648437,22.057241,181.77913384648437Q22.192875,182.03288464648438,22.315891,182.29298444648438Q22.43891,182.55308434648438,22.549017,182.81890674648437Q22.659126,183.08472964648436,22.756058,183.35563464648436Q22.852989,183.6265401464844,22.936512,183.90187544648438Q23.020035,184.17721084648437,23.089945,184.45631314648438Q23.159855,184.73541454648438,23.215988,185.01761054648438Q23.272121,185.29980654648438,23.314339,185.58441764648438Q23.356558,185.86902764648437,23.38476,186.15536664648437Q23.412962,186.44170564648437,23.42708,186.72908364648438Q23.441198,187.01646264648437,23.441198,187.30418664648437Z" fill="#49B9AD" fill-opacity="1"/><path d="M283.6452562121582,100.05334349163819L283.6452562121582,222.0828054916382C283.6452562121582,222.6012254916382,283.6452562121582,222.8491554916382,283.6452562121582,223.34503549163819C283.39280621215823,230.3999354916382,280.12231621215824,236.44055549163818,275.0892262121582,240.72306549163818C270.81119621215817,244.48718549163817,265.0252862121582,247.01162549163817,258.73446621215817,247.01162549163817L61.7247292121582,247.01162549163817C57.4467102121582,247.01162549163817,53.4211372121582,245.99734549163819,49.8981942121582,243.99131549163818C48.3880402121582,243.2249754916382,46.880140312158204,242.2332254916382,45.6201753121582,240.97100549163818C42.852311112158205,238.69450549163818,40.336890412158205,235.4262654916382,39.079180012158204,231.9100754916382C38.071659322158204,229.38564549163817,37.3188362121582,226.61327549163818,37.3188362121582,223.86343549163817L37.3188362121582,100.05334349163819C37.3188362121582,100.05334349163819,47.6329632121582,91.26289249163818,62.47980721215821,79.18166249163818C77.8270302121582,66.35661949163818,97.9549022121582,49.744925491638185,115.5696142121582,35.13925649163818C125.6335492121582,26.596743491638183,124.62602621215821,27.588486491638182,140.2256962121582,14.515510991638184C152.0522262121582,4.440303791638184,169.4122362121582,4.440303791638184,181.2387762121582,14.515510991638184C184.2590862121582,17.039947491638184,187.5295762121582,20.060256491638185,190.5476462121582,22.562152491638184C197.0908862121582,27.858962491638184,204.13450621215821,33.89957949163818,211.6830362121582,40.188132491638186C227.5351462121582,53.261107491638185,244.89740621215822,67.86677449163818,258.48428621215817,79.18166249163818C272.3213562121582,90.49655049163819,282.38528621215823,99.06159849163818,283.6452562121582,100.05334349163819Z" fill="#49B9AD" fill-opacity="1"/><path d="M249.92824081787109,44.200182096069334L249.92824081787109,121.19550109606934L210.6777708178711,144.59162409606932L199.1036808178711,151.64652409606936L174.1928908178711,166.22965409606934L162.61880481787108,173.28455409606934L157.5879668178711,176.05692409606934L152.8073118178711,173.28455409606934L141.7358548178711,166.22965409606934L118.0850368178711,151.64652409606936L107.01358081787109,144.59162409606932L70.7811508178711,121.96185109606934L70.7811508178711,44.200182096069334C70.7811508178711,36.153540096069335,77.32440041787109,29.617052046069336,85.6279948178711,29.617052046069336L235.0836608178711,29.617052046069336C243.1348208178711,29.369116306069337,249.92824081787109,36.153540096069335,249.92824081787109,44.200182096069334Z" fill="#FFFFFF" fill-opacity="1"/><path d="M275.3416662121582,240.7230647265625C271.06364621215823,244.4871847265625,265.2777262121582,247.0116247265625,258.98691621215823,247.0116247265625L61.7247292121582,247.0116247265625C57.4467102121582,247.0116247265625,53.4211372121582,245.9973447265625,49.8981942121582,243.9913147265625C48.3880402121582,243.2249747265625,46.880140312158204,242.2332347265625,45.6201753121582,240.9710047265625C42.852311112158205,238.6945047265625,40.336890412158205,235.4262647265625,39.079180012158204,231.9100847265625C38.071659322158204,229.3856547265625,37.3188362121582,226.6132747265625,37.3188362121582,223.8634447265625L37.3188362121582,223.5929647265625L37.3188362121582,100.0533447265625L50.1506382121582,107.8520508265625L160.3558262121582,173.0366137265625L163.37387621215822,174.7947007265625L163.6263262121582,175.0426407265625L262.5098562121582,233.4202447265625L275.3416662121582,240.7230647265625Z" fill="#F5F7FB" fill-opacity="1"/><path d="M163.37388167114258,171.0080471388672L163.37388167114258,179.5730998388672L49.89819667114258,243.9913178388672C48.388042471142576,243.2249678388672,46.880141771142576,242.2332228388672,45.62017727114258,240.9710078388672C42.852313071142575,238.6945038388672,40.33689217114258,235.4262618388672,39.07918167114258,231.9100798388672L149.53681167114257,166.4775848388672L159.09812167114256,172.5182013388672L160.35582167114256,173.0366125388672L163.37388167114258,171.0080471388672Z" fill="url(#master_svg0_0_12584)" fill-opacity="1"/><path d="M160.1007362121582,173.4666447265625L37.0637475821582,100.4833793665625L37.573924842158206,99.6233100865625L160.6109162121582,172.6065827265625L160.1007362121582,173.4666447265625Z" fill-rule="evenodd" fill="#FFFFFF" fill-opacity="1"/><path d="M283.64300822265625,100.0533447265625L283.64300822265625,223.34503472656252C283.39280822265624,230.3999347265625,280.12231822265625,236.4405547265625,275.08921822265626,240.7230647265625C270.81119822265623,244.4871847265625,265.0252882226563,247.0116247265625,258.7344782226562,247.0116247265625L61.724731222656246,247.0116247265625C57.44671322265625,247.0116247265625,53.42113832265625,245.9973447265625,49.89819672265625,243.9913147265625C48.38804272265625,243.2249747265625,46.87788872265625,242.2332347265625,45.62017822265625,240.9710047265625L58.201791222656254,233.4202447265625L157.08307822265624,175.0426407265625L160.35582822265627,173.0366137265625L163.37387822265623,171.27852672656252L270.56100822265626,107.6041150265625L283.64300822265625,100.0533447265625Z" fill="#F5F7FB" fill-opacity="1"/><path d="M156.82923822265624,174.6118697265625L45.36634087265625,240.2922947265625L45.87401557265625,241.1538347265625L157.33691822265627,175.47341172656252L160.62604822265627,173.4574277265625L163.64055822265624,171.4312517265625L283.89706822265623,100.4839857565625L283.38894822265627,99.6227036965625L163.10715822265627,170.5848767265625L160.08559822265624,172.6157987265625L156.82923822265624,174.6118697265625Z" fill-rule="evenodd" fill="#FFFFFF" fill-opacity="1"/><path d="M253.95381903222656,186.35751728964843L188.53484753222656,186.35751728964843C187.02694733222657,186.35751728964843,185.76698303222656,185.11783838964843,185.76698303222656,183.60768438964843C185.76698303222656,182.09753028964843,187.02694733222657,180.83531188964844,188.53484753222656,180.83531188964844L253.95381903222656,180.83531188964844C255.46397403222656,180.83531188964844,256.72168703222655,182.09753028964843,256.72168703222655,183.60768438964843C256.97412903222653,185.11783838964843,255.71641503222656,186.35751728964843,253.95381903222656,186.35751728964843Z" fill="#49B9AD" fill-opacity="1"/><path d="M253.95381903222656,205.2457185107422L188.53484753222656,205.2457185107422C187.02694733222657,205.2457185107422,185.76698303222656,203.98350001074218,185.76698303222656,202.47334601074218C185.76698303222656,200.96319191074218,187.02694733222657,199.7009735107422,188.53484753222656,199.7009735107422L253.95381903222656,199.7009735107422C255.46397403222656,199.7009735107422,256.72168703222655,200.96319191074218,256.72168703222655,202.47334601074218C256.97412903222653,203.98350001074218,255.71641503222656,205.2457185107422,253.95381903222656,205.2457185107422Z" fill="#49B9AD" fill-opacity="1"/><path d="M267.54071044921875,244.4871816423828L275.59186074921877,240.4525909423828C275.34167054921875,240.72306630238282,275.34167054921875,240.72306630238282,275.08922724921877,240.97100204238282C275.08922724921877,240.97100204238282,275.08922724921877,240.97100204238282,274.83678344921873,240.97100204238282L267.54071044921875,244.4871816423828Z" fill="#526DFF" fill-opacity="1"/><path d="M154.05825814648438,125.81612033325196C152.10858314648436,125.81612033325196,150.27385914648437,125.09485233325195,148.78173614648438,123.53962333325195L123.42917914648437,97.14573633325196C120.56214046648438,94.14796433325196,120.56214046648438,89.14417233325196,123.42917914648437,86.14640433325195C126.29847194648437,83.17117533325195,131.11518764648437,83.17117533325195,133.98448014648437,86.14640433325195L154.05825814648438,107.06316333325195L201.31932114648436,57.97188683325195C204.18861414648438,54.97411817325195,209.00533314648436,54.97411817325195,211.87236814648438,57.97188683325195C214.74166114648438,60.94711593325195,214.74166114648438,65.97344933325195,211.87236814648438,68.94867833325195L159.33478214648437,123.53962333325195C157.95761114648437,125.09485233325195,156.0079341464844,125.81612033325196,154.05825814648438,125.81612033325196Z" fill="#49B9AD" fill-opacity="1"/></svg>