<svg xmlns="http://www.w3.org/2000/svg" xmlns:xlink="http://www.w3.org/1999/xlink" fill="none" version="1.1" width="300.4154052734375" height="75.937744140625" viewBox="0 0 300.4154052734375 75.937744140625"><defs><mask id="master_svg0_0_63" style="mask-type:luminance" maskUnits="userSpaceOnUse" x="163.31168746948242" y="26.538209915161133" width="38.87089920043945" height="35.18604278564453"><path d="M163.31168746948242,26.538209915161133L202.18258646948243,26.538209915161133L202.18258646948243,61.724118915161135L163.31168746948242,61.724118915161135L163.31168746948242,26.538209915161133Z" fill-rule="evenodd" fill="#FFFFFF" fill-opacity="1"/></mask><mask id="master_svg1_0_68" style="mask-type:luminance" maskUnits="userSpaceOnUse" x="257.76338195800787" y="14.705550174810924" width="42.65189743041992" height="44.57944871892687"><path d="M257.76338195800787,14.705683708190918L300.4152789580079,14.705683708190918L300.4152789580079,59.28499870819092L257.76338195800787,59.28499870819092L257.76338195800787,14.705683708190918Z" fill-rule="evenodd" fill="#FFFFFF" fill-opacity="1"/></mask><mask id="master_svg2_0_72" style="mask-type:luminance" maskUnits="userSpaceOnUse" x="106.79642482777126" y="16.263617634773254" width="42.296028175158426" height="13.492212295532227"><path d="M106.79669189453125,16.263617634773254L149.09245289453125,16.263617634773254L149.09245289453125,29.755829634773256L106.79669189453125,29.755829634773256L106.79669189453125,16.263617634773254Z" fill-rule="evenodd" fill="#FFFFFF" fill-opacity="1"/></mask><mask id="master_svg3_0_82" style="mask-type:luminance" maskUnits="userSpaceOnUse" x="286.9145812988281" y="52.16413402557373" width="13.50089168548584" height="6.676668643951416"><path d="M286.9145812988281,52.16413402557373L300.41540629882815,52.16413402557373L300.41540629882815,58.84080262557373L286.9145812988281,58.84080262557373L286.9145812988281,52.16413402557373Z" fill-rule="evenodd" fill="#FFFFFF" fill-opacity="1"/></mask></defs><g transform="matrix(0.7071067690849304,-0.7071067690849304,0.7071067690849304,0.7071067690849304,-22.808689865885995,9.447669234455791)"><path d="M22.808690999999985,32.256359100341804C35.40558199999999,32.256359100341804,45.617381999999985,42.5059211003418,45.617381999999985,55.1493991003418C45.617381999999985,55.27075810034181,45.61644399999999,55.3918991003418,45.61456699999999,55.5128101003418L45.617381999999985,55.5127791003418L44.860686999999984,92.2079501003418L6.7901439999999855,88.9496801003418C6.216270399999986,88.9005661003418,5.747334499999986,88.4697301003418,5.648045099999986,87.9003711003418L1.2354768999999861,62.6008781003418C0.473821369999986,60.3789711003418,0.04330602999998595,58.00242010034181,0.0030984479999859515,55.5306131003418L-1.404856320250808e-14,55.5127791003418L0.0029608124999859512,55.512756100341804L-1.404856320250808e-14,55.1493991003418C-1.404856320250808e-14,42.63235710034181,10.008583999999987,32.46158974034181,22.431506999999986,32.2594261136418L22.808690999999985,32.256359100341804Z" fill="#C9FCF0" fill-opacity="1"/></g><g transform="matrix(-0.7071067690849304,-0.7071067690849304,-0.7071067690849304,0.7071067690849304,170.97991013321933,70.82219760725795)"><path d="M109.60538289453136,32.25635910034174C122.20227389453137,32.25635910034174,132.41407389453136,42.50592110034174,132.41407389453136,55.14939910034174C132.41407389453136,55.27075810034174,132.41313589453137,55.39189910034174,132.41125889453136,55.51281010034174L132.41407389453136,55.51277910034174L132.41407389453136,94.03122710034174L95.25615689453136,94.03122710034174C90.58412309453136,94.03122710034174,86.79669189453136,90.23028910034174,86.79669189453136,85.54159910034174L86.79669189453136,55.51277910034174L86.79965270703137,55.51275610034174L86.79669189453136,55.14939910034174C86.79669189453136,42.632357100341736,96.80527589453136,32.46158974034174,109.22819889453136,32.25942611364174L109.60538289453136,32.25635910034174Z" fill="#56D1C4" fill-opacity="1"/></g><path d="M12.228156852477992,43.106113422216794L10.939376452477992,43.6217856222168C9.534562752477992,41.990365222216795,9.371360302477992,40.407762722216795,10.449769142477992,38.873977888816796L10.454705412477992,38.8664665222168C10.903221452477991,40.3502743222168,11.500152952477992,41.7692923222168,12.228156852477992,43.106113422216794Z" fill="#46E3BE" fill-opacity="1"/><path d="M11.279634475707972,41.24409627575195C11.622915505707972,41.993614395751955,12.335360975707973,41.993614395751955,13.416971175707973,41.24409627575195C14.498581175707972,40.494578005751954,14.498581175707972,40.81291733675195,13.416971175707973,42.19911409575195L12.228176835707972,43.39346529575195L11.279634475707972,42.60021579575195L11.279634475707972,41.24409627575195Z" fill="#46E3BE" fill-opacity="1"/><path d="M36.633279505859335,47.617835998535156C36.053878505859345,47.62236767823516,35.39757750585934,47.74472193853516,34.694070505859344,48.040033698535154L34.694070505859344,48.040033698535154C30.82783150585934,49.66538119853516,27.53947350585934,52.09358409853515,18.38932420585934,50.900252798535156L18.38932420585934,50.900252798535156C16.89399290585934,50.70463709853516,15.480128205859339,50.368540498535154,14.13021850585934,49.924439898535155L14.13021850585934,49.924439898535155C17.11250610585934,53.950045598535155,21.437089905859338,58.63953599853515,27.05448050585934,62.31922599853516L27.05448050585934,62.31922599853516C27.100923505859342,62.32375799853516,27.14432250585934,62.33357599853515,27.190004505859342,62.33961899853516L27.190004505859342,62.33961899853516C27.10549150585934,62.28372899853515,27.01945650585934,62.228592998535156,26.936468505859338,62.17119199853516L26.936468505859338,62.17119199853516C28.34881050585934,62.32828899853516,29.79236750585934,62.412124998535155,31.25648350585934,62.41287999853516L31.25648350585934,62.41287999853516L31.30444950585934,62.41287999853516C35.94500150585934,62.40985899853516,40.78655650585934,61.57377099853515,45.459085505859335,59.62441199853516L45.459085505859335,59.62441199853516C52.84590150585934,56.542142898535154,55.29903750585934,50.334553198535154,55.29903750585934,50.334553198535154L55.29903750585934,50.334553198535154C55.29903750585934,50.334553198535154,53.45195050585934,47.474334138535156,48.51218050585934,51.657791598535155L48.51218050585934,51.657791598535155C44.536304505859334,55.025554198535154,39.26153150585934,55.00969359853516,34.97882250585934,53.12453169853516L34.97882250585934,53.12453169853516C33.89310850585934,52.647199198535155,38.952415505859335,50.37458279853516,39.09707450585934,49.04530199853516L39.09707450585934,49.04530199853516C39.16483650585934,48.43126511853516,38.19637450585934,47.629920421535154,36.70028150585934,47.617835998535156L36.70028150585934,47.617835998535156L36.633279505859335,47.617835998535156Z" fill="#FFFFFF" fill-opacity="1"/><path d="M43.50482793857418,38.752969558471676L43.50482793857418,45.20479955847168C43.50482793857418,45.92166855847168,43.91043233857418,46.33131055847168,44.620239238574186,46.33131055847168L47.86507203857418,46.33131055847168C48.067875038574186,46.33131055847168,48.270677038574185,46.228898558471684,48.37207803857419,46.126489558471675C48.77768103857419,45.71685055847168,48.98048403857418,45.20479955847168,48.98048403857418,44.59033955847168L48.98048403857418,38.95779055847168C48.98048403857418,38.752969558471676,48.98048403857418,38.752969558471676,49.18328603857418,38.752969558471676L55.57155003857419,38.752969558471676C56.078556038574185,38.752969558471676,56.484159038574184,38.34332955847168,56.58556203857418,37.83127955847168L56.58556203857418,34.45174975847168C56.58556203857418,34.24693015847168,56.484159038574184,34.04211045847168,56.38275903857418,33.83728985847168C56.17995603857418,33.53006025847168,55.77435303857418,33.427649958471676,55.36874803857418,33.427649958471676L48.98048403857418,33.427649958471676L48.98048403857418,33.22283025847168L48.98048403857418,26.97582055847168C48.98048403857418,26.15654053847168,48.57488003857418,25.74690055847168,47.763672038574185,25.74690055847168L44.721640538574185,25.74690055847168C44.51883883857418,25.74690055847168,44.316036238574185,25.74690055847168,44.11323453857418,25.84931057847168C43.70763013857418,26.054130618471678,43.50482793857418,26.46377062847168,43.50482793857418,26.873410458471678L43.50482793857418,33.32524015847168L37.11656333857418,33.32524015847168C36.40675615857418,33.32524015847168,36.00115203857418,33.73487995847168,36.00115203857418,34.45174975847168L36.00115203857418,37.62646055847168C36.00115203857418,37.93369055847168,36.10255306857418,38.13850955847168,36.20395409857419,38.34332955847168C36.40675615857418,38.65055955847168,36.81236028857418,38.752969558471676,37.217964438574185,38.752969558471676L43.50482793857418,38.752969558471676Z" fill="#FFFFFF" fill-opacity="1"/><path d="M168.4218757819824,24.099089290766905C166.9470007819824,24.099089290766905,165.75120878198243,25.29487999076691,165.75120878198243,26.769756590766907L165.75120878198243,36.19120459076691C165.75120878198243,40.41286059076691,165.57761578198242,43.83732459076691,165.23243178198243,46.46659659076691C164.88591278198243,49.09586959076691,164.30637778198243,51.457407590766906,163.49382688198241,53.55054259076691C162.67994118198243,55.64434659076691,161.46078158198242,58.10870559076691,159.83501248198243,60.94561959076691L154.07438278198242,58.247579590766904C155.59666328198242,55.82595259076691,156.77309228198243,53.628660590766906,157.6030022819824,51.656370590766905C158.4335798819824,49.68408359076691,159.03848598198243,47.54821759076691,159.41972398198243,45.246768590766905C159.8002938819824,42.946657590766904,159.99057908198242,40.153139590766905,159.99057908198242,36.86554759076691L159.99057908198242,22.144160390766906C159.99057908198242,20.300064490766907,161.48548508198243,18.805826090766907,163.3289136819824,18.805826090766907L176.5754237819824,18.805826090766907L176.5754237819824,16.337461590766907L183.65937078198243,16.337461590766907L183.65937078198243,18.805826090766907L200.1066737819824,18.805826090766907L200.1066737819824,24.099089290766905L168.4218757819824,24.099089290766905Z" fill-rule="evenodd" fill="#464E57" fill-opacity="1"/><g mask="url(#master_svg0_0_63)"><path d="M192.84125946948242,53.88784791516113C195.60940546948243,53.88784791516113,198.7227364694824,53.80171991516113,202.18258646948243,53.628125915161135L200.83322946948243,59.64847791516113C197.99631546948243,59.85545491516113,195.1413704694824,59.95961191516113,192.27040246948243,59.95961191516113C190.2633974694824,59.95961191516113,188.22233946948242,59.90820091516113,186.14656246948243,59.804044915161136C183.2402074694824,59.630452915161136,180.73111746948243,59.26724091516113,178.62128946948243,58.71441091516113C176.51079346948242,58.160247915161136,174.66002146948242,57.32967191516113,173.06830406948242,56.22334691516113C171.68489746948242,57.81372991516113,169.64317276948242,59.64847791516113,166.94446296948243,61.72425291516113L163.31168746948242,57.10533491516114C165.56038946948243,55.51428391516113,167.51531786948243,53.88784791516113,169.17647316948242,52.22736191516113C167.7576813694824,50.22102191516113,166.52984186948242,47.79872691516113,165.49161986948243,44.96180891516113L170.05846116948243,42.73046691516113C170.78488306948242,44.84096191516113,171.61546036948243,46.60493891516113,172.54952616948242,48.02372891516113C173.4141554694824,46.570218915161135,174.15860346948241,44.668035915161134,174.78153746948243,42.31517791516113L167.30834146948243,42.31517791516113L167.30834146948243,37.228891915161135L172.86132716948242,31.883551115161133L167.0486190694824,31.883551115161133L167.0486190694824,26.538209915161133L179.65951146948242,26.538209915161133L179.65951146948242,31.935628915161132L174.00303746948242,37.02124791516113L179.8671554694824,37.02124791516113L179.8671554694824,42.26310091516113C179.38242946948242,44.270106915161136,178.87233146948242,46.01739091516113,178.33619546948242,47.504285915161134C177.79939046948243,48.992515915161135,177.15108646948244,50.393947915161135,176.38994646948242,51.70791591516114C177.5316564694824,52.330848915161134,178.84629246948242,52.79821591516114,180.3345224694824,53.10934791516114C181.82141646948241,53.420480915161136,183.63747046948242,53.628125915161135,185.78335146948243,53.732282915161136C188.13554146948243,53.83576991516114,190.48839946948243,53.88784791516113,192.84125946948242,53.88784791516113Z" fill-rule="evenodd" fill="#464E57" fill-opacity="1"/></g><path d="M199.4318634355469,41.53634417272949L192.52952343554688,41.53634417272949L192.52952343554688,45.84413117272949L198.4457204355469,45.84413117272949L198.4457204355469,51.34503917272949L180.74920979554688,51.34503917272949L180.74920979554688,45.84413117272949L186.92512843554687,45.84413117272949L186.92512843554687,41.53634417272949L180.64572143554688,41.53634417272949L180.64572143554688,35.98335917272949L186.92512843554687,35.98335917272949L186.92512843554687,32.50681777272949C184.50283293554688,32.78389977272949,182.5312127355469,32.97351697272949,181.00893223554687,33.077672972729495L180.74920979554688,27.73166417272949C183.27432583554688,27.594124772729494,186.09455113554688,27.29968377272949,189.20854953554687,26.84967637272949C192.32254743554688,26.400336472729492,195.1587964355469,25.89825099272949,197.71996643554687,25.344755172729492L198.65336443554688,30.690096372729492C197.37344743554686,30.967177872729494,195.33172243554688,31.330388572729493,192.52952343554688,31.779728372729494L192.52952343554688,35.98335917272949L199.4318634355469,35.98335917272949L199.4318634355469,41.53634417272949Z" fill-rule="evenodd" fill="#464E57" fill-opacity="1"/><g mask="url(#master_svg1_0_68)"><path d="M285.52830895800787,52.953517174810926L285.52830895800787,52.953517174810926L285.52830895800787,52.953517174810926C285.52830895800787,56.450087174810925,282.69339595800784,59.28499917481092,279.1968249580079,59.28499917481092L259.73566995800786,59.28499917481092L259.73566995800786,52.953517174810926L278.78220395800787,52.953517174810926L278.78220395800787,43.66426517481092L264.5622339580079,43.66426517481092L264.5622339580079,37.38485817481092L278.78220395800787,37.38485817481092L278.78220395800787,29.756097174810925L268.81794295800785,29.756097174810925C267.4679202580079,32.45413917481092,265.6859173580079,35.55144617481092,263.47193385800784,39.04534617481092L257.76338195800787,35.56813717481093C262.4343795580079,29.202601174810923,265.5817613580079,22.784319874810926,267.2088651580079,16.314627374810925L273.28062795800787,17.975114774810923C272.8993899580079,19.394574574810925,272.31184295800784,21.193269274810923,271.51665195800786,23.372533774810925L278.78220395800787,23.372533774810925L278.78220395800787,14.705550174810924L285.6317979580079,14.965272584810924L285.6317979580079,23.372533774810925L300.4152789580079,23.372533774810925L300.4152789580079,29.756097174810925L285.6317979580079,29.756097174810925L285.6317979580079,37.38485817481092L300.4152789580079,37.38485817481092L300.4152789580079,43.66426517481092L285.52830895800787,43.66426517481092L285.52830895800787,52.953517174810926Z" fill-rule="evenodd" fill="#464E57" fill-opacity="1"/></g><g mask="url(#master_svg2_0_72)"><path d="M113.02442162777126,24.254922534773254L140.19579282777127,24.254922534773254C141.69871182777126,24.254922534773254,142.91653482777127,25.472746934773255,142.91653482777127,26.975665634773254L142.91653482777127,29.755829634773256L149.09245282777127,29.755829634773256L149.09245282777127,21.815935234773256C149.09245282777127,20.124735234773254,147.72106582777127,18.754015134773255,146.02986482777126,18.754015134773255L131.18095382777125,18.754015134773255L131.18095382777125,16.263617634773254L124.75265882777126,16.263617634773254L124.75265882777126,18.754015134773255L106.79642482777126,18.754015134773255L106.79642482777126,29.703751634773255L113.02442162777126,29.703751634773255L113.02442162777126,24.254922534773254Z" fill-rule="evenodd" fill="#464E57" fill-opacity="1"/></g><path d="M143.31126113395996,47.17712800543213C142.34047313395996,46.30649000543213,141.44713493395997,45.27027100543213,140.63057853395995,44.06913900543213C139.68115613395997,42.67237900543213,140.13383433395995,40.75150200543213,141.62740513395997,39.96298690543213C143.45280643395995,38.99820850543213,145.08859043395995,38.04745050543213,146.53475643395996,37.11204960543213C146.53475643395996,37.11204960543213,143.61304663395995,32.65937900543213,143.61304663395995,32.65937900543213C141.90181633395997,34.16430020543213,139.68249173395995,35.61313720543213,136.96441963395995,37.00789360543213C134.88664031395996,38.07415720543213,133.82171166395997,40.441036705432126,134.40658785395996,42.70175600543213C134.49605521395995,43.04694100543213,134.55280688395996,43.26860600543213,134.55280688395996,43.26860600543213C134.56348955395995,43.30733000543213,134.57751056395995,43.34605500543213,134.59420225395996,43.38277700543213C135.91818573395997,46.17295600543213,137.51791553395995,48.55853100543213,139.39205643395997,50.54016600543213C141.18073603395996,52.43166600543213,143.44279103395996,54.233031005432125,146.17822243395997,55.944261005432125C146.43126843395996,56.102498005432125,146.76844043395997,56.046414005432126,146.95538743395997,55.81339900543213L149.76092343395996,52.31615900543213C149.98926543395996,52.03106600543213,149.89912943395996,51.60843200543213,149.57931843395997,51.43150000543213C146.93602443395997,49.97331700543213,144.84689543395996,48.55519200543213,143.31126113395996,47.17712800543213Z" fill-rule="evenodd" fill="#464E57" fill-opacity="1"/><path d="M114.01029827223067,27.187048569442872L114.01029827223067,32.27266744144287C114.01029827223067,32.31606534144287,114.04501727223067,32.350784341442875,114.08841517223067,32.350784341442875L122.05568497223067,32.350784341442875C122.13713997223067,32.350784341442875,122.16651697223067,32.46094944144287,122.09574497223068,32.49967384144287C117.51087597223068,35.00743054144287,112.82452207223068,36.90627574144287,106.85624778223067,38.19487254144287C106.80884343423067,38.20555454144287,106.83688544253067,38.256298541442874,106.85624778223067,38.30103154144287L106.85624778223067,43.39265954144287C106.87160411823068,43.42938154144287,106.81819076923067,43.44874254144287,106.85624778223067,43.43805954144287C112.06805567223067,41.99256154144287,118.69264697223068,39.96886354144287,123.49784397223067,37.36629754144287C123.53256397223068,37.34760254144287,123.57596197223067,37.35828554144287,123.59866297223067,37.39100154144287L124.24296097223068,38.35778354144287C124.26699797223067,38.39383654144287,124.25831797223067,38.44190854144287,124.22293097223067,38.46661254144287C119.57930797223068,41.68610254144287,114.28804787223068,44.31003254144287,106.85624778223067,46.33840454144287C106.80951110123067,46.35109054144287,106.83555010843067,46.402501541442874,106.85624778223067,46.44656654144287L106.85624778223067,51.22973354144287C106.87293945223067,51.26578654144287,106.81819076923067,51.283146541442875,106.85624778223067,51.27046154144287C114.04969077223068,48.86819554144287,121.61769397223067,46.07467754144287,126.43224097223067,42.88990554144287C126.47563897223067,42.86186454144287,126.53238997223067,42.88322954144287,126.54774597223067,42.932636541442875L126.86555597223068,43.97619954144287C126.87490397223067,44.00691354144287,126.86422097223067,44.04029554144287,126.83951697223067,44.06099454144287C120.71100297223067,49.00840454144287,115.44578227223067,52.65653754144287,106.85624778223067,55.00405454144287C106.80884343423067,55.01740754144287,106.83354710783067,55.07015354144287,106.85624778223067,55.11421854144287L106.85624778223067,60.05295054144287C106.87427478623067,60.08833554144287,106.81885843623067,60.105029541442875,106.85624778223067,60.09100654144287C110.57047877223067,58.71227554144287,114.71468697223068,57.102530541442874,118.34412397223068,55.263108541442875C121.99359097223068,53.41233554144287,125.09824097223067,51.50013854144287,127.65941197223067,49.528517541442866L127.65941197223067,50.87787354144287C127.65941197223067,52.40082054144287,127.45977897223068,53.464413541442866,127.06251897223068,54.069319541442866C126.66458897223067,54.67489354144287,125.98089797223068,55.01273454144287,125.01278097223067,55.08150354144287L121.68179097223067,55.38529154144287C121.63171597223067,55.38929854144287,121.66710197223067,55.438704541442874,121.68179097223067,55.486777541442876L121.68179097223067,60.990355541442874C121.69247397223067,61.02507354144287,121.64573697223068,61.04777454144287,121.68179097223067,61.04443654144287L127.14063597223067,60.68590054144287C128.93866297223067,60.54769054144287,130.34009497223067,60.201174541442874,131.34359897223067,59.648344541442874C132.34710097223066,59.09418154144287,133.06484397223068,58.19483454144287,133.49749097223068,56.94963554144287C133.92947197223066,55.70376854144287,134.14646297223067,53.95781954144287,134.14646297223067,51.70778154144287C134.14646297223067,48.87821054144287,133.91211297223066,46.38247154144287,133.45342597223066,44.207880541442876C133.45275797223067,44.20587854144287,133.45209097223068,44.20454154144287,133.45209097223068,44.20253854144287L132.82581897223068,41.90710054144287C132.8251509722307,41.90376154144287,132.82381597223068,41.90042354144287,132.82248097223066,41.89708554144287L131.48781397223067,38.71698754144287C131.48647797223066,38.714984541442874,131.48581097223067,38.71231454144287,131.48447597223068,38.70964354144287C130.69929997223068,37.20004854144287,129.75388297223068,35.77725024144287,128.64889497223066,34.44124934144287C128.61951797223068,34.40586284144287,128.62285597223067,34.35578774144287,128.66158097223067,34.33108424144287C128.87656897223067,34.19354484144287,129.3252409722307,33.89376254144287,130.00826397223068,33.43240454144287C131.04848997223067,32.730019141442874,132.27966697223067,32.350784341442875,133.53488097223067,32.350784341442875L133.53488097223067,32.350784341442875C135.22207597223067,32.350784341442875,136.58945597223067,30.98273464144287,136.58945597223067,29.295540541442872L136.58945597223067,27.187048569442872C136.58945597223067,27.14431788744287,136.55473897223067,27.10893154144287,136.51200797223066,27.10893154144287L114.08841517223067,27.10893154144287C114.04501727223067,27.10893154144287,114.01029827223067,27.14431788744287,114.01029827223067,27.187048569442872Z" fill-rule="evenodd" fill="#464E57" fill-opacity="1"/><g><path d="M224.18654770214843,53.57658290608215L249.90240470214843,53.57658290608215L249.90240470214843,59.544188906082155L216.05903820214843,59.544188906082155C212.95238420214844,59.544188906082155,210.43394470214844,57.02574890608215,210.43394470214844,53.919092906082156L210.43394470214844,16.210604906082153L249.90240470214843,16.210604906082153L249.90240470214843,22.230957306082153L226.00260070214844,22.230957306082153L230.67426670214843,23.943522706082152C230.53539070214845,24.185885706082153,230.39651670214843,24.44494080608215,230.25897770214843,24.722022306082152C230.11943470214845,24.999103806082154,229.96386870214843,25.292877406082155,229.79094270214844,25.604009906082155L249.90240470214843,25.604009906082155L249.90240470214843,31.15699590608215L237.62801770214844,31.15699590608215L237.52386070214843,35.25647090608216L249.90240470214843,35.25647090608216L249.90240470214843,41.12125690608215L236.90159570214843,41.12125690608215L236.88156470214844,41.20204490608215C236.75537670214845,41.699456906082155,235.97420470214843,44.58911790608215,234.31371870214844,46.760371906082156C234.29435570214844,46.74902090608215,234.27432670214844,46.737002906082154,234.25496270214845,46.72631990608215C232.24728970214844,49.25210490608215,228.89159570214844,51.53552590608216,224.18654770214843,53.57658290608215ZM216.55784610214843,22.230990606082152L216.55784610214843,49.78827190608215C216.55784610214843,51.880739906082155,218.25371980214842,53.576617906082156,220.34618760214843,53.576617906082156L217.85512260214844,49.11326190608215C221.52261770214844,47.902781906082154,224.32481470214844,46.69163490608216,226.26238470214844,45.48048690608215C228.19995270214844,44.27000690608215,229.56599970214845,42.81716290608215,230.36252570214845,41.121289906082154L218.27041150214845,41.121289906082154L218.27041150214845,35.256502906082154L231.34800370214845,35.256502906082154L231.45215970214844,31.157028906082154L226.36587270214844,31.157028906082154C225.77765870214844,31.987606906082153,224.80887270214845,33.180727906082154,223.46018570214844,34.73772690608215L218.63362220214844,31.260516906082152C221.29761270214843,28.354163906082153,223.32131170214845,25.344989106082153,224.70538570214845,22.230990606082152L216.55784610214843,22.230990606082152Z" fill-rule="evenodd" fill="#464E57" fill-opacity="1"/></g><path d="M247.5135564466797,51.05580468551025L238.6876678466797,51.05580468551025L238.6876678466797,44.379136085510254L249.90246884667968,44.379136085510254L249.90246884667968,48.66689298551025C249.90246884667968,49.98620268551025,248.83286584667968,51.05580468551025,247.5135564466797,51.05580468551025Z" fill-rule="evenodd" fill="#464E57" fill-opacity="1"/><g mask="url(#master_svg3_0_82)"><path d="M297.74347029882813,58.84080262557373L286.9145812988281,58.84080262557373L286.9145812988281,52.16413402557373L300.41547329882815,52.16413402557373L300.13238229882813,56.45189092557373C300.13238229882813,57.77120062557373,299.0627802988281,58.84080262557373,297.74347029882813,58.84080262557373Z" fill-rule="evenodd" fill="#464E57" fill-opacity="1"/></g></svg>