<svg xmlns="http://www.w3.org/2000/svg" xmlns:xlink="http://www.w3.org/1999/xlink" fill="none" version="1.1" width="156.60009765625" height="143.79998779296875" viewBox="0 0 156.60009765625 143.79998779296875"><defs><filter id="master_svg0_0_5984" filterUnits="objectBoundingBox" color-interpolation-filters="sRGB" x="-0.7253333536783854" y="-3.8857143947056363" width="2.450666707356771" height="8.771428789411273"><feFlood flood-opacity="0" result="BackgroundImageFix"/><feBlend mode="normal" in="SourceGraphic" in2="BackgroundImageFix" result="shape"/><feGaussianBlur stdDeviation="13.600000381469727" result="effect1_foregroundBlur"/></filter><mask id="master_svg1_0_5987" style="mask-type:luminance" maskUnits="userSpaceOnUse" x="28.800048828125" y="0" width="100" height="129"><rect x="28.800048828125" y="0" width="100" height="100" rx="38" fill="#FFFFFF" fill-opacity="1"/></mask><filter id="master_svg2_0_5988" filterUnits="objectBoundingBox" color-interpolation-filters="sRGB" x="-1.3453763736191617" y="-2.1572414266652076" width="3.6907527472383235" height="5.314482853330415"><feFlood flood-opacity="0" result="BackgroundImageFix"/><feBlend mode="normal" in="SourceGraphic" in2="BackgroundImageFix" result="shape"/><feGaussianBlur stdDeviation="31.280000686645508" result="effect1_foregroundBlur"/></filter><filter id="master_svg3_0_5989" filterUnits="objectBoundingBox" color-interpolation-filters="sRGB" x="-0.36666666666666664" y="-0.34283557015527966" width="1.7333333333333334" height="1.838042504824017"><feFlood flood-opacity="0" result="BackgroundImageFix"/><feColorMatrix in="SourceAlpha" type="matrix" values="0 0 0 0 0 0 0 0 0 0 0 0 0 0 0 0 0 0 127 0"/><feOffset dy="4" dx="0"/><feGaussianBlur stdDeviation="5.5"/><feColorMatrix type="matrix" values="0 0 0 0 0.1221686378121376 0 0 0 0 0.787449061870575 0 0 0 0 0.6292704939842224 0 0 0 1 0"/><feBlend mode="normal" in2="BackgroundImageFix" result="effect1_dropShadow"/><feBlend mode="normal" in="SourceGraphic" in2="effect1_dropShadow" result="shape"/></filter><filter id="master_svg4_0_5990" filterUnits="objectBoundingBox" color-interpolation-filters="sRGB" x="-0.33306121826171875" y="-0.4945454452977036" width="1.6661224365234375" height="1.9890908905954072"><feFlood flood-opacity="0" result="BackgroundImageFix"/><feBlend mode="normal" in="SourceGraphic" in2="BackgroundImageFix" result="shape"/><feGaussianBlur stdDeviation="4.079999923706055" result="effect1_foregroundBlur"/></filter><radialGradient cx="0" cy="0" r="1" gradientUnits="userSpaceOnUse" id="master_svg5_0_12140" gradientTransform="translate(78.800048828125 52.039748668670654) rotate(90) scale(16.960251331329346 16.53607663048078)"><stop offset="0%" stop-color="#6BEBCD" stop-opacity="1"/><stop offset="100%" stop-color="#25C6A0" stop-opacity="1"/></radialGradient></defs><ellipse cx="78.300048828125" cy="96" rx="37.5" ry="7" fill="#ACFFEB" fill-opacity="1" filter="url(#master_svg0_0_5984)"/><rect x="28.800048828125" y="0" width="100" height="100" rx="38" fill="#47D6B4" fill-opacity="1"/><g mask="url(#master_svg1_0_5987)"><ellipse cx="78.300048828125" cy="100" rx="46.5" ry="29" fill="#EAFEFA" fill-opacity="1" filter="url(#master_svg2_0_5988)"/></g><path d="M103.350391828125,32.2885828C106.363811828125,32.2885828,108.800048828125,34.76509,108.800048828125,37.818778L108.800048828125,70.97981999999999C108.800048828125,74.026798,106.363811828125,76.503304,103.350391828125,76.503304L54.256477828125,76.503304C52.800103628125,76.49659299999999,51.410843128125,75.905991,50.383998528125,74.872433C49.363865198125,73.83887899999999,48.793395980225,72.436195,48.800107382885,70.97981999999999L48.800107382885,29.5301957C48.800107382885,26.4765077,51.243057928125,24,54.249766328125,24L73.343707828125,24C76.357127828125,24,76.860482828125,25.8859042,78.793367828125,29.5301957L80.685981828125,32.295293799999996L103.350391828125,32.2885828Z" fill="#D6FFF5" fill-opacity="1" filter="url(#master_svg3_0_5989)"/><rect x="53.800048828125" y="36" width="49" height="33" rx="0" fill="#FFFFFF" fill-opacity="1" filter="url(#master_svg4_0_5990)"/><path d="M75.050048828125,50.25L63.800048828125,50.25L63.800048828125,57.75L75.050048828125,57.75L75.050048828125,69L82.550048828125,69L82.550048828125,57.75L93.800048828125,57.75L93.800048828125,50.25L82.550048828125,50.25L82.550048828125,39L75.050048828125,39L75.050048828125,50.25Z" fill="url(#master_svg5_0_12140)" fill-opacity="1"/></svg>