<svg xmlns="http://www.w3.org/2000/svg" xmlns:xlink="http://www.w3.org/1999/xlink" fill="none" version="1.1" width="40" height="40" viewBox="0 0 40 40"><defs><mask id="master_svg0_0_7933" style="mask-type:luminance" maskUnits="userSpaceOnUse" x="2" y="0" width="36.3636360168457" height="40"><g><path d="M2.70192617,13.110269L19.065563,0.38299596C19.722128,-0.12766533,20.64151,-0.12766533,21.298075,0.38299596L37.661709,13.110269C38.104595,13.454735,38.363636,13.984381,38.363636,14.545455L38.363636,34.545456C38.363636,37.557919,35.921555,40,32.90909,40L7.4545455,40C4.4420831,40,2,37.557919,2,34.545456L2,14.545455C2,13.984381,2.25904155,13.454735,2.70192617,13.110269ZM5.6364746,15.434225L5.6364746,34.544983C5.6364746,35.549133,6.4505024,36.363163,7.4546566,36.363163L12.909058,36.363163L12.909058,19.999823C12.909058,18.995668,13.723085,18.181641,14.72724,18.181641L25.63633,18.181641C26.640484,18.181641,27.454514,18.995668,27.454514,19.999823L27.454514,36.363163L32.909203000000005,36.363163C33.913357000000005,36.363163,34.727386,35.549133,34.727386,34.544983L34.727386,15.434225L20.181931,4.1210938L5.6364746,15.434225ZM23.81815,36.363163L23.81815,21.818005L16.545422000000002,21.818005L16.545422000000002,36.363163L23.81815,36.363163Z" fill-rule="evenodd" fill="#FFFFFF" fill-opacity="1"/></g></mask></defs><g><path d="M2.70192617,13.110269L19.065563,0.38299596C19.722128,-0.12766533,20.64151,-0.12766533,21.298075,0.38299596L37.661709,13.110269C38.104595,13.454735,38.363636,13.984381,38.363636,14.545455L38.363636,34.545456C38.363636,37.557919,35.921555,40,32.90909,40L7.4545455,40C4.4420831,40,2,37.557919,2,34.545456L2,14.545455C2,13.984381,2.25904155,13.454735,2.70192617,13.110269ZM5.6364746,15.434225L5.6364746,34.544983C5.6364746,35.549133,6.4505024,36.363163,7.4546566,36.363163L12.909058,36.363163L12.909058,19.999823C12.909058,18.995668,13.723085,18.181641,14.72724,18.181641L25.63633,18.181641C26.640484,18.181641,27.454514,18.995668,27.454514,19.999823L27.454514,36.363163L32.909203000000005,36.363163C33.913357000000005,36.363163,34.727386,35.549133,34.727386,34.544983L34.727386,15.434225L20.181931,4.1210938L5.6364746,15.434225ZM23.81815,36.363163L23.81815,21.818005L16.545422000000002,21.818005L16.545422000000002,36.363163L23.81815,36.363163Z" fill-rule="evenodd" fill="#1C2023" fill-opacity="1"/></g><g mask="url(#master_svg0_0_7933)"/></svg>