<svg xmlns="http://www.w3.org/2000/svg" xmlns:xlink="http://www.w3.org/1999/xlink" fill="none" version="1.1" width="156.60009765625" height="143.79998779296875" viewBox="0 0 156.60009765625 143.79998779296875"><defs><filter id="master_svg0_0_5963" filterUnits="objectBoundingBox" color-interpolation-filters="sRGB" x="-0.7253333536783854" y="-3.8857143947056363" width="2.450666707356771" height="8.771428789411273"><feFlood flood-opacity="0" result="BackgroundImageFix"/><feBlend mode="normal" in="SourceGraphic" in2="BackgroundImageFix" result="shape"/><feGaussianBlur stdDeviation="13.600000381469727" result="effect1_foregroundBlur"/></filter><mask id="master_svg1_0_5966" style="mask-type:luminance" maskUnits="userSpaceOnUse" x="28.800048828125" y="0" width="100" height="129"><rect x="28.800048828125" y="0" width="100" height="100" rx="38" fill="#FFFFFF" fill-opacity="1"/></mask><filter id="master_svg2_0_5967" filterUnits="objectBoundingBox" color-interpolation-filters="sRGB" x="-1.3453763736191617" y="-2.1572414266652076" width="3.6907527472383235" height="5.314482853330415"><feFlood flood-opacity="0" result="BackgroundImageFix"/><feBlend mode="normal" in="SourceGraphic" in2="BackgroundImageFix" result="shape"/><feGaussianBlur stdDeviation="31.280000686645508" result="effect1_foregroundBlur"/></filter><filter id="master_svg3_0_5968" filterUnits="objectBoundingBox" color-interpolation-filters="sRGB" x="-0.26666666666666666" y="-0.2109975278849239" width="1.5333333333333334" height="1.6138109902106876"><feFlood flood-opacity="0" result="BackgroundImageFix"/><feColorMatrix in="SourceAlpha" type="matrix" values="0 0 0 0 0 0 0 0 0 0 0 0 0 0 0 0 0 0 127 0"/><feOffset dy="5" dx="0"/><feGaussianBlur stdDeviation="4"/><feColorMatrix type="matrix" values="0 0 0 0 0.3589489161968231 0 0 0 0 0.724520742893219 0 0 0 0 0.9504359364509583 0 0 0 1 0"/><feBlend mode="normal" in2="BackgroundImageFix" result="effect1_dropShadow"/><feBlend mode="normal" in="SourceGraphic" in2="effect1_dropShadow" result="shape"/></filter><filter id="master_svg4_0_5969" filterUnits="objectBoundingBox" color-interpolation-filters="sRGB" x="-0.9190909966418118" y="-1.057777828640408" width="2.838181993283624" height="3.115555657280816"><feFlood flood-opacity="0" result="BackgroundImageFix"/><feBlend mode="normal" in="SourceGraphic" in2="BackgroundImageFix" result="shape"/><feGaussianBlur stdDeviation="9.520000457763672" result="effect1_foregroundBlur"/></filter><linearGradient x1="0.5" y1="0.26806640625" x2="0.5" y2="1" id="master_svg5_0_12097"><stop offset="0%" stop-color="#7CCDFB" stop-opacity="1"/><stop offset="100%" stop-color="#B2DFF9" stop-opacity="1"/></linearGradient><linearGradient x1="0.5" y1="0.26806640625" x2="0.5" y2="1" id="master_svg6_0_12097"><stop offset="0%" stop-color="#7CCDFB" stop-opacity="1"/><stop offset="100%" stop-color="#B2DFF9" stop-opacity="1"/></linearGradient><linearGradient x1="0.5" y1="0.26806640625" x2="0.5" y2="1" id="master_svg7_0_12097"><stop offset="0%" stop-color="#7CCDFB" stop-opacity="1"/><stop offset="100%" stop-color="#B2DFF9" stop-opacity="1"/></linearGradient></defs><ellipse cx="78.300048828125" cy="96" rx="37.5" ry="7" fill="#8FD4FE" fill-opacity="1" filter="url(#master_svg0_0_5963)"/><rect x="28.800048828125" y="0" width="100" height="100" rx="38" fill="#67C0F7" fill-opacity="1"/><g mask="url(#master_svg1_0_5966)"><ellipse cx="78.300048828125" cy="100" rx="46.5" ry="29" fill="#B1DFFD" fill-opacity="1" filter="url(#master_svg2_0_5967)"/></g><path d="M104.281314828125,28.6376982C98.10444682812499,22.4541006,87.991336828125,22.4541006,81.807738828125,28.6376982L81.01376382812501,29.4316745C79.789155828125,30.6562829,77.810941828125,30.6562829,76.58633382812499,29.4316745L75.792358828125,28.6376982C69.608760828125,22.4541006,59.502380828125,22.4541006,53.318782828125,28.6376982C47.141913928125,34.814567,46.045149528125,50.552797,58.082642528125,63.216053C64.838172828125,70.328197,72.131990828125,73.995293,76.007672828125,75.583248C77.797485828125,76.316666,79.809341828125,76.316666,81.592422828125,75.583248C85.468104828125,73.995293,92.76192482812499,70.328197,99.51745582812501,63.216053C111.554946828125,50.552797,110.45818282812499,34.821296000000004,104.281314828125,28.6376982Z" fill="#A7DBF9" fill-opacity="1" filter="url(#master_svg3_0_5968)"/><path d="M96.39581715454102,35.26915810532226C92.13045515454101,30.999152905322266,85.14697615454102,30.999152905322266,80.87697215454102,35.26915810532226L80.32870115454102,35.81742860532226C79.48306315454101,36.66306640532227,78.11703315454102,36.66306640532227,77.27139615454101,35.81742860532226L76.72312515454101,35.26915810532226C72.45312015454101,30.999152905322266,65.47428705454101,30.999152905322266,61.204281854541016,35.26915810532226C56.93892295454101,39.53451680532227,56.18156625454102,50.40235320532227,64.49390505454102,59.146805205322266C69.15885115454101,64.05800620532227,74.19550515454102,66.59027520532226,76.87180915454101,67.68681320532227C78.10774015454102,68.19326820532225,79.49700115454101,68.19326820532225,80.72828815454102,67.68681320532227C83.40459215454102,66.59027520532226,88.44124615454102,64.05800620532227,93.10619315454102,59.146805205322266C101.418529154541,50.40235320532227,100.66117515454101,39.53916310532227,96.39581715454102,35.26915810532226Z" fill="#FFFFFF" fill-opacity="1" filter="url(#master_svg4_0_5969)"/><ellipse cx="65.800048828125" cy="49" rx="4" ry="4" fill="url(#master_svg5_0_12097)" fill-opacity="1"/><ellipse cx="78.800048828125" cy="49" rx="4" ry="4" fill="url(#master_svg6_0_12097)" fill-opacity="1"/><ellipse cx="91.800048828125" cy="49" rx="4" ry="4" fill="url(#master_svg7_0_12097)" fill-opacity="1"/></svg>