<svg xmlns="http://www.w3.org/2000/svg" xmlns:xlink="http://www.w3.org/1999/xlink" fill="none" version="1.1" width="156.60009765625" height="143.79998779296875" viewBox="0 0 156.60009765625 143.79998779296875"><defs><filter id="master_svg0_0_5973" filterUnits="objectBoundingBox" color-interpolation-filters="sRGB" x="-0.7253333536783854" y="-3.8857143947056363" width="2.450666707356771" height="8.771428789411273"><feFlood flood-opacity="0" result="BackgroundImageFix"/><feBlend mode="normal" in="SourceGraphic" in2="BackgroundImageFix" result="shape"/><feGaussianBlur stdDeviation="13.600000381469727" result="effect1_foregroundBlur"/></filter><mask id="master_svg1_0_5976" style="mask-type:luminance" maskUnits="userSpaceOnUse" x="28.800048828125" y="0" width="100" height="129"><rect x="28.800048828125" y="0" width="100" height="100" rx="38" fill="#FFFFFF" fill-opacity="1"/></mask><filter id="master_svg2_0_5977" filterUnits="objectBoundingBox" color-interpolation-filters="sRGB" x="-1.3453763736191617" y="-2.1572414266652076" width="3.6907527472383235" height="5.314482853330415"><feFlood flood-opacity="0" result="BackgroundImageFix"/><feBlend mode="normal" in="SourceGraphic" in2="BackgroundImageFix" result="shape"/><feGaussianBlur stdDeviation="31.280000686645508" result="effect1_foregroundBlur"/></filter><filter id="master_svg3_0_5979" filterUnits="objectBoundingBox" color-interpolation-filters="sRGB" x="-0.3751999907762318" y="-0.21666666666666667" width="1.7503999815524636" height="1.6"><feFlood flood-opacity="0" result="BackgroundImageFix"/><feColorMatrix in="SourceAlpha" type="matrix" values="0 0 0 0 0 0 0 0 0 0 0 0 0 0 0 0 0 0 127 0"/><feOffset dy="5" dx="0"/><feGaussianBlur stdDeviation="4.5"/><feColorMatrix type="matrix" values="0 0 0 0 0.33725491166114807 0 0 0 0 0.5529412031173706 0 0 0 0 0.9607843160629272 0 0 0 1 0"/><feBlend mode="normal" in2="BackgroundImageFix" result="effect1_dropShadow"/><feBlend mode="normal" in="SourceGraphic" in2="effect1_dropShadow" result="shape"/></filter><filter id="master_svg4_0_5980" filterUnits="objectBoundingBox" color-interpolation-filters="sRGB" x="-0.3751999907762318" y="-0.21666666666666667" width="1.7503999815524636" height="1.6"><feFlood flood-opacity="0" result="BackgroundImageFix"/><feColorMatrix in="SourceAlpha" type="matrix" values="0 0 0 0 0 0 0 0 0 0 0 0 0 0 0 0 0 0 127 0"/><feOffset dy="5" dx="0"/><feGaussianBlur stdDeviation="4.5"/><feColorMatrix type="matrix" values="0 0 0 0 0.33725491166114807 0 0 0 0 0.5529412031173706 0 0 0 0 0.9607843160629272 0 0 0 1 0"/><feBlend mode="normal" in2="BackgroundImageFix" result="effect1_dropShadow"/><feBlend mode="normal" in="SourceGraphic" in2="effect1_dropShadow" result="shape"/></filter><mask id="master_svg5_0_5980" style="mask-type:luminance" maskUnits="userSpaceOnUse" x="54.800048828125" y="20" width="47.97441482543945" height="60"><path d="M86.719024828125,27.9957356C86.719024828125,28.8486137,86.846957828125,29.7334757,87.102821828125,30.65032C87.358684828125,31.567164,87.763801828125,32.420043,88.318172828125,33.208955C88.872543828125,33.997868,89.576167828125,34.648188,90.429046828125,35.159915C91.281924828125,35.671641,92.284057828125,35.927505,93.435443828125,35.927505L102.774463828125,35.927505L102.774463828125,72.004265C102.774463828125,73.240936,102.529258828125,74.349682,102.038856828125,75.33049C101.548450828125,76.311302,100.89812882812501,77.14285699999999,100.087894828125,77.82516100000001C99.277660828125,78.507462,98.382136828125,79.040512,97.401328828125,79.424309C96.420516828125,79.80810199999999,95.461028828125,80,94.522861828125,80L63.051648128125,80C62.241413628125,80,61.356552128125,79.765457,60.397063728125,79.296375C59.437575328125,78.827293,58.542053028125,78.208954,57.710496628125,77.441364C56.878940128125,76.673775,56.185976428125,75.799572,55.631605328125,74.818764C55.077234328125,73.837952,54.800048828125,72.814499,54.800048828125,71.748402L54.800048828125,28.251599300000002C54.800048828125,27.3560767,55.002607468125,26.4285712,55.407724738125,25.4690833C55.812842028125,24.5095949,56.367213028125,23.6247334,57.070837728125,22.8144989C57.774462428125,22.0042644,58.574036128125,21.3326226,59.469558228125,20.79957354C60.365080828125,20.26652452,61.303246928125,20,62.284057128125,20L86.719024828125,20L86.719024828125,27.9957356Z" fill="#FFFFFF" fill-opacity="1" filter="url(#master_svg4_0_5980)"/></mask><filter id="master_svg6_0_5981" filterUnits="objectBoundingBox" color-interpolation-filters="sRGB" x="-0.5881081142941037" y="-0.4440816373241191" width="2.176216228588207" height="1.8881632746482382"><feFlood flood-opacity="0" result="BackgroundImageFix"/><feBlend mode="normal" in="SourceGraphic" in2="BackgroundImageFix" result="shape"/><feGaussianBlur stdDeviation="5.440000057220459" result="effect1_foregroundBlur"/></filter><radialGradient cx="0" cy="0" r="1" gradientUnits="userSpaceOnUse" id="master_svg7_0_12120" gradientTransform="translate(78.39723872289142 47.06933578645085) rotate(0) scale(13.801247286239231 10.169214201210687)"><stop offset="0%" stop-color="#9ECAFF" stop-opacity="1"/><stop offset="100%" stop-color="#4C86F6" stop-opacity="1"/></radialGradient><radialGradient cx="0" cy="0" r="1" gradientUnits="userSpaceOnUse" id="master_svg8_0_12120" gradientTransform="translate(78.39723872289142 60.06933578645085) rotate(0) scale(13.801247286239231 10.169214201210687)"><stop offset="0%" stop-color="#9ECAFF" stop-opacity="1"/><stop offset="100%" stop-color="#4C86F6" stop-opacity="1"/></radialGradient></defs><ellipse cx="78.300048828125" cy="96" rx="37.5" ry="7" fill="#93B5F7" fill-opacity="1" filter="url(#master_svg0_0_5973)"/><rect x="28.800048828125" y="0" width="100" height="100" rx="38" fill="#558DF5" fill-opacity="1"/><g mask="url(#master_svg1_0_5976)"><ellipse cx="78.300048828125" cy="100" rx="46.5" ry="29" fill="#C0D4FF" fill-opacity="1" filter="url(#master_svg2_0_5977)"/></g><path d="M97.65719417900391,24.2857141C98.8085803790039,25.3518124,99.7254247790039,26.2366738,100.40772727900391,26.9402986C101.0900294790039,27.6439233,101.6124184790039,28.240938200000002,101.9748914790039,28.7313433C102.33736447900391,29.2217484,102.5612444790039,29.6375265,102.6465334790039,29.9786777C102.73182147900391,30.319829,102.77446447900391,30.618337,102.77446447900391,30.874201L102.77446447900391,31.897655L93.3075139790039,31.897655C92.8810746790039,31.897655,92.5079402790039,31.737740000000002,92.18811097900391,31.417911C91.86828147900391,31.098081,91.60175692900391,30.724947,91.38853734900391,30.298507999999998C91.1753177090039,29.8720684,91.01540299900391,29.434967999999998,90.90879319900391,28.9872065C90.8021833820039,28.5394459,90.7488784790039,28.1876335,90.7488784790039,27.931769799999998L90.7488784790039,20L90.9407761390039,20C91.28192752900391,20,91.6337398890039,20.053304903,91.9962131790039,20.15991472C92.3586865790039,20.26652452,92.7744648790039,20.46908316,93.24354787900391,20.76759064C93.7126311790039,21.0660981,94.2989849790039,21.4925373,95.0026097790039,22.0469084C95.70623447900391,22.6012793,96.5910958790039,23.347548,97.65719417900391,24.2857141Z" fill="#BBD3FF" fill-opacity="1"/><path d="M86.719024828125,27.9957356C86.719024828125,28.8486137,86.846957828125,29.7334757,87.102821828125,30.65032C87.358684828125,31.567164,87.763801828125,32.420043,88.318172828125,33.208955C88.872543828125,33.997868,89.576167828125,34.648188,90.429046828125,35.159915C91.281924828125,35.671641,92.284057828125,35.927505,93.435443828125,35.927505L102.774463828125,35.927505L102.774463828125,72.004265C102.774463828125,73.240936,102.529258828125,74.349682,102.038856828125,75.33049C101.548450828125,76.311302,100.89812882812501,77.14285699999999,100.087894828125,77.82516100000001C99.277660828125,78.507462,98.382136828125,79.040512,97.401328828125,79.424309C96.420516828125,79.80810199999999,95.461028828125,80,94.522861828125,80L63.051648128125,80C62.241413628125,80,61.356552128125,79.765457,60.397063728125,79.296375C59.437575328125,78.827293,58.542053028125,78.208954,57.710496628125,77.441364C56.878940128125,76.673775,56.185976428125,75.799572,55.631605328125,74.818764C55.077234328125,73.837952,54.800048828125,72.814499,54.800048828125,71.748402L54.800048828125,28.251599300000002C54.800048828125,27.3560767,55.002607468125,26.4285712,55.407724738125,25.4690833C55.812842028125,24.5095949,56.367213028125,23.6247334,57.070837728125,22.8144989C57.774462428125,22.0042644,58.574036128125,21.3326226,59.469558228125,20.79957354C60.365080828125,20.26652452,61.303246928125,20,62.284057128125,20L86.719024828125,20L86.719024828125,27.9957356Z" fill="#BBD3FF" fill-opacity="1" filter="url(#master_svg3_0_5979)"/><g mask="url(#master_svg5_0_5980)"><rect x="59.800048828125" y="26" width="37" height="49" rx="0" fill="#FFFFFF" fill-opacity="1" filter="url(#master_svg6_0_5981)"/><path d="M94.71475999658203,47.953091661621094C94.71475999658203,46.84434936162109,94.33096499658203,45.895522161621095,93.56337499658203,45.10660956162109C92.79578399658203,44.317696961621095,91.85761799658204,43.923240661621094,90.74887699658203,43.923240661621094L66.76166889658204,43.923240661621094C65.65292689658203,43.923240661621094,64.71476049658203,44.317696961621095,63.94716989658203,45.10660956162109C63.17957931658203,45.895522161621095,62.79578399658203,46.84434936162109,62.79578399658203,47.953091661621094C62.79578399658203,49.0618333616211,63.17957931658203,49.999999561621095,63.94716989658203,50.76759056162109C64.71476049658203,51.535181061621095,65.65292689658203,51.9189762616211,66.76166889658204,51.9189762616211L90.74887699658203,51.9189762616211C91.85761799658204,51.9189762616211,92.79578399658203,51.535181061621095,93.56337499658203,50.76759056162109C94.33096499658203,49.999999561621095,94.71475999658203,49.0618333616211,94.71475999658203,47.953091661621094Z" fill="url(#master_svg7_0_12120)" fill-opacity="1"/><path d="M94.71475999658203,60.953091661621094C94.71475999658203,59.84434936162109,94.33096499658203,58.895522161621095,93.56337499658203,58.10660956162109C92.79578399658203,57.317696961621095,91.85761799658204,56.923240661621094,90.74887699658203,56.923240661621094L66.76166889658204,56.923240661621094C65.65292689658203,56.923240661621094,64.71476049658203,57.317696961621095,63.94716989658203,58.10660956162109C63.17957931658203,58.895522161621095,62.79578399658203,59.84434936162109,62.79578399658203,60.953091661621094C62.79578399658203,62.0618333616211,63.17957931658203,62.999999561621095,63.94716989658203,63.76759056162109C64.71476049658203,64.53518106162109,65.65292689658203,64.9189762616211,66.76166889658204,64.9189762616211L90.74887699658203,64.9189762616211C91.85761799658204,64.9189762616211,92.79578399658203,64.53518106162109,93.56337499658203,63.76759056162109C94.33096499658203,62.999999561621095,94.71475999658203,62.0618333616211,94.71475999658203,60.953091661621094Z" fill="url(#master_svg8_0_12120)" fill-opacity="1"/></g></svg>