<svg xmlns="http://www.w3.org/2000/svg" xmlns:xlink="http://www.w3.org/1999/xlink" fill="none" version="1.1" width="40" height="40" viewBox="0 0 40 40"><path d="M11.7446079,30.797113L5.0724843,37.469238C3.9386611,38.603062,2,37.800041,2,36.196571L2,7.3994589C2,4.4174201,4.4174201,2,7.3994589,2L32.596933,2C35.578972,2,37.996391,4.4174201,37.996391,7.3994589L37.996391,25.397655C37.996391,28.379694,35.578972,30.797113,32.596933,30.797113L11.7446079,30.797113Z" fill="#49B9AD" fill-opacity="1"/><path d="M15.0613793,17.3053395L15.0615916,17.3050005Q17.7679272,19,20.193317399999998,19Q22.5536299,19,24.839358,17.3712239L24.83959,17.3715496Q25.093676000000002,17.1904926,25.390841,17.0954462Q25.688005,17.0003999,26,17.0003999Q26.098233999999998,17.0003999,26.195995,17.0100286Q26.293756000000002,17.0196571,26.390101,17.0388218Q26.486448,17.0579863,26.580454,17.0865021Q26.674458,17.1150179,26.765213,17.1526105Q26.85597,17.190203,26.942605,17.2365103Q27.02924,17.2828174,27.110917,17.3373934Q27.192596,17.3919692,27.268532999999998,17.4542882Q27.344469,17.5166073,27.41393,17.5860693Q27.483393,17.6555313,27.545712,17.7314672Q27.60803,17.8074031,27.662605,17.8890818Q27.717182,17.9707603,27.763489,18.0573951Q27.809795,18.1440298,27.847388000000002,18.23478627Q27.884982,18.32554263,27.913498,18.41954672Q27.942014999999998,18.51355088,27.961178,18.6098974Q27.980342999999998,18.70624387,27.989971,18.80400491Q27.9996,18.901765943,27.9996,19Q27.999601,19.23899934,27.943274000000002,19.47126621Q27.886946000000002,19.70353311,27.777464000000002,19.91598189Q27.667984,20.1284307,27.511516999999998,20.3090925Q27.355049,20.4897542,27.16041,20.6284504L27.160642,20.6287761Q23.833005,23,20.193317399999998,23Q16.6187072,23,12.9384084,20.6949995L12.9386207,20.6946605Q12.8313693,20.627488,12.7334421,20.5473304Q12.6355147,20.4671726,12.5484744,20.3753088Q12.4614341,20.2834446,12.3866696,20.1813405Q12.3119051,20.0792363,12.2506094,19.96852112Q12.1893139,19.85780585,12.1424652,19.74024647Q12.0956167,19.6226871,12.0639627,19.50015944Q12.0323088,19.37763178,12.0163543,19.25209111Q12.0004001,19.12655041,12.0003999,19Q12.0003999,18.901765943,12.0100286,18.80400491Q12.0196571,18.70624387,12.038821800000001,18.6098974Q12.0579863,18.51355088,12.0865021,18.41954672Q12.1150179,18.32554263,12.1526105,18.23478627Q12.190203,18.1440298,12.236510299999999,18.0573951Q12.2828174,17.9707603,12.3373934,17.8890818Q12.3919692,17.8074031,12.4542882,17.7314672Q12.5166073,17.6555313,12.5860693,17.5860693Q12.6555313,17.5166073,12.7314672,17.4542882Q12.8074031,17.3919692,12.8890818,17.3373935Q12.9707603,17.2828176,13.0573951,17.2365103Q13.1440298,17.1902032,13.23478627,17.1526107Q13.32554263,17.1150179,13.41954672,17.0865021Q13.51355088,17.0579863,13.6098974,17.0388218Q13.70624387,17.0196571,13.80400491,17.0100286Q13.901765943,17.0003999,14,17.0003999Q14.28155255,17.0003999,14.55215812,17.0781462Q14.82276362,17.1558925,15.0613793,17.3053395Z" fill-rule="evenodd" fill="#EAFEFA" fill-opacity="1"/></svg>