<svg xmlns="http://www.w3.org/2000/svg" xmlns:xlink="http://www.w3.org/1999/xlink" fill="none" version="1.1" width="30" height="30" viewBox="0 0 30 30"><g><path d="M19.151386,5.32516C19.023455,4.8667378,18.959488,4.4243069,18.959488,3.9978678L18.959488,0L6.7420042,0Q6.0063968,7.4505806e-9,5.3347546999999995,0.39978677Q4.663113,0.79957354,4.1353945,1.4072495Q3.60767591,2.0149255,3.30383795,2.7345417Q3,3.4541578,3,4.1257997L3,25.874201C3,26.407249,3.13859275,26.918976,3.41577825,27.409382C3.69296378,27.899786,4.0394456000000005,28.336887,4.4552239,28.720682C4.8710021,29.104477,5.3187633000000005,29.413647,5.7985074999999995,29.648188C6.2782516,29.882729,6.720682399999999,30,7.1257997,30L22.861406,30C23.33049,30,23.810234,29.904051,24.30064,29.712154C24.791044,29.520256,25.238806,29.253731,25.643923,28.91258C26.04904,28.571428,26.374201,28.155651,26.619404,27.665245C26.864605,27.174841,26.987207,26.620468,26.987207,26.002132L26.987207,7.9637527L22.317698,7.9637527Q21.454159,7.9637523,20.814499,7.5799575Q20.174839,7.1961622,19.759062,6.6044774Q19.343285,6.0127935,19.151386,5.32516ZM24.428524,2.1428571C25.004215,2.6759062,25.462639,3.1183369,25.803789,3.4701493Q26.315517,3.9978678,26.587372,4.3656716Q26.859226,4.7334757,26.923193,4.9893389Q26.987156,5.2452021,26.987158,5.4371004L26.987158,5.9488273L22.253683,5.9488273C22.040462,5.9488273,21.853897,5.8688698,21.693981,5.7089553C21.534067,5.5490403,21.400805,5.3624735,21.294195,5.1492538C21.187584,4.9360342,21.107628,4.717484,21.054323,4.4936032Q20.974365,4.1577826,20.974365,3.9658849L20.974365,0L21.070314,0C21.240891,0,21.416796,0.026652452,21.598032,0.079957359C21.77927,0.13326226,21.987158,0.23454158,22.221701,0.38379532Q22.573513,0.60767591,23.101231,1.0234542C23.453043,1.3006396,23.895473,1.673774,24.428524,2.1428571ZM22.381721,12.552622C22.765514,12.947079,22.957413,13.421492,22.957413,13.975863C22.957413,14.530233,22.765514,14.999317,22.381721,15.383112C21.997925,15.766908,21.528843,15.958805,20.974472,15.958805L8.980867400000001,15.958805Q8.1493111,15.958805,7.5736179,15.383112C7.1898227,14.999317,6.9979248,14.530233,6.9979248,13.975863C6.9979248,13.421492,7.1898227,12.947079,7.5736179,12.552622Q8.1493111,11.960938,8.980867400000001,11.960938L20.974472,11.960938C21.528843,11.960938,21.997925,12.158166,22.381721,12.552622ZM22.381721,23.363214C21.997925,23.757671,21.528843,23.954899,20.974472,23.954899L8.980867400000001,23.954899Q8.1493111,23.954899,7.5736179,23.363214C7.1898227,22.968758,6.9979248,22.494345,6.9979248,21.939974C6.9979248,21.385603,7.1898227,20.916519,7.5736179,20.532724Q8.1493111,19.957031,8.980867400000001,19.957031L20.974472,19.957031C21.528843,19.957031,21.997925,20.14893,22.381721,20.532724C22.765514,20.916519,22.957413,21.385603,22.957413,21.939974C22.957413,22.494345,22.765514,22.968758,22.381721,23.363214Z" fill-rule="evenodd" fill="#49B9AD" fill-opacity="1"/></g></svg>