<svg xmlns="http://www.w3.org/2000/svg" xmlns:xlink="http://www.w3.org/1999/xlink" fill="none" version="1.1" width="40" height="40" viewBox="0 0 40 40"><defs><mask id="master_svg0_0_9616" style="mask-type:luminance" maskUnits="userSpaceOnUse" x="3.9982551855500787" y="1.9954671366140246" width="31.601171493530273" height="36.0046501159668"><path d="M4,2L35.594057,2L35.594057,38L4,38L4,2Z" fill-rule="evenodd" fill="#FFFFFF" fill-opacity="1"/></mask></defs><g mask="url(#master_svg0_0_9616)"><g><path d="M30.990481185550077,6.646184836614025C28.116646185550078,3.7814153366140246,24.17305418555008,1.9954671366140246,19.794309185550077,1.9954671366140246C15.424628185550079,1.9954671366140246,11.47197188555008,3.7814153366140246,8.607201985550079,6.646184836614025C3.258423555550079,11.994963636614024,2.4787711855500785,20.534879136614023,6.721531085550079,26.735835136614025C8.444019285550079,29.274237136614026,10.900831185550079,31.277764136614024,13.77466628555008,32.45630713661403L18.806144185550078,37.578444136614024L18.806144185550078,37.596576136614026L18.82427618555008,37.61470713661402C19.36822018555008,38.14051713661402,20.238529185550078,38.122386136614026,20.782473185550078,37.596576136614026L25.81395218555008,32.45630713661403C28.70591818555008,31.277764136614024,31.12646718555008,29.274237136614026,32.87615218555008,26.735835136614025C37.11891018555008,20.534879136614023,36.33925818555008,11.994963636614024,30.990481185550077,6.646184836614025ZM19.79425118555008,4.768904636614025C23.39334318555008,4.768904636614025,26.657006185550078,6.237552636614025,29.02316118555008,8.603707236614024C33.429104185550074,13.009650136614024,34.09090118555008,20.071851136614026,30.591530185550077,25.175854136614024C29.12288318555008,27.351630136614023,26.99243818555008,29.046920136614023,24.53562618555008,29.989756136614023C24.345246185550078,30.071347136614026,24.191128185550077,30.180136136614024,24.037010185550077,30.316121136614026L19.79425118555008,34.658606136614026L15.542425185550078,30.316121136614026C15.388308185550079,30.162005136614024,15.216059185550078,30.044150136614025,15.016613185550078,29.980691136614023C12.550735885550079,29.028788136614025,10.474684185550078,27.333497136614024,9.015101885550079,25.175854136614024C5.5066658855500785,20.071851136614026,6.159398285550079,13.009650136614024,10.565341385550079,8.603707236614024C12.922430485550079,6.237552636614025,16.19515718555008,4.768904636614025,19.79425118555008,4.768904636614025Z" fill-rule="evenodd" fill="#1C2023" fill-opacity="1"/></g><path d="M14.33674144744873,19.715162275L14.33674144744873,16.051269575L19.79430864744873,11.037109375L25.251875447448732,16.673095675L25.251875447448732,24.198164374999998L15.09741216744873,24.198164374999998L14.33674144744873,19.715162275Z" fill-rule="evenodd" fill="#49B9AD" fill-opacity="1"/><path d="M23.58378214744873,18.957790175L23.58378214744873,18.957790175C23.58378214744873,18.495438075,23.97360894744873,18.123743275,24.42689544744873,18.123743275C24.88018144744873,18.123743275,25.251875447448732,18.495438075,25.251875447448732,18.957790175L25.251875447448732,24.197780175C25.251875447448732,24.660131975,24.88018144744873,25.031826975,24.42689544744873,25.031826975L24.39969844744873,25.031826975L15.179854037448731,25.031826975C14.72656768744873,25.031826975,14.33674144744873,24.660131975,14.33674144744873,24.197780175L14.33674144744873,24.170582775L14.33674144744873,18.957790175C14.33674144744873,18.495438075,14.72656768744873,18.123743275,15.179854037448731,18.123743275C15.63314034744873,18.123743275,15.99576934744873,18.495438075,15.99576934744873,18.957790175L15.99576934744873,23.363733275L23.58378214744873,23.363733275L23.58378214744873,18.957790175Z" fill-rule="evenodd" fill="#49B9AD" fill-opacity="1"/><path d="M13.620548941174317,18.077676775L13.620548941174317,18.077676775C13.294182941174316,18.394977575,12.759305001174317,18.394977575,12.442004561174317,18.077676775C12.106572673174316,17.751310375,12.106572673174316,17.216433075,12.442004561174317,16.890066575L19.223167941174317,10.145166215C19.522336941174316,9.800668615,20.057214741174317,9.800668615,20.383581141174318,10.145166215L27.146612641174315,16.890066575C27.491110641174316,17.216433075,27.491110641174316,17.751310375,27.146612641174315,18.077676775C26.83837764117432,18.394977575,26.312565641174317,18.394977575,25.977134641174317,18.077676775L19.794308641174318,11.876719975L13.620548941174317,18.077676775Z" fill-rule="evenodd" fill="#49B9AD" fill-opacity="1"/></g></svg>