<svg xmlns="http://www.w3.org/2000/svg" xmlns:xlink="http://www.w3.org/1999/xlink" fill="none" version="1.1" width="30" height="30" viewBox="0 0 30 30"><g><path d="M16.891117,23.413324L23.366762,11.948424L23.366762,3.3202007C23.366762,1.4863896,21.873209,0,20.032234,0L3.3703439,0C1.5078796,0,0,1.4899714,0,3.3345273L0,26.665472C0,28.506447,1.5114614,30,3.3703439,30L16.558023,30L16.371777,28.936247C16.359047,28.878115,16.342596,28.807917,16.32369,28.727232C16.183004,28.126875,15.906261,26.94591,16.013611,25.834528C16.113897,24.777937,16.683382,23.79298,16.891117,23.413324ZM17.793669,7.4960938L5.8058467,7.4960938C5.3903737,7.4960938,5.0536976,7.8685865,5.0572791,8.3306208C5.0572791,8.792655,5.3903737,9.1651478,5.8058467,9.1651478L17.793669,9.1651478C18.205559,9.1651478,18.542236,8.792655,18.542236,8.3306208C18.542236,7.8685865,18.209141,7.4960938,17.793669,7.4960938ZM28.782196,15.226467L26.454117,13.890508C26.020735,13.621882,25.479904,13.568158,24.992798,13.729333C24.505692,13.836782,24.072311,14.159132,23.853828,14.58535L18.012138,24.535206C17.632483,25.230049,17.417583,26.300966,17.578758,27.049534L17.847382,28.600393C17.954832,29.13406,18.227039,29.56386,18.660419,29.778759C18.932627,29.939934,19.20125,29.99366,19.527182,29.99366C19.745663,29.99366,19.960564,29.939934,20.121738,29.886209L21.63678,29.352543C22.396093,29.083918,23.209129,28.389076,23.638929,27.694233L29.484203,17.690651C29.97489,16.888359,29.702682,15.709991,28.782196,15.226467ZM5.057251,14.99273C5.057251,15.454764,5.3903456,15.827257,5.8058186,15.827257L17.79364,15.827257C18.205532,15.827257,18.542208,15.454764,18.542208,14.99273C18.542208,14.530696,18.209114,14.158203,17.79364,14.158203L5.8058186,14.158203C5.3939271,14.158203,5.057251,14.530696,5.057251,14.99273ZM14.423297,22.493273L5.8058186,22.493273C5.3903456,22.493273,5.057251,22.120781,5.057251,21.658747C5.057251,21.196712,5.3939271,20.824219,5.8058186,20.824219L14.423297,20.824219C14.83877,20.824219,15.171865,21.196712,15.171865,21.658747C15.171865,22.120781,14.835188,22.493273,14.423297,22.493273Z" fill-rule="evenodd" fill="#49B9AD" fill-opacity="1"/></g></svg>