<svg xmlns="http://www.w3.org/2000/svg" xmlns:xlink="http://www.w3.org/1999/xlink" fill="none" version="1.1" width="30" height="30" viewBox="0 0 30 30"><g><path d="M29.698475,12.221432C29.708515,12.251552,29.715208,12.301752,29.721901,12.361993C29.808914,12.867342,30.006369,14.055414,29.999676,15.025953C29.999676,16.076812,29.798876,17.224724,29.711861,17.716686C29.70182,17.770233,29.695127,17.810394,29.688435,17.837168L29.688435,17.860594L29.675047,17.927528C29.460859,19.108908,28.71455,19.845179,27.717237,19.845179L27.549904,19.845179C25.930109,19.845179,24.604822,21.163771,24.604822,22.79026L24.604822,22.823727L24.598127,22.857193C24.54458,23.389317,24.82905,23.98168,24.835743,23.985025L24.842436,23.998413L24.849129,24.011799C25.314318,25.052618,24.942837,26.364519,24.029192,26.936802L24.015804,26.950188L20.37796,28.961546L20.364573,28.968239C19.976357,29.159,19.634995,29.286173,19.173153,29.286173C18.490429,29.286173,17.82444,29.008398,17.342516,28.533171C16.388712,27.579365,15.4416,26.987001,14.876011,26.987001C14.116313,26.987001,12.965055,27.977621,12.536678,28.352449C12.489825,28.392609,12.449665,28.43277,12.409505,28.462889C11.991169,28.931425,11.321833,29.215893,10.578868,29.215893C10.230813,29.215893,9.9262648,29.112146,9.6585302,29.025133L9.5915966,29.001705L6.0441113,27.027163L6.0173378,27.013775C5.0334129,26.357824,4.6117306,25.055965,5.0568395,24.04192C5.1304665,23.854506,5.3044944,23.322382,5.3044944,22.947554C5.3044944,21.327759,3.9859006,20.002472,2.3594122,20.002472L2.2790918,20.002472C1.3252869,20.002472,0.55889624,19.256161,0.32128167,18.098209L0.30789495,18.024582L0.30789495,17.997808C0.29785487,17.967688,0.29116151,17.917488,0.28446814,17.857248C0.19745436,17.351898,0,16.160479000000002,0,15.186594C0,14.212708,0.20080104,13.021289,0.28446814,12.51594C0.29450819,12.4557,0.30789495,12.408846,0.30789495,12.37538L0.30789495,12.351953L0.32128167,12.285019C0.53546947,11.10364,1.28178,10.3673687,2.2790918,10.3673687L2.4363861,10.3673687C4.056181,10.3673687,5.3814678,9.0487747,5.3814678,7.4222865C5.3814678,6.9370174,5.1538935,6.3814678,5.0802665,6.2174807L5.0668797,6.1907072C4.6016908,5.149888,4.9731727,3.8379881,5.8868175,3.2657051L5.910244,3.2523184L9.6752634,1.21418779L9.7355042,1.19076099C10.003239,1.10040052,10.30444,1,10.662536,1C11.345259,1,12.01125,1.27777478,12.493172,1.7530039C13.058762,2.3152467999999997,14.210021,3.1452246,14.889398,3.1452246C15.572121,3.1452246,16.720034,2.3119001,17.285624,1.7530039C17.737425,1.30120155,18.467003,1,19.116259,1C19.464315,1,19.775557,1.1037472,20.043291,1.19076099L20.110224,1.21418779L23.701216,3.245625C24.842436,3.871455,25.334398,5.0996881,24.872557,6.1773205C24.798929,6.3647346,24.624901,6.8968573,24.624901,7.2716861C24.624901,8.891480900000001,25.943495,10.2167683,27.569983,10.2167683L27.727278,10.2167683C28.681082,10.2167683,29.447474,10.9630785,29.685087,12.121031L29.698475,12.194658L29.698475,12.221432ZM10.337891,15.146866C10.337891,17.720467,12.422874,19.80545,14.996475,19.80545C17.570076,19.80545,19.65506,17.720467,19.65506,15.146866C19.65506,12.573265,17.570076,10.4882812,14.996475,10.4882812C12.422874,10.4882812,10.337891,12.573265,10.337891,15.146866Z" fill-rule="evenodd" fill="#49B9AD" fill-opacity="1"/></g></svg>