<svg xmlns="http://www.w3.org/2000/svg" xmlns:xlink="http://www.w3.org/1999/xlink" fill="none" version="1.1" width="40.002197265625" height="40" viewBox="0 0 40.002197265625 40"><g><path d="M16.470312,0L1.7113165,0C0.76737279,0.0028673972,0.0028673972,0.76737279,0,1.7113165L0,16.470312C0.0042986656,17.413235,0.76838714,18.176159,1.7113165,18.179018L16.470312,18.179018C17.414255,18.176149,18.178761,17.411644,18.181629,16.467701L18.181629,1.7113165C18.178761,0.76737279,17.414255,0.0028673972,16.470312,0ZM38.288185,0L23.529188,0C22.585125,0.0025821507,21.820454,0.76725411,21.817871,1.7113165L21.817871,16.470312C21.821886,17.413355,22.58614,18.176443,23.529188,18.179018L38.288185,18.179018C39.232132,18.177591,39.997803,17.414251,40.00211,16.470312L40.00211,1.7113165C39.999237,0.76635653,39.233147,0.0014330522,38.288185,0ZM14.545416,14.545904L3.6362305,14.545904L3.6362305,3.6367188L14.545416,3.6367188L14.545416,14.545904ZM25.45459,14.545904L36.363255,14.545904L36.363255,3.6367188L25.45459,3.6367188L25.45459,14.545904ZM16.470312,21.818359L1.7113165,21.818359C0.76725411,21.820942,0.0025821507,22.585613,0,23.529676L0,38.289192C0.0028673972,39.233139,0.76737279,39.997643,1.7113165,40.000511L16.470312,40.000511C17.414255,39.997643,18.178761,39.233139,18.181629,38.289192L18.181629,23.529676C18.179047,22.585613,17.414373,21.820942,16.470312,21.818359ZM14.545416,36.362312L3.6362305,36.362312L3.6362305,25.453125L14.545416,25.453125L14.545416,36.362312Z" fill-rule="evenodd" fill="#1C2023" fill-opacity="1"/></g><g><path d="M32.72651317692871,36.363258361816406L29.09029197692871,36.363258361816406L29.09029197692871,39.99947956181641L32.72651317692871,39.99947956181641L32.72651317692871,36.363258361816406ZM38.28814597692871,39.99947956181641L36.36324117692871,39.99947956181641L36.36324117692871,36.363258361816406L40.00207297692871,36.363258361816406L40.00207297692871,38.288163061816405C39.99919997692871,39.23312306181641,39.23310897692871,39.9980466618164,38.28814597692871,39.99947956181641Z" fill-rule="evenodd" fill="#1C2023" fill-opacity="1"/></g><path d="M38.28816211291504,21.818359375000004L36.363257112915036,21.818359375000004L36.363257112915036,29.090801675L32.72703511291504,29.090801675L32.72703511291504,21.818359375000004L23.529166612915038,21.818359375000004C22.58510422291504,21.8209415257,21.82043226361504,22.585613485,21.81785011291504,23.529675875L21.81785011291504,38.289194375C21.82043226361504,39.233255375,22.58510422291504,39.997928375,23.529166612915038,40.000509375L25.45459361291504,40.000509375L25.45459361291504,29.090801675L29.09081461291504,29.090801675L29.09081461291504,32.727023375L40.00208811291504,32.727023375L40.00208811291504,23.529675875C39.99950811291504,22.585613545,39.234835112915036,21.8209415472,38.29077311291504,21.818359375L38.28816211291504,21.818359375000004Z" fill="#1C2023" fill-opacity="1"/><g><path d="M6.844743728637695,9.092380779736327C6.845001596437696,10.108675479736329,7.527798358637695,10.998104579736328,8.509513828637695,11.26095437973633C9.491229328637695,11.523804179736327,10.527100128637695,11.094540079736328,11.035135728637695,10.214338579736328C11.543171928637696,9.334136979736328,11.396708028637695,8.222451579736328,10.678033328637696,7.503868099736328C9.959358928637695,6.7852846907363285,8.847655028637696,6.638961939736328,7.967517828637695,7.147109359736328C7.2725665586376955,7.5483396097363284,6.8445402475776955,8.289920079736328,6.844743728637695,9.092380779736327ZM30.327384728637696,11.26095437973633C29.345668728637694,10.998104579736328,28.662872728637694,10.108675479736329,28.662614728637696,9.092380779736327C28.662410728637695,8.289920079736328,29.090436728637695,7.5483396097363284,29.785388728637695,7.147109359736328C30.665525728637697,6.638961939736328,31.777229728637696,6.7852846907363285,32.4959047286377,7.503868099736328C33.21457872863769,8.222451579736328,33.361043728637696,9.334136979736328,32.853006728637695,10.214338579736328C32.34497072863769,11.094540079736328,31.309100728637695,11.523804179736327,30.327384728637696,11.26095437973633ZM6.844743728637695,30.908786479736328C6.845001578737695,31.925081479736328,7.527798358637695,32.81451047973633,8.509513828637695,33.07736047973633C9.491229328637695,33.34020947973633,10.527100128637695,32.91094547973633,11.035135728637695,32.03074447973633C11.543171928637696,31.150543479736328,11.396708028637695,30.038858479736327,10.678033328637696,29.320274479736327C9.959358928637695,28.601690479736327,8.847655028637696,28.45536847973633,7.967517828637695,28.963516479736327C7.2725665586376955,29.36474647973633,6.844540261527695,30.10632747973633,6.844743728637695,30.908786479736328Z" fill-rule="evenodd" fill="#1C2023" fill-opacity="1"/></g></svg>