<svg xmlns="http://www.w3.org/2000/svg" xmlns:xlink="http://www.w3.org/1999/xlink" fill="none" version="1.1" width="30" height="30" viewBox="0 0 30 30"><g><path d="M29.999994,10.949894C29.999994,6.0073075,25.970291,2.000014593562,20.999998,2.000014593562C18.792683,1.9960405864,16.660963,2.80382049,15.010589,4.2696021L15,4.2591903L14.990294,4.270308C13.398706,2.8576613699999998,11.300296,2.000014593562,9.0000019,2.000014593562C4.0297098,2.000014593562,0.0000051667898,6.0073075,0.0000051667898,10.949894C-0.0023654103,13.149638,0.81107438,15.272115,2.2830043,16.906833L2.2717102,16.916539L13.409295,27.991829C14.287765,28.865358,15.712059,28.865358,16.590706,27.991829L27.728291,16.916539L27.716995,16.906833C29.137583,15.324245,29.999994,13.237305,29.999994,10.949894ZM19.011715,14.215872C19.219799,14.033356,19.487225,13.932859,19.764011,13.933167L19.764011,13.93246C20.190678,13.931921,20.580982,14.172649,20.772011,14.554166C20.961964,14.934908,20.918337,15.390614,20.659599,15.728401L20.602598,15.797753C20.573303,15.829165,20.546303,15.855989,20.518597,15.881401L16.590717,19.78793C15.712247,20.661457,14.287952,20.661457,13.409307,19.78793L9.396719,15.797753C9.2220135,15.597989,9.1140137,15.337695,9.1140137,15.05199C9.1139908,14.609814,9.3744717,14.209133,9.7786016,14.029696C10.183446,13.849081,10.656506,13.921886,10.988307,14.215872L14.469717,17.678047C14.737659,17.943708,15.160833,17.97011,15.459717,17.739812L15.530306,17.678047L19.011715,14.215872Z" fill-rule="evenodd" fill="#49B9AD" fill-opacity="1"/></g></svg>