<svg xmlns="http://www.w3.org/2000/svg" xmlns:xlink="http://www.w3.org/1999/xlink" fill="none" version="1.1" width="40" height="40" viewBox="0 0 40 40"><defs><mask id="master_svg0_0_9608" style="mask-type:luminance" maskUnits="userSpaceOnUse" x="5" y="2" width="30.905839920043945" height="36.00090789794922"><path d="M5,2L35.90584,2L35.90584,38L5,38L5,2Z" fill-rule="evenodd" fill="#FFFFFF" fill-opacity="1"/></mask></defs><g mask="url(#master_svg0_0_9608)"><g><path d="M35.90584,7.4849029C35.90584,6.7233624,35.271223,6.0887456,34.509684,6.0887456L10.5030346,6.0887456C9.578307200000001,6.0887456,8.7714372,5.9436903,8.200282099999999,5.6445138C7.9464352,5.5175905,7.7832482,5.4450629,7.7651162,5.4450629L8.200282099999999,5.2365458C8.7714372,4.9192374,9.578307200000001,4.7651162,10.5030346,4.7651162L34.509684,4.7651162C35.271223,4.7651162,35.90584,4.1486313,35.90584,3.387091C35.90584,2.62555087,35.271223,2,34.509684,2L10.5030346,2C9.1522074,2,7.910171500000001,2.2810446,6.9673122,2.74340832C5.77060616,3.3508272,5.01813191,4.2846205,5,5.3906672L5,34.54678C5,35.689087,5.77060616,36.641014,6.9673122,37.230301C7.910171500000001,37.710796,9.1522074,38.000908,10.5030346,38.000908L34.509684,38.000908C35.271223,38.000908,35.90584,37.384422,35.90584,36.631947L35.90584,7.4849029ZM7.765136699999999,8.4550781C8.5538747,8.7089248,9.523932,8.872112300000001,10.503055100000001,8.872112300000001L33.131678,8.872112300000001L33.131678,35.226845L10.503055100000001,35.226845C9.5783277,35.226845,8.7714577,35.045525,8.2003026,34.773544C7.9464557,34.619423,7.765136699999999,34.565025,7.765136699999999,34.546898L7.765136699999999,8.4550781Z" fill-rule="evenodd" fill="#1C2023" fill-opacity="1"/></g><path d="M13.549195472998047,31.201757C13.095897732998047,31.201757,12.724193572998047,30.830053,12.724193572998047,30.367689C12.733259527898047,29.107522,13.250018952998047,28.146531,13.975295272998046,27.466583999999997C14.963484572998047,26.514659,16.341509572998046,26.079494,17.148379372998047,26.025098L17.148379372998047,26.016030999999998C17.284368972998045,26.016030999999998,17.38409427299805,25.961636,17.465687772998045,25.889108L17.511017772998045,25.834712C16.903598772998045,25.299821,16.613488172998046,24.610808,16.395905272998046,24.003389C16.278047772998047,23.731411,16.178322272998045,23.486629999999998,16.142058572998046,23.4594326L16.123926672998046,23.4413004C15.815684072998046,23.169322,15.416782172998047,22.661627799999998,15.199199172998046,22.090473199999998C14.981616272998046,21.5193176,14.945352572998047,20.8847013,15.235463172998047,20.3226118C15.063209972998047,19.8330503,14.999748272998048,19.261895199999998,14.999748272998048,18.7088718C14.981616272998046,17.9835954,15.099473672998046,17.1948574,15.335188672998047,16.5330427C15.688760772998046,15.490458,16.250849972998047,14.7561156,16.994258372998047,14.25748807C17.792062272998045,13.74072865,18.734921472998046,13.50501382,19.81377027299805,13.46875C20.203606172998047,13.46875,20.75662997299805,13.46875,21.282454472998047,13.550343595C21.87174227299805,13.65913506,22.461029072998045,13.87671795,22.832733572998045,14.34814763C23.539877572998044,14.33908165,24.192625572998047,14.7470497,24.682187572998046,15.3091388C25.289606572998046,16.0162833,25.715706572998045,17.0588682,25.824498572998046,17.6662869C25.887960572998047,18.119585,25.887960572998047,18.5910144,25.824498572998046,19.0805759C25.788234572998046,19.4613461,25.697574572998047,19.851182,25.588783572998047,20.231952200000002C25.942356572998047,20.839371200000002,25.897025572998047,21.5011864,25.661311572998045,22.081407499999997L25.634113572998046,22.1448689C25.41653057299805,22.716023399999997,25.01762857299805,23.1965199,24.736583572998047,23.450366000000002L24.700320572998045,23.4684982C24.664055572998045,23.531959999999998,24.591528572998048,23.749543,24.473670572998046,24.003389C24.247021572998047,24.601743,23.956911572998045,25.290755,23.385756572998048,25.807513999999998C23.385756572998048,25.834712,23.40388857299805,25.870976,23.431086572998048,25.889108C23.512679572998046,25.979768,23.621471572998047,26.016030999999998,23.739328572998048,26.025098L23.739328572998048,26.016030999999998C24.564330572998045,26.079494,25.942356572998047,26.514659,26.930544572998045,27.466583999999997C27.655820572998046,28.146531,28.163515572998048,29.107522,28.163515572998048,30.367689C28.181646572998048,30.830053,27.800876572998046,31.201757,27.33851257299805,31.201757C26.885214572998045,31.201757,26.513510572998047,30.830053,26.513510572998047,30.376757C26.513510572998047,29.624281,26.214334572998048,29.062192,25.788234572998046,28.66329C25.11735357299805,28.010542,24.174494572998046,27.711365,23.59427357299805,27.675100999999998L23.59427357299805,27.666036C23.077513572998047,27.620706,22.59701827299805,27.412188999999998,22.270644172998047,27.067681999999998L22.270644172998047,27.058616999999998C21.908005672998048,26.723176000000002,21.690422972998046,26.251746,21.690422972998046,25.689657L21.690422972998046,25.444876999999998C21.690422972998046,25.163832,21.835477872998048,24.882787,22.089324972998046,24.710534000000003C22.506359072998045,24.465754,22.742073572998045,23.8674,22.94152457299805,23.4050369C23.113778572998047,22.9517384,23.267898572998046,22.5528364,23.585206572998047,22.2627258L23.621471572998047,22.226462400000003C23.75746057299805,22.090473199999998,23.975043572998047,21.8275604,24.101966572998045,21.546515499999998L24.11103257299805,21.5011864C24.192625572998047,21.3017349,24.219823572998045,21.1204157,24.101966572998045,20.984426499999998C23.975043572998047,20.8575034,23.90251557299805,20.6852498,23.90251557299805,20.476733199999998L23.884384572998044,20.4132714C23.857186572998046,20.3044801,23.884384572998044,20.1684904,23.920647572998046,20.0596991C24.038505572998048,19.651730999999998,24.129164572998047,19.2528291,24.174494572998046,18.8901911C24.228890572998047,18.5366187,24.228890572998047,18.2193103,24.174494572998046,17.902001900000002C24.11103257299805,17.539363899999998,23.829988572998047,16.8684831,23.40388857299805,16.3970535C23.213502572998046,16.1704044,23.014052572998047,15.9981513,22.878063572998045,16.0162833C22.615150472998046,16.0525472,22.352237672998047,16.0162833,22.125588372998045,15.9074919C21.908005672998048,15.825898200000001,21.708555172998047,15.653645000000001,21.581631672998046,15.4632601L21.545367272998046,15.4179302C21.463773772998046,15.2910069,21.246191072998045,15.2275453,20.99234387299805,15.1822155C20.620640272998045,15.1187538,20.167342672998046,15.1278198,19.850034272998048,15.1278198C19.088493872998047,15.1459516,18.417613072998048,15.2910069,17.918985872998046,15.644579199999999C17.465687772998045,15.9437556,17.121181472998046,16.3970535,16.903598772998045,17.0588682C16.722279572998048,17.5574956,16.631620172998048,18.119585,16.631620172998048,18.6907401C16.649751872998046,19.1893673,16.722279572998048,19.6789289,16.903598772998045,20.0596991C17.048654072998048,20.3770075,16.98519227299805,20.739646,16.758543472998046,20.984426499999998C16.649751872998046,21.1204157,16.667883872998047,21.310800999999998,16.749477372998047,21.5011864C16.867334872998047,21.791297,17.084917972998046,22.054208799999998,17.229973272998045,22.226462400000003L17.257171172998046,22.2445946C17.574479572998047,22.516573,17.746732672998046,22.9336071,17.918985872998046,23.4050369C18.109370672998047,23.894598000000002,18.363217372998047,24.474819,18.789317172998047,24.7196C19.034098172998046,24.882787,19.20635127299805,25.145699999999998,19.20635127299805,25.426744L19.20635127299805,25.653394L19.20635127299805,25.707789C19.20635127299805,26.251746,18.988768572998048,26.723176000000002,18.635196172998047,27.067681999999998C18.299755572998045,27.412188999999998,17.810193972998047,27.620706,17.302500772998048,27.675100999999998C16.740411772998048,27.711365,15.788486272998046,28.010542,15.108539572998048,28.66329C14.682439772998046,29.062192,14.383263372998046,29.633347,14.383263372998046,30.376757C14.383263372998046,30.839119,14.020625072998048,31.201757,13.549195472998047,31.201757Z" fill-rule="evenodd" fill="#49B9AD" fill-opacity="1"/><path d="M13.549195289611816,31.20168525L27.338512289611817,31.20168525L26.394287289611817,28.04199225L23.24511718961182,26.51367225L22.481689489611817,25.79345725L23.24511718961182,23.76464845L24.706299289611817,21.06079105L24.706299289611817,17.16748045L22.864257789611816,15.20996094L19.397216789611818,14.55078125L16.649658189611817,15.78784175L16.032714889611817,19.16943355L16.649658189611817,21.84108635L18.457519489611816,25.06640625L17.965331989611816,26.51367225L16.032714889611817,27.28466825L14.306152219611816,28.548340250000003L13.989257689611817,30.392090250000003L13.549195289611816,31.20168525Z" fill-rule="evenodd" fill="#49B9AD" fill-opacity="1"/></g></svg>