<svg xmlns="http://www.w3.org/2000/svg" xmlns:xlink="http://www.w3.org/1999/xlink" fill="none" version="1.1" width="140" height="42" viewBox="0 0 140 42"><defs><linearGradient x1="0.31627655029296875" y1="0.21865233778953552" x2="0.85983877125362" y2="0.24397365978143526" id="master_svg0_0_15702"><stop offset="0%" stop-color="#71D4C9" stop-opacity="1"/><stop offset="100%" stop-color="#48B6AA" stop-opacity="1"/></linearGradient><linearGradient x1="0.263397216796875" y1="0.189727783203125" x2="0.5993652343749999" y2="0.62994384765625" id="master_svg1_0_15704"><stop offset="0%" stop-color="#F6FFFD" stop-opacity="1"/><stop offset="100%" stop-color="#B8F4EE" stop-opacity="1"/></linearGradient><filter id="master_svg2_0_9586" filterUnits="objectBoundingBox" color-interpolation-filters="sRGB" x="0" y="0" width="1" height="1"><feFlood flood-opacity="0" result="BackgroundImageFix"/><feBlend mode="normal" in="SourceGraphic" in2="BackgroundImageFix" result="shape"/><feColorMatrix in="SourceAlpha" type="matrix" result="hardAlpha" values="0 0 0 0 0 0 0 0 0 0 0 0 0 0 0 0 0 0 127 0"/><feOffset dy="0" dx="0"/><feGaussianBlur stdDeviation="0.5"/><feComposite in2="hardAlpha" operator="arithmetic" k2="-1" k3="1"/><feColorMatrix type="matrix" values="0 0 0 0 0.32856321334838867 0 0 0 0 0.586277186870575 0 0 0 0 0.5586649775505066 0 0 0 1 0"/><feBlend mode="normal" in2="shape" result="effect1_innerShadow"/></filter><linearGradient x1="0.3099423348903656" y1="0.2218656986951828" x2="0.7819475531578064" y2="0.8686755895614624" id="master_svg3_0_15706"><stop offset="0%" stop-color="#7EDCD5" stop-opacity="1"/><stop offset="100%" stop-color="#48B7AB" stop-opacity="1"/></linearGradient></defs><rect x="11" y="5" width="129" height="30" rx="15" fill="url(#master_svg0_0_15702)" fill-opacity="1"/><path d="M21,2.9842794e-15L39.186531,10.5L39.186531,31.499998L21,42L2.8134668,31.499998L2.8134661,10.5L21,2.9842794e-15Z" fill="#EAFEFA" fill-opacity="1"/><path d="M20.999999980926514,2.5195312500000027L37.00414998092651,11.75953105L37.00414998092651,30.23953025L20.999999980926514,39.47953025L4.995850780926514,30.23953025L4.995850280926513,11.75953195L20.999999980926514,2.5195312500000027Z" fill="#49B9AD" fill-opacity="1"/><path d="M20.799999,4.000000000000003L35.349226,12.3999996L35.349226,29.199999L20.799999,37.599998L6.2507734,29.199999L6.250773000000001,12.4000006L20.799999,4.000000000000003Z" fill="url(#master_svg1_0_15704)" fill-opacity="1"/><path d="M29.767296,18.0213675L23.978633000000002,12.2327044C22.33298,10.58909851,19.6670198,10.58909851,18.0213675,12.2327044L12.2327044,18.0354176C10.58909851,19.681070300000002,10.58909851,22.34703,12.2327044,23.992682000000002L18.0213675,29.767296C19.6670198,31.410902,22.33298,31.410902,23.978633000000002,29.767296L29.767296,23.978633000000002C31.410902,22.33298,31.410902,19.6670198,29.767296,18.0213675ZM15.3798828,19.623249100000002L19.5949287,19.623249100000002L19.5949287,15.4082031L22.404958999999998,15.4082031L22.404958999999998,19.623249100000002L26.620006,19.623249100000002L26.620006,22.433279L22.404958999999998,22.433279L22.404958999999998,26.648326L19.5949287,26.648326L19.5949287,22.433279L15.3798828,22.433279L15.3798828,19.623249100000002Z" fill-rule="evenodd" fill="url(#master_svg3_0_15706)" fill-opacity="1" filter="url(#master_svg2_0_9586)"/><g><path d="M52.7565103,12.1380215L52.7565103,16.311197999999997L50.0742188,16.311197999999997L50.0742188,17.75L52.7565103,17.75L52.7565103,22.079428C51.6367188,22.398438,50.595052,22.710938,49.75520831,22.919271L50.1783854,24.45573L52.7565103,23.648438L52.7565103,29.045572C52.7565103,29.338541,52.658854,29.416666,52.3984375,29.416666C52.157552,29.442709,51.3372395,29.442709,50.4192708,29.416666C50.6341145,29.839844,50.796875,30.477865,50.875,30.861979C52.2161458,30.861979,53.0169268,30.822916,53.518229,30.582031C54.0390625,30.341146,54.2148438,29.898438,54.2148438,29.045572L54.2148438,23.166668L56.65625,22.378906L56.434895499999996,20.998697999999997L54.2148438,21.65625L54.2148438,17.75L56.5390625,17.75L56.5390625,16.311197999999997L54.2148438,16.311197999999997L54.2148438,12.1445312L52.7565103,12.1380215ZM60.816406,12.723959C61.539062,13.635417,62.320312,14.8268232,62.678385,15.666667L57.9388018,15.666667L57.9388018,21.076822999999997C57.9388018,23.811199,57.6783848,27.404947,55.458332999999996,29.917969C55.796875,30.139322,56.4153643,30.679688,56.65625,30.979166C58.739582999999996,28.674479,59.299479,25.223959,59.416666,22.333334L65.99869699999999,22.333334L65.99869699999999,23.648438L67.496094,23.648438L67.496094,15.666667L62.717447,15.666667L64.078125,15.0546875C63.720052,14.2539062,62.938802,13.0820312,62.157552,12.177084L60.816406,12.723959ZM65.99869699999999,20.914062L59.436197,20.914062L59.436197,17.027344L65.99869699999999,17.027344L65.99869699999999,20.914062ZM78.518229,18.166667L81.578125,18.166667L81.578125,21.037761L78.518229,21.037761L78.518229,18.166667ZM82.880207,18.166667L85.940102,18.166667L85.940102,21.037761L82.880207,21.037761L82.880207,18.166667ZM78.518229,14.416667L81.578125,14.416667L81.578125,16.949219L78.518229,16.949219L78.518229,14.416667ZM82.880207,14.416667L85.940102,14.416667L85.940102,16.949219L82.880207,16.949219L82.880207,14.416667ZM75.35416599999999,28.876303L75.35416599999999,30.25L88.335938,30.25L88.335938,28.876303L82.997395,28.876303L82.997395,26.083334L87.658852,26.083334L87.658852,24.729168L82.997395,24.729168L82.997395,22.333334L87.378906,22.333334L87.378906,13.1015625L77.13802,13.1015625L77.13802,22.333334L81.460938,22.333334L81.460938,24.729168L76.89713499999999,24.729168L76.89713499999999,26.083334L81.460938,26.083334L81.460938,28.876303L75.35416599999999,28.876303ZM69.69661500000001,27.300781L70.074219,28.830729C71.83854099999999,28.244791,74.136719,27.457031,76.298176,26.734375L76.03775999999999,25.269531L73.837238,26.005209L73.837238,20.822917L75.855469,20.822917L75.855469,19.416667L73.837238,19.416667L73.837238,14.989584L76.15494699999999,14.989584L76.15494699999999,13.583334L69.917969,13.583334L69.917969,14.989584L72.398438,14.989584L72.398438,19.416667L70.11979099999999,19.416667L70.11979099999999,20.822917L72.398438,20.822917L72.398438,26.376303C71.37630300000001,26.792969,70.45833400000001,27.072916,69.69661500000001,27.300781ZM107.619789,13.166667L90.875,13.166667L90.875,30.009115L108.07552,30.009115L108.07552,28.583334L92.378906,28.583334L92.378906,14.6119795L107.619789,14.6119795L107.619789,13.166667ZM96.578125,15.0872402C95.959637,16.949219,94.820312,18.544271000000002,93.498699,19.533853999999998C93.85677,19.735678,94.475262,20.08724,94.755207,20.328125C95.315105,19.852865,95.855469,19.260417,96.376301,18.583334L99.520832,18.583334L99.520832,21.076822999999997L99.520832,21.415365L93.498699,21.415365L93.498699,22.75L99.319008,22.75C98.876301,24.338543,97.535156,25.979166,93.576824,27.144531C93.895832,27.424479,94.319012,27.945312,94.494793,28.283854C97.938801,27.164062,99.598957,25.679688,100.380207,24.117188C102.177082,25.438803,104.260414,27.222656,105.276039,28.36849L106.298176,27.346354C105.100258,26.083334,102.697914,24.175781,100.816406,22.873699L100.855469,22.75L107.196613,22.75L107.196613,21.415365L101.018227,21.415365L101.018227,21.076822999999997L101.018227,18.583334L106.278645,18.583334L106.278645,17.287761L97.235676,17.287761C97.515625,16.721353999999998,97.776039,16.109375,97.997395,15.4973965L96.578125,15.0872402ZM114.097656,12.1315117L114.097656,20.373697999999997C114.097656,24.006512,113.759117,27.346354,110.998699,29.859375C111.337238,30.080729,111.858074,30.56901,112.118488,30.875C115.100258,28.108072,115.477867,24.410156,115.477867,20.373697999999997L115.477867,12.1315117L114.097656,12.1315117ZM110.894531,14.4296875L110.894531,24.410156L112.235676,24.410156L112.235676,14.4296875L110.894531,14.4296875ZM117.378906,17.229167L117.378906,27.964844L118.759117,27.964844L118.759117,18.583334L121.460938,18.583334L121.460938,30.855469L122.880211,30.855469L122.880211,18.583334L125.796875,18.583334L125.796875,26.220053C125.796875,26.441406,125.71875,26.5,125.497391,26.5C125.29557,26.526041,124.638023,26.526041,123.856773,26.5C124.039062,26.864584,124.260414,27.44401,124.299477,27.821615C125.399734,27.821615,126.115883,27.802084,126.578125,27.561197C127.059891,27.346354,127.177078,26.942709,127.177078,26.239584L127.177078,17.229167L122.880211,17.229167L122.880211,14.546875L127.958328,14.546875L127.958328,13.166667L116.65625,13.166667L116.65625,14.546875L121.460938,14.546875L121.460938,17.229167L117.378906,17.229167Z" fill="#FFFFFF" fill-opacity="1"/></g></svg>