<svg xmlns="http://www.w3.org/2000/svg" xmlns:xlink="http://www.w3.org/1999/xlink" fill="none" version="1.1" width="30" height="30" viewBox="0 0 30 30"><path d="M14.03174,15.767365C16.441828,14.477944,17.935053,11.9554081,17.906162,9.2222242C17.948606,5.318162,14.850196,2.10251384,10.947249,2C7.0369062,2.092410885,3.9272621,5.311018499999999,3.969527,9.2222242C3.9482036,11.9785137,5.4739046,14.514084,7.9191809,15.786173C3.3508003,16.325693,-0.069258384,20.233171,0.0010650522,24.832762L0.0010650522,25.340574C0.0010650522,26.694742,0.88503522,27.522287,2.6905913,27.917253C4.6822224,28.213099,6.6973462,28.320152,8.7091122,28.236988L13.674391,28.236988C18.357552,28.236988,22.382437,28.236988,22.382437,25.340574L22.382437,24.832762C22.462795,20.067175,18.787888,16.077749,14.03174,15.767365L14.03174,15.767365Z" fill="#49B9AD" fill-opacity="1"/><path d="M28.47618936621094,3.8807876110076904L17.736892066210938,3.8807876110076904C18.77152606621094,4.905837611007691,19.478486966210937,6.215024511007691,19.768142666210938,7.64236281100769L26.068781366210935,7.64236281100769C26.516710366210937,7.7323954110076905,26.83896636621094,8.12586901100769,26.83896636621094,8.58275671100769C26.83896636621094,9.039644011007692,26.516710366210937,9.433117611007692,26.068781366210935,9.523150711007691L19.86218216621094,9.523150711007691C19.80619166621094,10.47427491100769,19.570042366210938,11.40610721100769,19.16629076621094,12.269099911007691L26.068781366210935,12.269099911007691C26.516710366210937,12.35913251100769,26.83896636621094,12.752607111007691,26.83896636621094,13.20949431100769C26.83896636621094,13.66638161100769,26.516710366210937,14.05985561100769,26.068781366210935,14.14988761100769L17.90616296621094,14.14988761100769C17.362804966210938,14.72226461100769,16.726997436210937,15.199120611007691,16.025375366210938,15.56047861100769C17.491878066210937,15.635709611007691,18.91261436621094,16.09631361100769,20.144300466210936,16.895837611007693L26.08758936621094,16.895837611007693C26.53551736621094,16.98587061100769,26.857773366210935,17.37934461100769,26.857773366210935,17.83623161100769C26.857773366210935,18.29311961100769,26.53551736621094,18.68659261100769,26.08758936621094,18.776625611007688L22.326014066210938,18.776625611007688C22.99509766621094,19.59581761100769,23.516923866210938,20.52492261100769,23.868259866210938,21.52257561100769L26.12520536621094,21.52257561100769C26.57313336621094,21.61260861100769,26.895389366210935,22.00608161100769,26.895389366210935,22.46296961100769C26.895389366210935,22.91985561100769,26.57313336621094,23.31333061100769,26.12520536621094,23.40336261100769L24.244417166210937,23.40336261100769C24.307015466210938,23.79554961100769,24.344706566210938,24.19130761100769,24.357264566210937,24.58825961100769L24.357264566210937,25.09607161100769C24.376828166210938,26.01942561100769,23.82251736621094,26.85838161100769,22.96548176621094,27.20255361100769L28.45738136621094,27.20255361100769C29.322544366210938,27.20255361100769,29.999627366210937,25.88600261100769,29.999627366210937,24.26852461100769L29.999627366210937,6.908855711007691C30.018435366210937,5.29137841100769,29.322544366210938,3.8807876110076904,28.47618936621094,3.8807876110076904L28.47618936621094,3.8807876110076904Z" fill="#49B9AD" fill-opacity="1"/></svg>