<svg xmlns="http://www.w3.org/2000/svg" xmlns:xlink="http://www.w3.org/1999/xlink" fill="none" version="1.1" width="40" height="40" viewBox="0 0 40 40"><defs><mask id="master_svg0_0_6024" style="mask-type:luminance" maskUnits="userSpaceOnUse" x="10" y="6.3333330154418945" width="39.999996185302734" height="33.33333206176758"><g><path d="M14.999959,19.666686015441897Q15.2045307,19.666686015441897,15.408856400000001,19.656648015441895Q15.6131816,19.646609015441896,15.8167686,19.626558015441894Q16.0203552,19.606506015441894,16.2227125,19.576489015441894Q16.4250703,19.546472015441893,16.6257114,19.506561015441896Q16.8263521,19.466651015441894,17.0247936,19.416945015441897Q17.2232342,19.367238015441895,17.4189978,19.307855015441895Q17.6147604,19.248469015441895,17.807373,19.179551015441895Q17.9999866,19.110633015441895,18.188986800000002,19.032347015441893Q18.3779869,18.954061015441894,18.5629177,18.866594015441894Q18.7478485,18.779129015441896,18.9282646,18.682695015441894Q19.1086807,18.586260015441894,19.2841473,18.481089015441896Q19.4596138,18.375917015441892,19.6297092,18.262263015441896Q19.7998047,18.148610015441896,19.964118,18.026748015441896Q20.128432,17.904883015441897,20.286569,17.775105015441895Q20.444704,17.645327015441893,20.596282000000002,17.507945015441894Q20.74786,17.370563015441896,20.892514,17.225908015441895Q21.037169,17.081254015441893,21.174551,16.929676015441892Q21.311933,16.778099015441896,21.441710999999998,16.619963015441897Q21.57149,16.461826015441893,21.693354,16.297513015441893Q21.815217,16.133198715441893,21.928871,15.963103315441895Q22.042524999999998,15.793007815441895,22.147696,15.617541315441894Q22.252867000000002,15.442074815441895,22.349302,15.261658715441895Q22.445736,15.081242515441895,22.533201,14.896311715441895Q22.620666999999997,14.711380915441895,22.698954,14.522380815441895Q22.77724,14.333380715441894,22.846158000000003,14.140768015441894Q22.915077,13.948154415441895,22.974463,13.752391815441895Q23.033846,13.556628715441896,23.083551999999997,13.358187715441893Q23.133259000000002,13.159746215441896,23.173168,12.959105515441895Q23.213078,12.758464315441895,23.243095,12.556107015441896Q23.273113000000002,12.353749315441895,23.293165000000002,12.150162715441894Q23.313216,11.946576115441895,23.323255,11.742250415441895Q23.333292,11.537924815441894,23.333292,11.333353015441894Q23.333292,11.128781315441895,23.323254,10.924456115441895Q23.313216,10.720130915441896,23.293165000000002,10.516543815441896Q23.273113000000002,10.312957015441894,23.243095,10.110599315441895Q23.213078,9.908241315441895,23.173168,9.707600315441894Q23.133259000000002,9.506959415441894,23.083551999999997,9.308518415441895Q23.033846,9.110077415441895,22.974462000000003,8.914314315441894Q22.915077,8.718551115441894,22.846159,8.525937515441894Q22.77724,8.333324215441895,22.698954,8.144324415441895Q22.620666999999997,7.955324615441895,22.533201,7.770394115441895Q22.445736,7.585463315441895,22.349302,7.405046915441894Q22.252867000000002,7.2246307154418945,22.147696,7.049163515441895Q22.042524999999998,6.873696445441895,21.928871,6.703601185441895Q21.815217,6.5335059354418945,21.693354,6.369192309441894Q21.571491,6.204878675441894,21.441712000000003,6.046742495441895Q21.311934,5.888606305441894,21.174551,5.7370285954418945Q21.037169,5.585450885441895,20.892514,5.440796795441894Q20.74786,5.296142715441895,20.596282000000002,5.158760715441895Q20.444704,5.021378615441894,20.286569,4.891599615441894Q20.128432,4.761820715441894,19.964119,4.639957415441895Q19.7998047,4.5180940154418945,19.6297092,4.404440115441894Q19.4596138,4.290786015441895,19.2841473,4.185615015441895Q19.1086807,4.080444315441895,18.9282646,3.9840097154418945Q18.7478485,3.8875751154418947,18.5629177,3.8001094154418946Q18.3779869,3.7126436154418947,18.188986800000002,3.6343574154418947Q17.9999866,3.5560713154418946,17.8073735,3.4871530154418946Q17.6147604,3.4182348154418944,17.4189973,3.3588505154418944Q17.2232342,3.2994666154418946,17.0247931,3.2497597154418947Q16.8263521,3.2000530154418945,16.6257114,3.1601429154418947Q16.4250703,3.1202330154418947,16.222713,3.0902159154418944Q16.0203552,3.0601988154418946,15.8167686,3.0401471154418944Q15.6131816,3.0200958154418944,15.408855899999999,3.0100579154418945Q15.2045307,3.0000200154418946,14.999959,3.0000200154418946Q14.7953873,3.0000200154418946,14.5910616,3.0100579154418945Q14.3867359,3.0200958154418944,14.1831493,3.0401473154418945Q13.9795625,3.0601988154418946,13.777205,3.0902159154418944Q13.5748472,3.1202330154418947,13.3742063,3.1601429154418947Q13.173565400000001,3.2000530154418945,12.9751244,3.2497597154418947Q12.7766831,3.2994666154418946,12.580919999999999,3.3588505154418944Q12.3851569,3.4182348154418944,12.1925435,3.4871530154418946Q11.9999301,3.5560713154418946,11.8109305,3.6343574154418947Q11.6219307,3.7126436154418947,11.437,3.8001094154418946Q11.2520692,3.8875751154418947,11.071653,3.9840095154418944Q10.89123672,4.080444115441894,10.71576965,4.185615015441895Q10.540302520000001,4.290786015441895,10.37020725,4.404440015441894Q10.20011199,4.5180940154418945,10.035798334,4.639957415441895Q9.8714847,4.761820515441895,9.71334851,4.891599515441895Q9.55521232,5.021378515441895,9.40363461,5.158760715441895Q9.25205684,5.296142715441895,9.10740274,5.440796855441895Q8.9627486,5.585450945441894,8.8253665,5.737028655441895Q8.6879845,5.888606365441895,8.5582054,6.046742555441894Q8.4284265,6.204878735441895,8.3065631,6.369192361441894Q8.1846999,6.533505995441894,8.0710459,6.703601245441894Q7.9573920000000005,6.873696505441894,7.852221,7.049163635441895Q7.7470498,7.224630775441895,7.6506152,7.405047015441895Q7.5541809,7.585463315441895,7.466715300000001,7.7703940154418945Q7.3792496,7.955324615441895,7.3009634000000005,8.144324415441895Q7.2226772,8.333324215441895,7.153759,8.525937515441894Q7.0848408,8.718551115441894,7.0254563999999995,8.914314315441894Q6.9660726,9.110077415441895,6.9163656,9.308518415441895Q6.8666587,9.506959415441894,6.8267488,9.707600315441894Q6.7868390000000005,9.908241315441895,6.7568221,10.110599315441895Q6.726804700000001,10.312957015441894,6.7067533,10.516543815441896Q6.6867018,10.720130915441896,6.676663899999999,10.924456115441895Q6.666626,11.128781315441895,6.666626,11.333353015441894Q6.666626,11.537924815441894,6.676663899999999,11.742250415441895Q6.6867018,11.946576115441895,6.7067533,12.150163215441895Q6.726804700000001,12.353749315441895,6.7568219,12.556106615441895Q6.7868390000000005,12.758464315441895,6.8267488,12.959105515441895Q6.8666587,13.159746215441896,6.9163656,13.358187715441893Q6.9660726,13.556628715441896,7.0254563999999995,13.752391815441895Q7.0848408,13.948154415441895,7.153759,14.140767115441895Q7.2226772,14.333380715441894,7.3009634000000005,14.522380815441895Q7.3792496,14.711380915441895,7.466715300000001,14.896311715441895Q7.5541811,15.081242515441895,7.6506155,15.261658715441895Q7.74705,15.442074815441895,7.852221,15.617541315441894Q7.9573920000000005,15.793007815441895,8.0710459,15.963103315441895Q8.1846999,16.133198715441893,8.3065631,16.297513015441893Q8.4284265,16.461827015441894,8.5582054,16.619964015441894Q8.6879845,16.778100015441893,8.8253665,16.929677015441897Q8.9627486,17.081254015441893,9.1074028,17.225908015441895Q9.25205696,17.370563015441896,9.40363467,17.507945015441894Q9.55521238,17.645327015441893,9.71334854,17.775105015441895Q9.87148473,17.904883015441897,10.035798356,18.026747015441895Q10.200112,18.148610015441896,10.37020725,18.262264015441893Q10.540302520000001,18.375918015441897,10.71576965,18.481090015441893Q10.89123672,18.586261015441895,11.071653,18.682695015441894Q11.2520692,18.779130015441893,11.437,18.866595015441895Q11.6219307,18.954061015441894,11.8109305,19.032348015441894Q11.9999301,19.110634015441896,12.1925435,19.179551015441895Q12.3851571,19.248470015441896,12.5809202,19.307855015441895Q12.7766833,19.367238015441895,12.9751244,19.416945015441897Q13.173565400000001,19.466652015441895,13.3742065,19.506562015441894Q13.5748475,19.546472015441893,13.777205,19.576488015441896Q13.9795628,19.606506015441894,14.183149799999999,19.626558015441894Q14.3867359,19.646609015441896,14.5910616,19.656648015441895Q14.7953873,19.666686015441897,14.999959,19.666686015441897ZM30.013107,11.341669115441896C30.013107,9.057907615441895,28.465696,7.064381125441894,26.253304,6.497918845441895C25.361593,6.2696049214418945,24.823805,5.361646655441895,25.052118,4.469936815441894C25.280431999999998,3.5782270154418945,26.188391,3.0404384154418946,27.080101,3.2687521154418944C30.767422,4.212855815441895,33.346439000000004,7.535400415441894,33.346439000000004,11.341669115441896C33.346439000000004,15.147936815441895,30.767422,18.470482015441895,27.080101,19.414586015441895C26.188391,19.642899015441895,25.280431999999998,19.105111015441892,25.052118,18.213401015441896C24.823805,17.321691015441893,25.361593,16.413733015441892,26.253304,16.185419115441896C28.465696,15.618956615441894,30.013107,13.625430115441894,30.013107,11.341669115441896ZM15,16.333333015441895Q15.122743100000001,16.333333015441895,15.2453384,16.327310515441894Q15.3679338,16.321288115441895,15.4900861,16.309257515441892Q15.6122379,16.297225915441892,15.7336521,16.279214815441897Q15.8550663,16.261204715441895,15.9754515,16.237258915441895Q16.095835700000002,16.213313115441892,16.2149005,16.183487915441894Q16.3339653,16.153664615441894,16.4514232,16.118034315441896Q16.568881,16.082404115441896,16.6844492,16.041052815441894Q16.8000164,15.999701515441895,16.9134164,15.952730215441894Q17.0268164,15.905758815441894,17.1377745,15.853279115441895Q17.248733,15.800799415441894,17.356983200000002,15.742939015441895Q17.4652328,15.685078615441894,17.5705128,15.621974915441895Q17.6757927,15.558872215441895,17.7778502,15.490679715441894Q17.8799076,15.422487215441894,17.9784956,15.349370015441895Q18.0770836,15.276251815441894,18.1719656,15.198385215441894Q18.2668476,15.120517715441894,18.3577938,15.038087815441894Q18.448741,14.955658915441894,18.5355339,14.868866915441895Q18.6223259,14.782074015441895,18.7047558,14.691127815441895Q18.787185700000002,14.600180615441895,18.8650532,14.505299615441894Q18.942920700000002,14.410417515441894,19.0160379,14.311829115441896Q19.0891552,14.213240615441894,19.157347700000003,14.111183215441894Q19.225540199999998,14.009125715441893,19.2886429,13.903845815441894Q19.3517456,13.798565815441894,19.409606,13.690316215441895Q19.4674664,13.582066015441894,19.5199461,13.471107915441895Q19.572425799999998,13.360149415441896,19.6193972,13.246749915441894Q19.6663685,13.133349915441894,19.7077198,13.017781715441895Q19.749071100000002,12.902214015441896,19.784701300000002,12.784756215441895Q19.8203316,12.667298315441894,19.8501568,12.548233515441893Q19.879980099999997,12.429168715441895,19.9039268,12.308784515441895Q19.9278727,12.188399315441895,19.9458828,12.066985115441895Q19.963893900000002,11.945570915441895,19.975924499999998,11.823419115441894Q19.9879551,11.701266815441894,19.9939785,11.578671415441894Q20,11.456076115441896,20,11.333333015441895Q20,11.210589915441894,19.9939785,11.087994615441895Q19.9879551,10.965399215441895,19.975924499999998,10.843247415441894Q19.963892899999998,10.721095115441894,19.945881800000002,10.599680415441895Q19.9278717,10.478265715441895,19.9039259,10.357881115441895Q19.879980099999997,10.237496415441894,19.8501549,10.118431615441894Q19.8203316,9.999367215441895,19.784701300000002,9.881909615441895Q19.749071100000002,9.764451515441895,19.7077198,9.648883615441894Q19.6663685,9.533315415441894,19.6193972,9.419915715441896Q19.572425799999998,9.306515715441895,19.5199461,9.195557615441894Q19.4674664,9.084599015441896,19.409606,8.976349315441894Q19.3517456,8.868099715441895,19.288641900000002,8.762819315441895Q19.2255392,8.657538915441894,19.157346699999998,8.555481715441895Q19.0891542,8.453424415441894,19.016037,8.354836215441894Q18.9429188,8.256248215441895,18.8650522,8.161366415441895Q18.787184699999997,8.066484715441895,18.7047548,7.975538015441894Q18.6223259,7.884591415441895,18.5355339,7.797799015441894Q18.448741,7.711006515441895,18.3577948,7.6285772154418945Q18.2668476,7.5461480154418945,18.171966599999998,7.468280715441894Q18.077084499999998,7.3904133154418945,17.9784961,7.317295195441894Q17.8799076,7.244177225441895,17.7778502,7.175984795441894Q17.6757927,7.107792375441894,17.5705128,7.044689775441895Q17.4652328,6.981587295441894,17.356983200000002,6.923726615441894Q17.248733,6.865865945441895,17.1377749,6.813386465441894Q17.0268164,6.760907055441894,16.9134169,6.713935285441894Q16.8000169,6.6669635154418945,16.6844487,6.625612615441894Q16.568881,6.584261745441895,16.4514232,6.548631315441894Q16.3339653,6.513000875441895,16.2149005,6.483176735441894Q16.095835700000002,6.453352585441895,15.9754515,6.429406598441894Q15.8550663,6.405460611441894,15.7336521,6.387450456441894Q15.6122379,6.369440306441895,15.4900861,6.3574093804418945Q15.3679338,6.345378452441895,15.2453384,6.339355733741894Q15.122743100000001,6.3333330154418945,15,6.3333330154418945Q14.877256899999999,6.3333330154418945,14.7546616,6.339355733741894Q14.6320662,6.345378452441895,14.5099144,6.3574093804418945Q14.3877621,6.369440306441895,14.2663474,6.387450456441894Q14.1449327,6.405460611441894,14.0245481,6.429406598441894Q13.9041634,6.453352585441895,13.7850986,6.483176725441894Q13.6660342,6.513000875441895,13.5485766,6.548631315441894Q13.4311185,6.584261745441895,13.3155506,6.625612645441895Q13.1999824,6.6669635154418945,13.086582700000001,6.713935285441894Q12.9731827,6.760907055441894,12.8622246,6.813386465441894Q12.751266000000001,6.865865945441895,12.6430163,6.923726615441894Q12.5347667,6.981587295441894,12.4294863,7.044689895441895Q12.324205899999999,7.107792375441894,12.2221487,7.175984795441894Q12.1200914,7.244177225441895,12.0215032,7.317295195441894Q11.9229152,7.3904133154418945,11.8280334,7.468280715441894Q11.7331517,7.5461480154418945,11.642205,7.6285772154418945Q11.5512584,7.711006515441895,11.464466,7.797799015441894Q11.3776735,7.884591415441895,11.295244199999999,7.975538015441894Q11.212814999999999,8.066484815441894,11.1349477,8.161366615441894Q11.057080299999999,8.256248215441895,10.98396218,8.354836415441895Q10.91084421,8.453424415441894,10.84265178,8.555481715441895Q10.77445936,8.657538915441894,10.71135676,8.762819315441895Q10.64825428,8.868099715441895,10.5903936,8.976349315441894Q10.53253293,9.084599015441896,10.48005345,9.195557115441895Q10.42757404,9.306515715441895,10.38060227,9.419915415441896Q10.3336305,9.533315215441895,10.2922796,9.648883315441894Q10.25092873,9.764451515441895,10.2152983,9.881909615441895Q10.17966786,9.999367515441895,10.14984372,10.118432015441895Q10.12001957,10.237496815441894,10.096073583,10.357881515441894Q10.072127596,10.478265715441895,10.054117441,10.599680415441895Q10.036107291,10.721095115441894,10.024076365,10.843247415441894Q10.012045437,10.965399215441895,10.0060227183,11.087994615441895Q10,11.210589915441894,10,11.333333015441895Q10,11.456076115441896,10.0060227183,11.578671415441894Q10.012045437,11.701266815441894,10.024076365,11.823419115441894Q10.036107291,11.945570915441895,10.054117441,12.066985115441895Q10.072127596,12.188399315441895,10.096073583,12.308784515441895Q10.12001957,12.429168715441895,10.14984371,12.548233515441893Q10.17966786,12.667298315441894,10.2152983,12.784756215441895Q10.25092873,12.902214015441896,10.29227963,13.017782215441894Q10.3336305,13.133349415441895,10.38060227,13.246749415441894Q10.42757404,13.360149415441896,10.48005345,13.471107515441894Q10.53253293,13.582066015441894,10.5903936,13.690316215441895Q10.64825428,13.798565815441894,10.71135688,13.903845815441894Q10.77445936,14.009125715441893,10.84265178,14.111183215441894Q10.91084421,14.213240615441894,10.98396218,14.311828615441893Q11.057080299999999,14.410416615441894,11.1349477,14.505298615441895Q11.212814999999999,14.600180615441895,11.295244199999999,14.691126815441894Q11.3776735,14.782074015441895,11.464466,14.868866915441895Q11.5512584,14.955658915441894,11.642205,15.038088815441894Q11.7331518,15.120518715441895,11.8280336,15.198386215441895Q11.9229152,15.276253715441895,12.0215034,15.349370915441895Q12.1200914,15.422488215441895,12.2221487,15.490680715441895Q12.324205899999999,15.558873215441894,12.4294863,15.621975915441894Q12.5347667,15.685078615441894,12.6430163,15.742939015441895Q12.751266000000001,15.800799415441894,12.8622241,15.853279115441895Q12.9731827,15.905758815441894,13.086582400000001,15.952730215441894Q13.1999822,15.999701515441895,13.3155503,16.041052815441894Q13.4311185,16.082404115441896,13.5485766,16.118034315441896Q13.6660345,16.153664615441894,13.785099,16.183489815441895Q13.9041638,16.213313115441892,14.0245485,16.237259815441895Q14.1449327,16.261205715441896,14.2663474,16.279215815441894Q14.3877621,16.297226915441897,14.5099144,16.309257515441892Q14.6320662,16.321288115441895,14.7546616,16.327310515441894Q14.877256899999999,16.333333015441895,15,16.333333015441895ZM30,31.333352015441896L30,34.66668801544189C30,35.587163015441895,29.253807,36.333352015441896,28.333334,36.333352015441896C27.412859,36.333352015441896,26.666666,35.587163015441895,26.666666,34.66668801544189L26.666666,31.333352015441896C26.666666,28.571929015441896,24.428091000000002,26.333354015441895,21.666666,26.333354015441895L8.333333,26.333354015441895C5.5719094,26.333354015441895,3.3333329999999997,28.571929015441896,3.3333329999999997,31.333352015441896L3.3333329999999997,34.66668801544189C3.3333329999999997,35.587163015441895,2.587141,36.333352015441896,1.6666670000000003,36.333352015441896C0.7461920000000006,36.333352015441896,0,35.587163015441895,0,34.66668801544189L0,31.333352015441896C0,26.730981015441895,3.7309604,23.000020015441894,8.333333,23.000020015441894L21.666666,23.000020015441894C26.269039,23.000020015441894,30,26.730981015441895,30,31.333352015441896ZM39.999995999999996,31.333337015441895L39.999995999999996,34.66667101544189C39.999995999999996,35.5871480154419,39.253803000000005,36.3333370154419,38.333328,36.3333370154419C37.412857,36.3333370154419,36.666664,35.5871480154419,36.666664,34.66667101544189L36.666664,31.334580015441894C36.664963,29.055978015441895,35.122913,27.066731015441896,32.916664,26.497081015441893C32.025417000000004,26.266963015441895,31.489468,25.357917015441895,31.719587,24.466672015441894C31.949705,23.575425015441894,32.858749,23.039475015441894,33.749995999999996,23.269595015441894C37.427078,24.219012015441894,39.997162,27.534423015441895,39.999995999999996,31.333337015441895Z" fill-rule="evenodd" fill="#FFFFFF" fill-opacity="1"/></g></mask></defs><g><path d="M14.999959,19.666686015441897Q15.2045307,19.666686015441897,15.408856400000001,19.656648015441895Q15.6131816,19.646609015441896,15.8167686,19.626558015441894Q16.0203552,19.606506015441894,16.2227125,19.576489015441894Q16.4250703,19.546472015441893,16.6257114,19.506561015441896Q16.8263521,19.466651015441894,17.0247936,19.416945015441897Q17.2232342,19.367238015441895,17.4189978,19.307855015441895Q17.6147604,19.248469015441895,17.807373,19.179551015441895Q17.9999866,19.110633015441895,18.188986800000002,19.032347015441893Q18.3779869,18.954061015441894,18.5629177,18.866594015441894Q18.7478485,18.779129015441896,18.9282646,18.682695015441894Q19.1086807,18.586260015441894,19.2841473,18.481089015441896Q19.4596138,18.375917015441892,19.6297092,18.262263015441896Q19.7998047,18.148610015441896,19.964118,18.026748015441896Q20.128432,17.904883015441897,20.286569,17.775105015441895Q20.444704,17.645327015441893,20.596282000000002,17.507945015441894Q20.74786,17.370563015441896,20.892514,17.225908015441895Q21.037169,17.081254015441893,21.174551,16.929676015441892Q21.311933,16.778099015441896,21.441710999999998,16.619963015441897Q21.57149,16.461826015441893,21.693354,16.297513015441893Q21.815217,16.133198715441893,21.928871,15.963103315441895Q22.042524999999998,15.793007815441895,22.147696,15.617541315441894Q22.252867000000002,15.442074815441895,22.349302,15.261658715441895Q22.445736,15.081242515441895,22.533201,14.896311715441895Q22.620666999999997,14.711380915441895,22.698954,14.522380815441895Q22.77724,14.333380715441894,22.846158000000003,14.140768015441894Q22.915077,13.948154415441895,22.974463,13.752391815441895Q23.033846,13.556628715441896,23.083551999999997,13.358187715441893Q23.133259000000002,13.159746215441896,23.173168,12.959105515441895Q23.213078,12.758464315441895,23.243095,12.556107015441896Q23.273113000000002,12.353749315441895,23.293165000000002,12.150162715441894Q23.313216,11.946576115441895,23.323255,11.742250415441895Q23.333292,11.537924815441894,23.333292,11.333353015441894Q23.333292,11.128781315441895,23.323254,10.924456115441895Q23.313216,10.720130915441896,23.293165000000002,10.516543815441896Q23.273113000000002,10.312957015441894,23.243095,10.110599315441895Q23.213078,9.908241315441895,23.173168,9.707600315441894Q23.133259000000002,9.506959415441894,23.083551999999997,9.308518415441895Q23.033846,9.110077415441895,22.974462000000003,8.914314315441894Q22.915077,8.718551115441894,22.846159,8.525937515441894Q22.77724,8.333324215441895,22.698954,8.144324415441895Q22.620666999999997,7.955324615441895,22.533201,7.770394115441895Q22.445736,7.585463315441895,22.349302,7.405046915441894Q22.252867000000002,7.2246307154418945,22.147696,7.049163515441895Q22.042524999999998,6.873696445441895,21.928871,6.703601185441895Q21.815217,6.5335059354418945,21.693354,6.369192309441894Q21.571491,6.204878675441894,21.441712000000003,6.046742495441895Q21.311934,5.888606305441894,21.174551,5.7370285954418945Q21.037169,5.585450885441895,20.892514,5.440796795441894Q20.74786,5.296142715441895,20.596282000000002,5.158760715441895Q20.444704,5.021378615441894,20.286569,4.891599615441894Q20.128432,4.761820715441894,19.964119,4.639957415441895Q19.7998047,4.5180940154418945,19.6297092,4.404440115441894Q19.4596138,4.290786015441895,19.2841473,4.185615015441895Q19.1086807,4.080444315441895,18.9282646,3.9840097154418945Q18.7478485,3.8875751154418947,18.5629177,3.8001094154418946Q18.3779869,3.7126436154418947,18.188986800000002,3.6343574154418947Q17.9999866,3.5560713154418946,17.8073735,3.4871530154418946Q17.6147604,3.4182348154418944,17.4189973,3.3588505154418944Q17.2232342,3.2994666154418946,17.0247931,3.2497597154418947Q16.8263521,3.2000530154418945,16.6257114,3.1601429154418947Q16.4250703,3.1202330154418947,16.222713,3.0902159154418944Q16.0203552,3.0601988154418946,15.8167686,3.0401471154418944Q15.6131816,3.0200958154418944,15.408855899999999,3.0100579154418945Q15.2045307,3.0000200154418946,14.999959,3.0000200154418946Q14.7953873,3.0000200154418946,14.5910616,3.0100579154418945Q14.3867359,3.0200958154418944,14.1831493,3.0401473154418945Q13.9795625,3.0601988154418946,13.777205,3.0902159154418944Q13.5748472,3.1202330154418947,13.3742063,3.1601429154418947Q13.173565400000001,3.2000530154418945,12.9751244,3.2497597154418947Q12.7766831,3.2994666154418946,12.580919999999999,3.3588505154418944Q12.3851569,3.4182348154418944,12.1925435,3.4871530154418946Q11.9999301,3.5560713154418946,11.8109305,3.6343574154418947Q11.6219307,3.7126436154418947,11.437,3.8001094154418946Q11.2520692,3.8875751154418947,11.071653,3.9840095154418944Q10.89123672,4.080444115441894,10.71576965,4.185615015441895Q10.540302520000001,4.290786015441895,10.37020725,4.404440015441894Q10.20011199,4.5180940154418945,10.035798334,4.639957415441895Q9.8714847,4.761820515441895,9.71334851,4.891599515441895Q9.55521232,5.021378515441895,9.40363461,5.158760715441895Q9.25205684,5.296142715441895,9.10740274,5.440796855441895Q8.9627486,5.585450945441894,8.8253665,5.737028655441895Q8.6879845,5.888606365441895,8.5582054,6.046742555441894Q8.4284265,6.204878735441895,8.3065631,6.369192361441894Q8.1846999,6.533505995441894,8.0710459,6.703601245441894Q7.9573920000000005,6.873696505441894,7.852221,7.049163635441895Q7.7470498,7.224630775441895,7.6506152,7.405047015441895Q7.5541809,7.585463315441895,7.466715300000001,7.7703940154418945Q7.3792496,7.955324615441895,7.3009634000000005,8.144324415441895Q7.2226772,8.333324215441895,7.153759,8.525937515441894Q7.0848408,8.718551115441894,7.0254563999999995,8.914314315441894Q6.9660726,9.110077415441895,6.9163656,9.308518415441895Q6.8666587,9.506959415441894,6.8267488,9.707600315441894Q6.7868390000000005,9.908241315441895,6.7568221,10.110599315441895Q6.726804700000001,10.312957015441894,6.7067533,10.516543815441896Q6.6867018,10.720130915441896,6.676663899999999,10.924456115441895Q6.666626,11.128781315441895,6.666626,11.333353015441894Q6.666626,11.537924815441894,6.676663899999999,11.742250415441895Q6.6867018,11.946576115441895,6.7067533,12.150163215441895Q6.726804700000001,12.353749315441895,6.7568219,12.556106615441895Q6.7868390000000005,12.758464315441895,6.8267488,12.959105515441895Q6.8666587,13.159746215441896,6.9163656,13.358187715441893Q6.9660726,13.556628715441896,7.0254563999999995,13.752391815441895Q7.0848408,13.948154415441895,7.153759,14.140767115441895Q7.2226772,14.333380715441894,7.3009634000000005,14.522380815441895Q7.3792496,14.711380915441895,7.466715300000001,14.896311715441895Q7.5541811,15.081242515441895,7.6506155,15.261658715441895Q7.74705,15.442074815441895,7.852221,15.617541315441894Q7.9573920000000005,15.793007815441895,8.0710459,15.963103315441895Q8.1846999,16.133198715441893,8.3065631,16.297513015441893Q8.4284265,16.461827015441894,8.5582054,16.619964015441894Q8.6879845,16.778100015441893,8.8253665,16.929677015441897Q8.9627486,17.081254015441893,9.1074028,17.225908015441895Q9.25205696,17.370563015441896,9.40363467,17.507945015441894Q9.55521238,17.645327015441893,9.71334854,17.775105015441895Q9.87148473,17.904883015441897,10.035798356,18.026747015441895Q10.200112,18.148610015441896,10.37020725,18.262264015441893Q10.540302520000001,18.375918015441897,10.71576965,18.481090015441893Q10.89123672,18.586261015441895,11.071653,18.682695015441894Q11.2520692,18.779130015441893,11.437,18.866595015441895Q11.6219307,18.954061015441894,11.8109305,19.032348015441894Q11.9999301,19.110634015441896,12.1925435,19.179551015441895Q12.3851571,19.248470015441896,12.5809202,19.307855015441895Q12.7766833,19.367238015441895,12.9751244,19.416945015441897Q13.173565400000001,19.466652015441895,13.3742065,19.506562015441894Q13.5748475,19.546472015441893,13.777205,19.576488015441896Q13.9795628,19.606506015441894,14.183149799999999,19.626558015441894Q14.3867359,19.646609015441896,14.5910616,19.656648015441895Q14.7953873,19.666686015441897,14.999959,19.666686015441897ZM30.013107,11.341669115441896C30.013107,9.057907615441895,28.465696,7.064381125441894,26.253304,6.497918845441895C25.361593,6.2696049214418945,24.823805,5.361646655441895,25.052118,4.469936815441894C25.280431999999998,3.5782270154418945,26.188391,3.0404384154418946,27.080101,3.2687521154418944C30.767422,4.212855815441895,33.346439000000004,7.535400415441894,33.346439000000004,11.341669115441896C33.346439000000004,15.147936815441895,30.767422,18.470482015441895,27.080101,19.414586015441895C26.188391,19.642899015441895,25.280431999999998,19.105111015441892,25.052118,18.213401015441896C24.823805,17.321691015441893,25.361593,16.413733015441892,26.253304,16.185419115441896C28.465696,15.618956615441894,30.013107,13.625430115441894,30.013107,11.341669115441896ZM15,16.333333015441895Q15.122743100000001,16.333333015441895,15.2453384,16.327310515441894Q15.3679338,16.321288115441895,15.4900861,16.309257515441892Q15.6122379,16.297225915441892,15.7336521,16.279214815441897Q15.8550663,16.261204715441895,15.9754515,16.237258915441895Q16.095835700000002,16.213313115441892,16.2149005,16.183487915441894Q16.3339653,16.153664615441894,16.4514232,16.118034315441896Q16.568881,16.082404115441896,16.6844492,16.041052815441894Q16.8000164,15.999701515441895,16.9134164,15.952730215441894Q17.0268164,15.905758815441894,17.1377745,15.853279115441895Q17.248733,15.800799415441894,17.356983200000002,15.742939015441895Q17.4652328,15.685078615441894,17.5705128,15.621974915441895Q17.6757927,15.558872215441895,17.7778502,15.490679715441894Q17.8799076,15.422487215441894,17.9784956,15.349370015441895Q18.0770836,15.276251815441894,18.1719656,15.198385215441894Q18.2668476,15.120517715441894,18.3577938,15.038087815441894Q18.448741,14.955658915441894,18.5355339,14.868866915441895Q18.6223259,14.782074015441895,18.7047558,14.691127815441895Q18.787185700000002,14.600180615441895,18.8650532,14.505299615441894Q18.942920700000002,14.410417515441894,19.0160379,14.311829115441896Q19.0891552,14.213240615441894,19.157347700000003,14.111183215441894Q19.225540199999998,14.009125715441893,19.2886429,13.903845815441894Q19.3517456,13.798565815441894,19.409606,13.690316215441895Q19.4674664,13.582066015441894,19.5199461,13.471107915441895Q19.572425799999998,13.360149415441896,19.6193972,13.246749915441894Q19.6663685,13.133349915441894,19.7077198,13.017781715441895Q19.749071100000002,12.902214015441896,19.784701300000002,12.784756215441895Q19.8203316,12.667298315441894,19.8501568,12.548233515441893Q19.879980099999997,12.429168715441895,19.9039268,12.308784515441895Q19.9278727,12.188399315441895,19.9458828,12.066985115441895Q19.963893900000002,11.945570915441895,19.975924499999998,11.823419115441894Q19.9879551,11.701266815441894,19.9939785,11.578671415441894Q20,11.456076115441896,20,11.333333015441895Q20,11.210589915441894,19.9939785,11.087994615441895Q19.9879551,10.965399215441895,19.975924499999998,10.843247415441894Q19.963892899999998,10.721095115441894,19.945881800000002,10.599680415441895Q19.9278717,10.478265715441895,19.9039259,10.357881115441895Q19.879980099999997,10.237496415441894,19.8501549,10.118431615441894Q19.8203316,9.999367215441895,19.784701300000002,9.881909615441895Q19.749071100000002,9.764451515441895,19.7077198,9.648883615441894Q19.6663685,9.533315415441894,19.6193972,9.419915715441896Q19.572425799999998,9.306515715441895,19.5199461,9.195557615441894Q19.4674664,9.084599015441896,19.409606,8.976349315441894Q19.3517456,8.868099715441895,19.288641900000002,8.762819315441895Q19.2255392,8.657538915441894,19.157346699999998,8.555481715441895Q19.0891542,8.453424415441894,19.016037,8.354836215441894Q18.9429188,8.256248215441895,18.8650522,8.161366415441895Q18.787184699999997,8.066484715441895,18.7047548,7.975538015441894Q18.6223259,7.884591415441895,18.5355339,7.797799015441894Q18.448741,7.711006515441895,18.3577948,7.6285772154418945Q18.2668476,7.5461480154418945,18.171966599999998,7.468280715441894Q18.077084499999998,7.3904133154418945,17.9784961,7.317295195441894Q17.8799076,7.244177225441895,17.7778502,7.175984795441894Q17.6757927,7.107792375441894,17.5705128,7.044689775441895Q17.4652328,6.981587295441894,17.356983200000002,6.923726615441894Q17.248733,6.865865945441895,17.1377749,6.813386465441894Q17.0268164,6.760907055441894,16.9134169,6.713935285441894Q16.8000169,6.6669635154418945,16.6844487,6.625612615441894Q16.568881,6.584261745441895,16.4514232,6.548631315441894Q16.3339653,6.513000875441895,16.2149005,6.483176735441894Q16.095835700000002,6.453352585441895,15.9754515,6.429406598441894Q15.8550663,6.405460611441894,15.7336521,6.387450456441894Q15.6122379,6.369440306441895,15.4900861,6.3574093804418945Q15.3679338,6.345378452441895,15.2453384,6.339355733741894Q15.122743100000001,6.3333330154418945,15,6.3333330154418945Q14.877256899999999,6.3333330154418945,14.7546616,6.339355733741894Q14.6320662,6.345378452441895,14.5099144,6.3574093804418945Q14.3877621,6.369440306441895,14.2663474,6.387450456441894Q14.1449327,6.405460611441894,14.0245481,6.429406598441894Q13.9041634,6.453352585441895,13.7850986,6.483176725441894Q13.6660342,6.513000875441895,13.5485766,6.548631315441894Q13.4311185,6.584261745441895,13.3155506,6.625612645441895Q13.1999824,6.6669635154418945,13.086582700000001,6.713935285441894Q12.9731827,6.760907055441894,12.8622246,6.813386465441894Q12.751266000000001,6.865865945441895,12.6430163,6.923726615441894Q12.5347667,6.981587295441894,12.4294863,7.044689895441895Q12.324205899999999,7.107792375441894,12.2221487,7.175984795441894Q12.1200914,7.244177225441895,12.0215032,7.317295195441894Q11.9229152,7.3904133154418945,11.8280334,7.468280715441894Q11.7331517,7.5461480154418945,11.642205,7.6285772154418945Q11.5512584,7.711006515441895,11.464466,7.797799015441894Q11.3776735,7.884591415441895,11.295244199999999,7.975538015441894Q11.212814999999999,8.066484815441894,11.1349477,8.161366615441894Q11.057080299999999,8.256248215441895,10.98396218,8.354836415441895Q10.91084421,8.453424415441894,10.84265178,8.555481715441895Q10.77445936,8.657538915441894,10.71135676,8.762819315441895Q10.64825428,8.868099715441895,10.5903936,8.976349315441894Q10.53253293,9.084599015441896,10.48005345,9.195557115441895Q10.42757404,9.306515715441895,10.38060227,9.419915415441896Q10.3336305,9.533315215441895,10.2922796,9.648883315441894Q10.25092873,9.764451515441895,10.2152983,9.881909615441895Q10.17966786,9.999367515441895,10.14984372,10.118432015441895Q10.12001957,10.237496815441894,10.096073583,10.357881515441894Q10.072127596,10.478265715441895,10.054117441,10.599680415441895Q10.036107291,10.721095115441894,10.024076365,10.843247415441894Q10.012045437,10.965399215441895,10.0060227183,11.087994615441895Q10,11.210589915441894,10,11.333333015441895Q10,11.456076115441896,10.0060227183,11.578671415441894Q10.012045437,11.701266815441894,10.024076365,11.823419115441894Q10.036107291,11.945570915441895,10.054117441,12.066985115441895Q10.072127596,12.188399315441895,10.096073583,12.308784515441895Q10.12001957,12.429168715441895,10.14984371,12.548233515441893Q10.17966786,12.667298315441894,10.2152983,12.784756215441895Q10.25092873,12.902214015441896,10.29227963,13.017782215441894Q10.3336305,13.133349415441895,10.38060227,13.246749415441894Q10.42757404,13.360149415441896,10.48005345,13.471107515441894Q10.53253293,13.582066015441894,10.5903936,13.690316215441895Q10.64825428,13.798565815441894,10.71135688,13.903845815441894Q10.77445936,14.009125715441893,10.84265178,14.111183215441894Q10.91084421,14.213240615441894,10.98396218,14.311828615441893Q11.057080299999999,14.410416615441894,11.1349477,14.505298615441895Q11.212814999999999,14.600180615441895,11.295244199999999,14.691126815441894Q11.3776735,14.782074015441895,11.464466,14.868866915441895Q11.5512584,14.955658915441894,11.642205,15.038088815441894Q11.7331518,15.120518715441895,11.8280336,15.198386215441895Q11.9229152,15.276253715441895,12.0215034,15.349370915441895Q12.1200914,15.422488215441895,12.2221487,15.490680715441895Q12.324205899999999,15.558873215441894,12.4294863,15.621975915441894Q12.5347667,15.685078615441894,12.6430163,15.742939015441895Q12.751266000000001,15.800799415441894,12.8622241,15.853279115441895Q12.9731827,15.905758815441894,13.086582400000001,15.952730215441894Q13.1999822,15.999701515441895,13.3155503,16.041052815441894Q13.4311185,16.082404115441896,13.5485766,16.118034315441896Q13.6660345,16.153664615441894,13.785099,16.183489815441895Q13.9041638,16.213313115441892,14.0245485,16.237259815441895Q14.1449327,16.261205715441896,14.2663474,16.279215815441894Q14.3877621,16.297226915441897,14.5099144,16.309257515441892Q14.6320662,16.321288115441895,14.7546616,16.327310515441894Q14.877256899999999,16.333333015441895,15,16.333333015441895ZM30,31.333352015441896L30,34.66668801544189C30,35.587163015441895,29.253807,36.333352015441896,28.333334,36.333352015441896C27.412859,36.333352015441896,26.666666,35.587163015441895,26.666666,34.66668801544189L26.666666,31.333352015441896C26.666666,28.571929015441896,24.428091000000002,26.333354015441895,21.666666,26.333354015441895L8.333333,26.333354015441895C5.5719094,26.333354015441895,3.3333329999999997,28.571929015441896,3.3333329999999997,31.333352015441896L3.3333329999999997,34.66668801544189C3.3333329999999997,35.587163015441895,2.587141,36.333352015441896,1.6666670000000003,36.333352015441896C0.7461920000000006,36.333352015441896,0,35.587163015441895,0,34.66668801544189L0,31.333352015441896C0,26.730981015441895,3.7309604,23.000020015441894,8.333333,23.000020015441894L21.666666,23.000020015441894C26.269039,23.000020015441894,30,26.730981015441895,30,31.333352015441896ZM39.999995999999996,31.333337015441895L39.999995999999996,34.66667101544189C39.999995999999996,35.5871480154419,39.253803000000005,36.3333370154419,38.333328,36.3333370154419C37.412857,36.3333370154419,36.666664,35.5871480154419,36.666664,34.66667101544189L36.666664,31.334580015441894C36.664963,29.055978015441895,35.122913,27.066731015441896,32.916664,26.497081015441893C32.025417000000004,26.266963015441895,31.489468,25.357917015441895,31.719587,24.466672015441894C31.949705,23.575425015441894,32.858749,23.039475015441894,33.749995999999996,23.269595015441894C37.427078,24.219012015441894,39.997162,27.534423015441895,39.999995999999996,31.333337015441895Z" fill-rule="evenodd" fill="#1C2023" fill-opacity="1"/></g><g mask="url(#master_svg0_0_6024)"/></svg>