<svg xmlns="http://www.w3.org/2000/svg" xmlns:xlink="http://www.w3.org/1999/xlink" fill="none" version="1.1" width="40" height="40" viewBox="0 0 40 40"><path d="M30,34.666667000000004L30,31.333333C30,26.7309604,26.269039,23,21.666666,23L8.333333,23C3.7309604,23,4.6259291e-16,26.7309604,0,31.333333L0,34.666667000000004C0,35.587141,0.7461921,36.333332999999996,1.6666666,36.333332999999996C2.5871413,36.333332999999996,27.412859,36.333332999999996,28.333334,36.333332999999996C29.253807,36.333332999999996,30,35.587141,30,34.666667000000004Z" fill="#49B9AD" fill-opacity="1"/><path d="M23.333332507720947,11.333333Q23.333332507720947,11.5379047,23.32329450772095,11.7422295Q23.313255507720946,11.9465561,23.293203507720946,12.1501427Q23.273151507720947,12.3537292,23.243134507720946,12.5560865Q23.213118507720946,12.7584438,23.173208507720947,12.9590855Q23.13329950772095,13.159727,23.08359050772095,13.358168Q23.03388450772095,13.556608,22.974501507720948,13.752372Q22.915117507720947,13.948135,22.846197507720948,14.140748Q22.777281507720947,14.333362,22.698994507720947,14.522361Q22.620707507720947,14.711361,22.53324250772095,14.896292Q22.445776507720947,15.081223,22.349342507720948,15.261639Q22.25290750772095,15.442055,22.14773650772095,15.617521Q22.042564507720947,15.792988,21.92891050772095,15.963084Q21.815256507720946,16.133179,21.693394507720946,16.297493Q21.571531507720948,16.461807,21.44175250772095,16.619944Q21.311974507720947,16.77808,21.174591507720947,16.929658Q21.037209507720945,17.081235,20.89255550772095,17.225889000000002Q20.747901507720947,17.370542999999998,20.596323507720946,17.507925Q20.444746507720946,17.645308,20.286610507720948,17.775086Q20.128473507720948,17.904865,19.964159507720947,18.026728Q19.799845507720946,18.14859,19.629749507720945,18.262244000000003Q19.45965450772095,18.375898,19.284187507720947,18.481068999999998Q19.108721507720947,18.586239,18.92830550772095,18.682674Q18.74788950772095,18.779108,18.56295850772095,18.866573000000002Q18.378026507720946,18.95404,18.189026507720946,19.032326Q18.000027507720947,19.110611,17.807413507720945,19.179529Q17.614801507720948,19.248447,17.419039507720946,19.307833Q17.22327550772095,19.367218,17.024834507720946,19.416924Q16.826393507720947,19.466633,16.625752007720948,19.506542Q16.42511030772095,19.546452,16.222754007720948,19.576469Q16.020395707720947,19.606487,15.816809207720947,19.626539Q15.613222607720948,19.646591,15.408896907720948,19.656628Q15.204571207720948,19.666666,14.999999507720947,19.666666Q14.795427807720948,19.666666,14.591102607720948,19.656628Q14.386777407720947,19.646589,14.183190307720947,19.626537Q13.979603307720947,19.606485,13.777245507720949,19.576468Q13.574887307720946,19.546452,13.374246107720946,19.506542Q13.173605407720947,19.466633,12.975164407720946,19.416924Q12.776723407720947,19.367218,12.580960307720947,19.307835Q12.385197207720946,19.248451,12.192583607720948,19.179531Q11.999970007720947,19.110615,11.810970307720947,19.032328Q11.621970607720947,18.954041,11.437039807720947,18.866576000000002Q11.252109007720946,18.77911,11.071692907720948,18.682676Q10.891276807720947,18.586241,10.715809807720948,18.481070000000003Q10.540342807720947,18.375898,10.370247607720948,18.262244000000003Q10.200152407720948,18.14859,10.035838607720947,18.026728Q9.871525307720947,17.904865,9.713389207720947,17.775086Q9.555253007720948,17.645308,9.403675107720947,17.507925Q9.252097107720948,17.370542999999998,9.107443107720947,17.225889000000002Q8.962789107720948,17.081235,8.825407007720948,16.929657Q8.688025007720947,16.77808,8.558245907720947,16.619944Q8.428466807720948,16.461807,8.306603407720948,16.297493Q8.184740207720948,16.133179,8.071086207720947,15.963083Q7.957432107720948,15.792988,7.852261307720948,15.617521Q7.747090307720947,15.442055,7.650655867720947,15.261639Q7.554221327720947,15.081223,7.466755627720947,14.896292Q7.3792898677209475,14.71136,7.301003637720948,14.52236Q7.222717407720947,14.333361,7.153799237720947,14.140747Q7.084881067720947,13.948135,7.025497017720947,13.752373Q6.966112937720947,13.556609,6.9164060377209475,13.358168Q6.866699127720947,13.159727,6.826789137720947,12.9590855Q6.786879147720947,12.7584438,6.756862237720947,12.5560875Q6.726845323720947,12.3537292,6.706793781720947,12.1501427Q6.686742234720947,11.9465561,6.676704371720947,11.7422304Q6.666666507720947,11.5379047,6.666666507720947,11.333333Q6.666666507720947,11.1287613,6.676704371720947,10.924436100000001Q6.686742234720947,10.7201109,6.706793781720947,10.5165238Q6.726845323720947,10.3129368,6.756862237720947,10.110579000000001Q6.786879147720947,9.908220799999999,6.826789137720947,9.707579599999999Q6.866699127720947,9.5069389,6.9164060377209475,9.308497899999999Q6.966112937720947,9.1100569,7.025497017720947,8.9142938Q7.084881067720947,8.718530699999999,7.153799237720947,8.525917100000001Q7.222717407720947,8.3333035,7.301003637720948,8.1443038Q7.3792898677209475,7.9553041,7.466755627720947,7.7703733Q7.554221327720947,7.5854425,7.650655867720947,7.4050264Q7.747090307720947,7.2246103,7.8522612077209475,7.0491433Q7.957432107720948,6.8736763,8.071086207720947,6.7035811Q8.184740207720948,6.5334859000000005,8.306603507720947,6.3691721Q8.428466807720948,6.2048588,8.558245907720947,6.0467227Q8.688025007720947,5.888586500000001,8.825407007720948,5.737008599999999Q8.962789107720948,5.5854306000000005,9.107443107720947,5.4407765999999995Q9.252097107720948,5.2961226,9.403675107720947,5.1587405Q9.555252807720947,5.0213585,9.713388907720947,4.8915793999999995Q9.871525007720948,4.7618003,10.035838607720947,4.6399369Q10.200152207720947,4.5180737,10.370247407720948,4.4044197Q10.540342807720947,4.2907656,10.715809807720948,4.1855948000000005Q10.891276807720947,4.0804238,11.071693407720947,3.98398936Q11.252109507720947,3.88755482,11.437040307720947,3.80008912Q11.621970607720947,3.7126233600000003,11.810970807720947,3.63433713Q11.999970407720948,3.5560509,12.192584007720948,3.48713273Q12.385197207720946,3.41821456,12.580960307720947,3.3588305099999998Q12.776723407720947,3.29944643,12.975164407720946,3.24973953Q13.173605407720947,3.20003262,13.374246607720949,3.16012263Q13.574887707720947,3.12021264,13.777245507720949,3.09019573Q13.979603307720947,3.060178816,14.183190807720948,3.040127274Q14.386777407720947,3.020075727,14.591103107720947,3.010037864Q14.795427807720948,3,14.999999507720947,3Q15.204571207720948,3,15.408896007720948,3.010037864Q15.613222607720948,3.020075727,15.816809207720947,3.040127274Q16.020395707720947,3.060178816,16.222753007720947,3.09019573Q16.42511030772095,3.12021264,16.625752007720948,3.16012263Q16.826393507720947,3.20003262,17.024834507720946,3.24973953Q17.223274507720948,3.29944643,17.41903850772095,3.3588305099999998Q17.614801507720948,3.41821456,17.80741450772095,3.48713273Q18.00002850772095,3.5560509,18.189027507720947,3.63433713Q18.378027507720947,3.7126233600000003,18.56295850772095,3.80008912Q18.74788950772095,3.88755482,18.92830550772095,3.98398936Q19.108721507720947,4.0804238,19.284187507720947,4.1855947Q19.45965450772095,4.2907656,19.62975050772095,4.4044197Q19.799845507720946,4.5180737,19.964159507720947,4.639937Q20.128473507720948,4.7618003,20.286610507720948,4.8915793999999995Q20.444746507720946,5.0213585,20.596324507720947,5.1587405Q20.747901507720947,5.2961226,20.89255550772095,5.4407765999999995Q21.037209507720945,5.5854306000000005,21.174591507720947,5.737008599999999Q21.311974507720947,5.8885863,21.44175250772095,6.0467224Q21.571531507720948,6.2048585,21.693394507720946,6.3691721Q21.815256507720946,6.5334857,21.92891050772095,6.7035809Q22.042564507720947,6.8736763,22.147735507720945,7.0491433Q22.252905507720946,7.2246103,22.349340507720946,7.4050269Q22.445774507720948,7.585443,22.53323950772095,7.7703738Q22.620706507720946,7.9553041,22.69899250772095,8.1443043Q22.777277507720946,8.3333039,22.846195507720946,8.5259175Q22.915113507720946,8.718530699999999,22.974499507720946,8.9142938Q23.03388450772095,9.1100569,23.08359050772095,9.308497899999999Q23.13329950772095,9.5069389,23.173208507720947,9.707580100000001Q23.213118507720946,9.9082212,23.243135507720947,10.110579000000001Q23.27315350772095,10.3129368,23.29320550772095,10.5165243Q23.313257507720948,10.7201109,23.32329450772095,10.9244366Q23.333332507720947,11.1287613,23.333332507720947,11.333333Z" fill="#49B9AD" fill-opacity="1"/><path d="M40.00000098032227,34.666665817382814L40.00000098032227,31.333333017382813C39.99716758032227,27.534418617382812,37.42708068032226,24.219006917382814,33.749999980322265,23.26958988938281C32.858754280322266,23.039471487382812,31.949709030322264,23.575421127382814,31.719590652322264,24.466666817382812C31.489472250322265,25.35791251738281,32.025421890322264,26.266957717382812,32.91666758032227,26.497076317382813C35.122916180322264,27.066726417382814,36.66496798032227,29.055973517382814,36.66666748032227,31.33457661738281L36.66666698032226,34.666665817382814C36.66666698032226,35.58714081738281,37.41285948032227,36.33333281738281,38.333333980322266,36.33333281738281C39.25380848032226,36.33333281738281,40.00000098032227,35.58714081738281,40.00000098032227,34.666665817382814Z" fill="#BBFBEC" fill-opacity="1"/><path d="M26.253268756787108,6.497916739987183C28.46566225678711,7.064378939987183,30.01307295678711,9.057905439987183,30.01307295678711,11.341666939987183C30.01307295678711,13.625428439987182,28.46566225678711,15.618954439987183,26.253268756787108,16.185416439987183C25.36155894678711,16.413730439987184,24.823770226787108,17.321688439987184,25.05208399478711,18.21339843998718C25.280397776787108,19.105108439987184,26.18835615678711,19.642897439987184,27.08006595678711,19.414583439987183C30.76738835678711,18.47047943998718,33.34640595678711,15.147934439987182,33.34640595678711,11.341666939987183C33.34640595678711,7.535398239987183,30.76738835678711,4.212853729987183,27.08006595678711,3.2687499779871825C26.18835615678711,3.0404362099871824,25.280397776787108,3.5782249299871824,25.05208399478711,4.469934739987183C24.823770226787108,5.361644539987182,25.36155894678711,6.2696027399871825,26.253268756787108,6.497916739987183Z" fill="#BBFBEC" fill-opacity="1"/></svg>