<svg xmlns="http://www.w3.org/2000/svg" xmlns:xlink="http://www.w3.org/1999/xlink" fill="none" version="1.1" width="40" height="40" viewBox="0 0 40 40"><path d="M37,16.5Q37,16.905052,36.980125,17.309616Q36.960251,17.71418,36.920551,18.117283Q36.880844,18.520386,36.821411,18.921053Q36.761978,19.32172,36.682957,19.718988Q36.603935,20.116257,36.505516,20.509172Q36.407097,20.902084,36.28952,21.289698Q36.171936,21.677307,36.035477,22.058681Q35.899017,22.440056,35.744011,22.814274Q35.589005,23.188494,35.415821,23.554655Q35.242641,23.920818,35.051702,24.278044Q34.86076,24.635267,34.652521,24.982693Q34.444283,25.330116,34.219248,25.666906Q33.994213,26.003696,33.752924,26.329039Q33.511635,26.654379,33.254673,26.967489Q32.997709,27.280598,32.725693,27.580721Q32.453674,27.880844,32.167259,28.167261Q31.880844,28.453676,31.580719,28.725693Q31.280598,28.997711,30.967487,29.254673Q30.654377,29.511635,30.329037,29.752924Q30.003696,29.994211,29.666906,30.219246Q29.330116,30.444281,28.982693,30.652519Q28.635269,30.86076,28.278046,31.051701Q27.92082,31.24264,27.554657,31.415821Q27.188494,31.589005,26.814274,31.744011Q26.440056,31.899017,26.058681,32.035477Q25.677307,32.171936,25.289696,32.289516Q24.902084,32.407097,24.509171,32.505516Q24.116257,32.603935,23.718988,32.682957Q23.32172,32.761978,22.921051,32.821411Q22.520386,32.880844,22.117283,32.920551Q21.71418,32.960251,21.309616,32.980125Q20.905052,33,20.5,33Q20.094948,33,19.690383,32.980125Q19.285819,32.960251,18.882718,32.920551Q18.479616,32.880844,18.078947,32.821411Q17.678279,32.761978,17.281010000000002,32.682957Q16.88374,32.603935,16.490827,32.505516Q16.097914,32.407097,15.710302,32.28952Q15.322691,32.171936,14.941317,32.035477Q14.559942,31.899017,14.185722,31.744011Q13.8115025,31.589005,13.4453402,31.415821Q13.0791779,31.242641,12.7219534,31.051702Q12.3647289,30.86076,12.0173044,30.652521Q11.669879,30.444283,11.3330908,30.219248Q10.996302100000001,29.994213,10.6709614,29.752924Q10.345620199999999,29.511635,10.0325108,29.254673Q9.719401399999999,28.997709,9.4192772,28.725693Q9.119153,28.453674,8.8327379,28.167259Q8.5463228,27.880844,8.2743063,27.580719Q8.0022898,27.280598,7.7453275,26.967487Q7.4883652000000005,26.654377,7.2470756000000005,26.329037Q7.0057864,26.003696,6.7807512,25.666906Q6.555716,25.330116,6.3474777,24.982693Q6.1392393,24.635269,5.9482991,24.278046Q5.7573587,23.92082,5.5841765,23.554657Q5.4109943000000005,23.188494,5.2559875,22.814274Q5.1009808,22.440056,4.96452278,22.058681Q4.8280648,21.677307,4.7104843899999995,21.289696Q4.59290391,20.902084,4.49448428,20.509171Q4.39606461,20.116257,4.31704283,19.718988Q4.23802106,19.32172,4.17858757,18.921051Q4.11915405,18.520386,4.079452001,18.117283Q4.039749939,17.71418,4.019874969,17.309616Q4,16.905052,4,16.5Q4,16.094948,4.019874969,15.690383Q4.039749939,15.285819,4.079452001,14.882718Q4.11915405,14.479616,4.17858756,14.078947Q4.23802106,13.678279,4.31704283,13.28101Q4.39606461,12.88374,4.49448425,12.490827Q4.59290391,12.097914,4.7104843899999995,11.710302Q4.8280648,11.322691,4.96452278,10.941317Q5.1009808,10.559942,5.2559875,10.185722Q5.4109943000000005,9.8115025,5.5841765,9.4453402Q5.7573587,9.0791779,5.9482991,8.7219534Q6.1392393,8.3647289,6.3474777,8.0173044Q6.555716,7.669879,6.7807512,7.3330908Q7.0057864,6.9963021,7.2470758,6.6709614Q7.4883652000000005,6.3456202,7.7453275,6.0325108Q8.0022898,5.7194014,8.2743063,5.4192772Q8.5463228,5.119153,8.8327379,4.8327379Q9.119153,4.5463228,9.4192772,4.2743063Q9.719401399999999,4.0022898,10.0325108,3.7453275Q10.345620199999999,3.4883652,10.6709614,3.2470756Q10.996302100000001,3.0057864,11.3330908,2.7807512Q11.669879,2.555716,12.0173044,2.3474777Q12.3647289,2.1392393,12.7219543,1.9482991Q13.0791779,1.7573587,13.4453402,1.5841765Q13.8115025,1.4109943,14.185722,1.2559875Q14.559942,1.1009808,14.941316,0.96452278Q15.322691,0.8280648,15.710302,0.71048439Q16.097914,0.59290391,16.490827,0.49448428Q16.88374,0.39606461,17.281010000000002,0.31704283Q17.678279,0.23802106,18.078947,0.17858757Q18.479615000000003,0.11915405,18.882717,0.079452001Q19.285818,0.039749939,19.690382,0.019874969Q20.094948,0,20.5,0Q20.905052,0,21.309616,0.019874969Q21.71418,0.039749939,22.117283,0.079452001Q22.520386,0.11915405,22.921053,0.17858756Q23.32172,0.23802106,23.718988,0.31704283Q24.116257,0.39606461,24.509172,0.49448425Q24.902084,0.59290391,25.289698,0.71048439Q25.677307,0.8280648,26.058681,0.96452278Q26.440056,1.1009808,26.814274,1.2559875Q27.188494,1.4109943,27.554655,1.5841765Q27.920818,1.7573587,28.278044,1.9482991Q28.635267,2.1392393,28.982693,2.3474777Q29.330116,2.555716,29.666906,2.7807512Q30.003696,3.0057864,30.329039,3.2470758Q30.654379,3.4883652,30.967489,3.7453275Q31.280598,4.0022898,31.580721,4.2743063Q31.880844,4.5463228,32.167260999999996,4.8327379Q32.453676,5.119153,32.725693,5.4192772Q32.997710999999995,5.7194014,33.254673,6.0325108Q33.511635,6.3456202,33.752924,6.6709614Q33.994211,6.9963021,34.219246,7.3330908Q34.444281000000004,7.669879,34.652519,8.0173044Q34.86076,8.3647289,35.051701,8.7219543Q35.24264,9.0791779,35.415821,9.4453402Q35.589005,9.8115025,35.744011,10.185722Q35.899017,10.559942,36.035477,10.941316Q36.171936,11.322691,36.289516,11.710302Q36.407097,12.097914,36.505516,12.490827Q36.603935,12.88374,36.682957,13.28101Q36.761978,13.678279,36.821411,14.078947Q36.880844,14.479615,36.920551,14.882717Q36.960251,15.285818,36.980125,15.690382Q37,16.094948,37,16.5Z" fill="#49B9AD" fill-opacity="1"/><rect x="13" y="9" width="5" height="12" rx="2.5" fill="#EAFEFA" fill-opacity="1"/><rect x="23" y="9" width="5" height="12" rx="2.5" fill="#EAFEFA" fill-opacity="1"/><rect x="12" y="37" width="17" height="3" rx="1.5" fill="#49B9AD" fill-opacity="1"/></svg>