<svg xmlns="http://www.w3.org/2000/svg" xmlns:xlink="http://www.w3.org/1999/xlink" fill="none" version="1.1" width="40" height="40" viewBox="0 0 40 40"><g><path d="M20.5,33Q20.905052,33,21.309616,32.980125Q21.71418,32.960251,22.117283,32.920551Q22.520386,32.880844,22.921053,32.821411Q23.32172,32.761978,23.718988,32.682957Q24.116257,32.603935,24.509172,32.505516Q24.902084,32.407097,25.289698,32.28952Q25.677307,32.171936,26.058681,32.035477Q26.440056,31.899017,26.814274,31.744011Q27.188494,31.589005,27.554655,31.415821Q27.920818,31.242641,28.278044,31.051702Q28.635267,30.86076,28.982693,30.652521Q29.330116,30.444283,29.666906,30.219248Q30.003696,29.994213,30.329039,29.752924Q30.654379,29.511635,30.967489,29.254673Q31.280598,28.997709,31.580721,28.725693Q31.880844,28.453674,32.167260999999996,28.167259Q32.453676,27.880844,32.725693,27.580719Q32.997710999999995,27.280598,33.254673,26.967487Q33.511635,26.654377,33.752924,26.329037Q33.994211,26.003696,34.219246,25.666906Q34.444281000000004,25.330116,34.652519,24.982693Q34.86076,24.635269,35.051701,24.278046Q35.24264,23.92082,35.415821,23.554657Q35.589005,23.188494,35.744011,22.814274Q35.899017,22.440056,36.035477,22.058681Q36.171936,21.677307,36.289516,21.289696Q36.407097,20.902084,36.505516,20.509171Q36.603935,20.116257,36.682957,19.718988Q36.761978,19.32172,36.821411,18.921051Q36.880844,18.520386,36.920551,18.117283Q36.960251,17.71418,36.980125,17.309616Q37,16.905052,37,16.5Q37,16.094948,36.980125,15.690383Q36.960251,15.285819,36.920551,14.882718Q36.880844,14.479616,36.821411,14.078947Q36.761978,13.678279,36.682957,13.28101Q36.603935,12.88374,36.505516,12.490827Q36.407097,12.097914,36.28952,11.710302Q36.171936,11.322691,36.035477,10.941317Q35.899017,10.559942,35.744011,10.185722Q35.589005,9.8115025,35.415821,9.4453402Q35.242641,9.0791779,35.051702,8.7219534Q34.86076,8.3647289,34.652521,8.0173044Q34.444283,7.669879,34.219248,7.3330908Q33.994213,6.9963021,33.752924,6.6709614Q33.511635,6.3456202,33.254673,6.0325108Q32.997709,5.7194014,32.725693,5.4192772Q32.453674,5.119153,32.167259,4.8327379Q31.880844,4.5463228,31.580719,4.2743063Q31.280598,4.0022898,30.967487,3.7453275Q30.654377,3.4883652,30.329037,3.2470756Q30.003696,3.0057864,29.666906,2.7807512Q29.330116,2.555716,28.982693,2.3474777Q28.635269,2.1392393,28.278046,1.9482991Q27.92082,1.7573587,27.554657,1.5841765Q27.188494,1.4109943,26.814274,1.2559875Q26.440056,1.1009808,26.058681,0.96452278Q25.677307,0.8280648,25.289696,0.71048439Q24.902084,0.59290391,24.509171,0.49448428Q24.116257,0.39606461,23.718988,0.31704283Q23.32172,0.23802106,22.921051,0.17858757Q22.520386,0.11915405,22.117283,0.079452001Q21.71418,0.039749939,21.309616,0.019874969Q20.905052,0,20.5,0Q20.094948,0,19.690383,0.019874969Q19.285819,0.039749939,18.882718,0.079452001Q18.479616,0.11915405,18.078947,0.17858756Q17.678279,0.23802106,17.281010000000002,0.31704283Q16.88374,0.39606461,16.490827,0.49448425Q16.097914,0.59290391,15.710302,0.71048439Q15.322691,0.8280648,14.941317,0.96452278Q14.559942,1.1009808,14.185722,1.2559875Q13.8115025,1.4109943,13.4453402,1.5841765Q13.0791779,1.7573587,12.7219534,1.9482991Q12.3647289,2.1392393,12.0173044,2.3474777Q11.669879,2.555716,11.3330908,2.7807512Q10.996302100000001,3.0057864,10.6709614,3.2470758Q10.345620199999999,3.4883652,10.0325108,3.7453275Q9.719401399999999,4.0022898,9.4192772,4.2743063Q9.119153,4.5463228,8.8327379,4.8327379Q8.5463228,5.119153,8.2743063,5.4192772Q8.0022898,5.7194014,7.7453275,6.0325108Q7.4883652000000005,6.3456202,7.2470756000000005,6.6709614Q7.0057864,6.9963021,6.7807512,7.3330908Q6.555716,7.669879,6.3474777,8.0173044Q6.1392393,8.3647289,5.9482991,8.7219543Q5.7573587,9.0791779,5.5841765,9.4453402Q5.4109943000000005,9.8115025,5.2559875,10.185722Q5.1009808,10.559942,4.96452278,10.941316Q4.8280648,11.322691,4.7104843899999995,11.710302Q4.59290391,12.097914,4.49448428,12.490827Q4.39606461,12.88374,4.31704283,13.28101Q4.23802106,13.678279,4.17858757,14.078947Q4.11915405,14.479615,4.079452001,14.882717Q4.039749939,15.285818,4.019874969,15.690382Q4,16.094948,4,16.5Q4,16.905052,4.019874969,17.309616Q4.039749939,17.71418,4.079452001,18.117283Q4.11915405,18.520386,4.17858756,18.921053Q4.23802106,19.32172,4.31704283,19.718988Q4.39606461,20.116257,4.49448425,20.509172Q4.59290391,20.902084,4.7104843899999995,21.289698Q4.8280648,21.677307,4.96452278,22.058681Q5.1009808,22.440056,5.2559875,22.814274Q5.4109943000000005,23.188494,5.5841765,23.554655Q5.7573587,23.920818,5.9482991,24.278044Q6.1392393,24.635267,6.3474777,24.982693Q6.555716,25.330116,6.7807512,25.666906Q7.0057864,26.003696,7.2470758,26.329039Q7.4883652000000005,26.654379,7.7453275,26.967489Q8.0022898,27.280598,8.2743063,27.580721Q8.5463228,27.880844,8.8327379,28.167261Q9.119153,28.453676,9.4192772,28.725693Q9.719401399999999,28.997711,10.0325108,29.254673Q10.345620199999999,29.511635,10.6709614,29.752924Q10.996302100000001,29.994211,11.3330908,30.219246Q11.669879,30.444281,12.0173044,30.652519Q12.3647289,30.86076,12.7219543,31.051701Q13.0791779,31.24264,13.4453402,31.415821Q13.8115025,31.589005,14.185722,31.744011Q14.559942,31.899017,14.941316,32.035477Q15.322691,32.171936,15.710302,32.289516Q16.097914,32.407097,16.490827,32.505516Q16.88374,32.603935,17.281010000000002,32.682957Q17.678279,32.761978,18.078947,32.821411Q18.479615000000003,32.880844,18.882717,32.920551Q19.285818,32.960251,19.690382,32.980125Q20.094948,33,20.5,33ZM20.5,30Q20.831406,30,21.162413,29.983738Q21.49342,29.967476,21.823231,29.934994Q22.153042,29.90251,22.48086,29.853882Q22.808678,29.805252,23.133717,29.740599Q23.458755,29.675945,23.78023,29.595421Q24.101704,29.514894,24.41884,29.418694Q24.735977,29.322491,25.048012,29.210842Q25.360044,29.099194,25.666224,28.97237Q25.972404,28.845547,26.271992,28.703854Q26.571581,28.56216,26.863855,28.405937Q27.15613,28.249712,27.440388,28.079334Q27.724644,27.908957,28.000196,27.724838Q28.275751,27.540718,28.541941,27.3433Q28.808128,27.145882,29.06431,26.93564Q29.32049,26.725399,29.566046,26.50284Q29.8116,26.280281,30.04594,26.04594Q30.280281,25.8116,30.50284,25.566046Q30.725399,25.320488,30.935642,25.064308Q31.145882,24.808128,31.3433,24.541939Q31.540718,24.275751,31.724838,24.000196Q31.908957,23.724644,32.079334,23.440386Q32.249712,23.15613,32.405937,22.863855Q32.56216,22.571581,32.703854,22.271992Q32.845546999999996,21.972404,32.97237,21.666224Q33.099194,21.360044,33.210842,21.048012Q33.322491,20.735977,33.418694,20.41884Q33.514894,20.101704,33.595419,19.78023Q33.675945,19.458755,33.740599,19.133717Q33.805251999999996,18.808678,33.853882,18.48086Q33.90251,18.153042,33.934994,17.823231Q33.967476000000005,17.49342,33.983738,17.162413Q34,16.831406,34,16.5Q34,16.168594,33.983738,15.837585Q33.967476000000005,15.506579,33.934994,15.176769Q33.90251,14.846958,33.853882,14.519138Q33.805251999999996,14.191319,33.740599,13.86628Q33.675945,13.541241,33.595421,13.219767Q33.514894,12.898293,33.418694,12.581157Q33.322491,12.264021,33.210842,11.951987Q33.099194,11.639954,32.97237,11.333773Q32.845546999999996,11.027594,32.703854,10.728004Q32.56216,10.428417,32.405937,10.136144Q32.249712,9.8438683,32.079334,9.5596123Q31.908957,9.2753544,31.724838,8.9998007Q31.540718,8.724247,31.3433,8.4580584Q31.145882,8.1918707,30.93564,7.9356904Q30.725399,7.6795096,30.50284,7.4339533Q30.280281,7.1883974,30.04594,6.9540582Q29.8116,6.719718,29.566046,6.497159Q29.320488,6.2746005,29.064308,6.0643587Q28.808128,5.8541164,28.541939,5.6566982Q28.275751,5.4592791,28.000196,5.2751598Q27.724644,5.0910406,27.440386,4.9206638Q27.15613,4.7502871,26.863855,4.5940628Q26.571581,4.4378386,26.271992,4.2961445Q25.972404,4.1544495,25.666224,4.027626Q25.360044,3.9008026,25.048012,3.789155Q24.735977,3.6775079,24.41884,3.5813055Q24.101704,3.4851034,23.78023,3.4045782Q23.458755,3.3240528,23.133717,3.2593987Q22.808678,3.1947446,22.48086,3.1461172Q22.153042,3.0974898,21.823231,3.0650063Q21.49342,3.0325227,21.162413,3.0162611Q20.831406,3,20.5,3Q20.168594,3,19.837585,3.0162613Q19.506579000000002,3.0325227,19.176769,3.0650063Q18.846958,3.0974898,18.519137999999998,3.1461172Q18.191319,3.1947446,17.86628,3.2593987Q17.541241,3.3240528,17.219766999999997,3.4045782Q16.898293000000002,3.4851036,16.581156999999997,3.5813057Q16.264021,3.6775079,15.951987,3.7891552Q15.639954,3.9008026,15.333773,4.027626Q15.027594,4.1544495,14.728004,4.2961445Q14.428417,4.4378386,14.136144,4.5940628Q13.8438683,4.7502871,13.5596123,4.9206638Q13.2753544,5.0910406,12.9998007,5.2751598Q12.724247,5.4592791,12.4580584,5.6566973Q12.1918707,5.8541164,11.9356904,6.0643587Q11.6795096,6.2746005,11.433953299999999,6.497159Q11.1883974,6.719718,10.9540582,6.9540582Q10.719718,7.1883974,10.497159,7.4339533Q10.2746005,7.6795096,10.0643587,7.9356904Q9.854116399999999,8.1918707,9.656698200000001,8.4580593Q9.4592791,8.724247,9.2751598,8.9998016Q9.0910406,9.2753563,8.9206638,9.5596123Q8.750287100000001,9.8438692,8.5940628,10.136144Q8.4378386,10.428417,8.2961445,10.728005Q8.1544495,11.027594,8.027626,11.333773Q7.9008024,11.639954,7.789155,11.951986Q7.6775076,12.264021,7.5813055,12.581157Q7.4851031,12.898293,7.4045777,13.219767Q7.3240526,13.541241,7.2593985,13.86628Q7.1947443,14.191319,7.146117,14.519138Q7.0974898,14.846958,7.0650063,15.176769Q7.0325226999999995,15.506579,7.0162610999999995,15.837585Q7,16.168594,7,16.5Q7,16.831406,7.0162613,17.162413Q7.0325226999999995,17.49342,7.0650063,17.823231Q7.0974898,18.153042,7.1461172,18.48086Q7.1947443,18.808678,7.2593985,19.133717Q7.3240526,19.458755,7.4045777,19.78023Q7.4851031,20.101704,7.5813055,20.41884Q7.6775076,20.735977,7.789155,21.048012Q7.9008024,21.360044,8.027626,21.666224Q8.1544495,21.972404,8.2961445,22.271992Q8.4378386,22.571581,8.5940628,22.863855Q8.750287100000001,23.15613,8.9206638,23.440388Q9.0910406,23.724644,9.2751598,24.000196Q9.4592791,24.275751,9.656697300000001,24.541941Q9.854116399999999,24.808128,10.0643587,25.06431Q10.2746005,25.32049,10.497159,25.566046Q10.719718,25.8116,10.9540582,26.04594Q11.1883974,26.280281,11.433953299999999,26.50284Q11.6795096,26.725399,11.9356904,26.935642Q12.1918707,27.145882,12.4580593,27.3433Q12.724247,27.540718,12.9998016,27.724838Q13.2753563,27.908957,13.5596123,28.079334Q13.8438692,28.249712,14.136144,28.405937Q14.428417,28.56216,14.728005,28.703854Q15.027594,28.845547,15.333773,28.97237Q15.639954,29.099194,15.951986,29.210842Q16.264021,29.322491,16.581156999999997,29.418694Q16.898293000000002,29.514894,17.219766999999997,29.595419Q17.541241,29.675945,17.86628,29.740599Q18.191319,29.805252,18.519137999999998,29.853882Q18.846958,29.90251,19.176769,29.934994Q19.506579000000002,29.967476,19.837585,29.983738Q20.168594,30,20.5,30Z" fill-rule="evenodd" fill="#1C2023" fill-opacity="1"/></g><rect x="12" y="37" width="17" height="3" rx="1.5" fill="#1C2023" fill-opacity="1"/></svg>