<svg xmlns="http://www.w3.org/2000/svg" xmlns:xlink="http://www.w3.org/1999/xlink" fill="none" version="1.1" width="40" height="40" viewBox="0 0 40 40"><defs><mask id="master_svg0_0_6038" style="mask-type:luminance" maskUnits="userSpaceOnUse" x="2" y="2" width="35.99639129638672" height="36"><g><path d="M5.0724843,37.469238L11.7446079,30.797113L32.596933,30.797113C35.578972,30.797113,37.996391,28.379694,37.996391,25.397655L37.996391,7.3994589C37.996391,4.4174201,35.578972,2,32.596933,2L7.3994589,2C4.4174201,2,2,4.4174201,2,7.3994589L2,36.196571C2,37.800041,3.9386611,38.603062,5.0724843,37.469238ZM10.9990683,27.197445C10.5217266,27.197445,10.0639353,27.387068,9.726403699999999,27.7246L5.5996094,31.851393L5.5996094,7.3994288C5.5996094,6.405416,6.405416,5.5996094,7.3994288,5.5996094L32.596903,5.5996094C33.590916,5.5996094,34.396721,6.405416,34.396721,7.3994288L34.396721,25.397625C34.396721,26.391638,33.590916,27.197445,32.596903,27.197445L10.9990683,27.197445Z" fill-rule="evenodd" fill="#FFFFFF" fill-opacity="1"/></g></mask></defs><g><path d="M5.0724843,37.469238L11.7446079,30.797113L32.596933,30.797113C35.578972,30.797113,37.996391,28.379694,37.996391,25.397655L37.996391,7.3994589C37.996391,4.4174201,35.578972,2,32.596933,2L7.3994589,2C4.4174201,2,2,4.4174201,2,7.3994589L2,36.196571C2,37.800041,3.9386611,38.603062,5.0724843,37.469238ZM10.9990683,27.197445C10.5217266,27.197445,10.0639353,27.387068,9.726403699999999,27.7246L5.5996094,31.851393L5.5996094,7.3994288C5.5996094,6.405416,6.405416,5.5996094,7.3994288,5.5996094L32.596903,5.5996094C33.590916,5.5996094,34.396721,6.405416,34.396721,7.3994288L34.396721,25.397625C34.396721,26.391638,33.590916,27.197445,32.596903,27.197445L10.9990683,27.197445Z" fill-rule="evenodd" fill="#1C2023" fill-opacity="1"/></g><g mask="url(#master_svg0_0_6038)"/></svg>